{"glyphs":{"0":{"ha":561,"x_min":27,"x_max":528,"o":"m 323 825 l 395 825 q 500 759 471 825 q 517 649 517 695 l 517 644 q 515 642 517 642 q 517 639 515 639 q 520 545 520 574 l 520 386 q 523 307 520 354 l 520 302 q 528 227 528 243 l 528 161 q 464 36 528 96 q 270 0 464 14 l 150 0 q 53 51 98 7 q 27 146 27 98 l 33 325 q 27 613 30 390 q 63 772 45 772 q 186 818 80 818 q 323 825 197 818 m 160 600 l 160 555 q 163 171 160 418 q 203 125 169 125 q 347 127 319 127 q 387 151 387 139 q 406 204 397 159 q 403 559 403 424 l 403 572 l 397 580 l 397 631 q 374 700 397 700 l 300 700 q 168 667 168 700 q 160 600 160 629 z "},"1":{"ha":363,"x_min":14,"x_max":343,"o":"m 255 838 l 265 838 q 343 781 332 838 l 343 747 q 328 522 328 593 q 332 485 330 488 q 330 448 330 463 l 330 441 q 332 402 330 425 q 317 142 328 380 l 317 65 q 257 0 317 0 l 231 0 q 177 34 190 0 l 177 37 q 180 142 180 104 l 180 192 q 184 254 180 196 l 184 366 q 190 415 190 410 l 190 444 q 182 472 190 472 l 177 472 l 133 431 q 89 422 108 422 l 55 422 q 14 462 14 428 q 177 801 14 495 q 255 838 203 838 z "},"2":{"ha":543,"x_min":20,"x_max":524,"o":"m 193 837 l 243 837 q 340 829 317 829 l 380 829 q 500 711 500 829 l 500 559 q 391 347 500 467 q 307 241 383 332 q 252 160 252 169 l 252 150 l 264 147 l 370 147 q 440 152 433 152 l 477 152 q 524 105 509 152 l 524 55 q 464 13 500 13 q 330 5 464 5 l 256 5 q 204 3 233 5 q 172 5 196 5 q 94 0 163 5 q 33 52 33 6 l 33 68 q 115 220 33 144 l 238 391 q 346 530 238 394 l 361 570 q 359 572 361 572 q 364 646 364 600 q 340 690 364 690 q 273 701 340 699 q 270 703 270 701 l 264 701 l 238 701 q 157 651 168 701 q 149 564 151 636 q 99 533 138 533 l 81 533 q 20 588 20 533 q 52 787 31 787 q 193 837 83 837 z "},"3":{"ha":495,"x_min":20,"x_max":464,"o":"m 269 834 l 319 834 q 439 787 398 834 q 464 610 464 787 l 464 498 q 436 423 464 463 q 464 252 456 355 l 461 252 l 464 246 l 464 182 q 409 55 464 121 q 267 18 355 18 q 108 0 233 8 l 95 0 q 25 35 25 0 q 20 64 21 35 l 20 67 q 47 134 20 121 q 83 140 66 140 l 212 140 q 317 170 297 140 q 321 194 321 189 l 321 244 q 297 341 321 341 l 279 344 q 170 334 186 334 q 105 391 113 334 l 105 396 q 157 473 112 473 q 287 503 252 482 q 324 572 324 515 q 327 590 327 572 l 327 655 q 290 705 327 699 q 259 707 276 707 q 80 692 125 702 l 65 692 q 23 752 26 692 l 23 760 q 75 822 23 822 q 269 834 121 827 z "},"4":{"ha":471,"x_min":0,"x_max":459,"o":"m 309 842 q 391 799 391 842 q 297 624 391 760 q 185 401 237 496 q 182 391 182 396 l 182 386 q 193 376 182 382 l 236 376 q 287 406 287 376 q 294 454 289 406 l 294 469 q 297 472 294 472 q 294 474 297 474 q 322 555 302 555 q 340 563 323 560 l 386 563 q 429 520 429 559 q 416 414 429 507 q 452 373 416 396 l 459 345 q 416 259 459 272 q 406 239 406 248 l 406 193 q 401 132 406 189 l 401 73 q 350 0 401 10 l 317 0 q 259 48 259 0 q 267 134 267 104 l 267 223 q 233 251 267 251 l 226 251 q 76 236 132 236 l 54 236 q 0 274 18 236 l 0 297 q 51 416 0 341 q 155 606 67 450 q 223 741 155 612 q 299 842 263 842 l 309 842 z "},"5":{"ha":489,"x_min":14,"x_max":472,"o":"m 95 826 q 407 826 381 826 l 423 826 q 458 785 452 826 q 404 699 458 699 l 388 699 l 350 707 q 241 704 281 704 l 231 704 q 182 663 182 704 l 182 576 q 214 519 182 519 l 263 519 q 328 525 324 525 l 336 525 q 439 479 417 525 q 472 321 465 470 l 472 218 q 464 110 472 186 l 464 99 q 339 4 425 4 q 285 -4 305 -4 l 258 -4 q 73 -7 191 -4 q 19 31 19 5 q 14 58 14 31 l 14 69 q 57 129 14 120 l 71 132 q 168 126 121 126 l 236 126 q 334 167 334 126 q 339 227 334 181 l 339 289 q 288 387 325 387 l 279 387 q 174 381 197 381 l 141 381 q 54 433 54 381 q 46 506 48 433 l 46 509 q 52 625 52 616 l 52 688 q 54 731 52 703 q 49 780 49 747 q 95 826 49 811 z "},"6":{"ha":492,"x_min":0,"x_max":465,"o":"m 354 834 l 357 834 q 417 774 417 827 l 417 768 q 347 701 417 701 l 291 701 q 215 703 262 701 q 152 666 152 689 q 142 572 149 666 l 142 566 q 160 535 142 541 l 354 541 q 448 488 416 541 q 465 281 465 420 q 444 68 465 68 q 294 0 403 0 l 186 0 q 31 55 69 0 q 0 202 3 78 l 3 202 l 0 208 l 13 275 l 10 281 l 10 291 q 16 417 10 302 l 16 465 q 21 514 21 509 l 21 722 q 202 829 21 814 l 304 829 q 354 834 349 834 m 144 265 l 144 168 q 178 144 154 144 q 257 142 227 144 q 330 178 330 148 l 338 220 l 326 372 q 189 414 326 404 q 152 378 152 414 q 144 265 149 362 z "},"7":{"ha":537,"x_min":14,"x_max":522,"o":"m 122 864 l 440 846 q 517 814 517 846 q 522 782 522 814 l 522 753 q 488 642 522 708 q 403 456 488 633 q 305 236 361 353 q 204 14 223 19 q 109 0 178 0 q 58 47 58 8 q 141 239 71 101 q 204 363 159 281 q 276 525 208 378 q 350 697 332 638 q 329 715 350 712 q 289 713 313 715 q 170 715 227 715 q 58 707 81 707 q 14 753 14 722 l 14 808 q 112 864 14 864 l 122 864 z "},"8":{"ha":501,"x_min":14,"x_max":477,"o":"m 358 849 q 452 793 437 840 q 467 674 460 778 q 470 660 470 674 l 470 628 q 475 543 470 622 l 475 517 q 458 451 475 492 l 458 449 l 470 400 l 470 298 q 477 203 477 222 l 477 175 q 414 26 477 60 q 319 5 366 5 l 241 5 q 195 0 201 0 l 161 0 q 55 32 75 12 q 16 134 16 70 l 16 172 q 14 182 16 178 q 28 386 21 231 q 55 446 31 418 l 55 463 q 28 531 28 502 l 28 633 q 89 815 41 815 q 130 825 101 825 l 159 825 q 358 849 239 825 m 241 723 l 208 723 q 161 667 161 723 q 157 609 157 648 q 181 517 157 534 q 217 505 181 508 q 353 548 353 505 q 355 551 355 548 q 334 723 350 723 l 317 728 l 307 728 q 241 723 248 723 m 137 240 q 140 148 140 169 q 164 129 149 129 l 191 129 q 343 153 343 137 q 358 180 351 153 l 358 318 q 334 383 352 383 l 302 383 q 159 340 185 383 q 137 240 137 275 z "},"9":{"ha":483,"x_min":14,"x_max":460,"o":"m 199 834 q 374 819 283 831 q 443 758 443 789 q 458 708 455 730 l 455 708 q 458 706 455 706 q 460 634 458 698 q 455 565 460 597 q 460 464 460 518 q 448 281 453 396 l 448 247 q 450 195 448 218 q 420 59 450 87 l 389 32 q 243 0 331 0 l 58 0 q 14 35 31 0 l 14 96 q 58 138 14 127 q 186 131 79 138 q 304 161 299 138 q 317 229 311 161 q 315 309 317 256 q 292 321 303 321 l 277 321 q 71 358 96 333 q 24 464 33 372 l 21 494 l 21 632 q 18 684 21 652 q 53 792 28 767 q 199 834 81 834 m 140 676 l 140 523 q 172 452 146 452 q 229 444 172 446 q 325 471 322 444 q 337 605 330 471 q 342 671 342 605 q 223 708 342 696 l 179 708 q 140 676 140 703 z "},"\u0000":{"ha":0,"x_min":0,"x_max":0,"o":""}," ":{"ha":345,"x_min":0,"x_max":0,"o":""},"!":{"ha":241,"x_min":27,"x_max":210,"o":"m 111 831 q 207 767 207 831 q 210 758 210 761 l 188 511 l 188 498 q 153 176 175 176 l 56 176 l 56 196 q 43 244 43 214 l 43 260 q 40 430 43 331 q 50 539 50 468 q 40 770 50 663 q 111 831 40 831 m 40 151 l 168 151 q 181 109 179 151 l 181 74 q 178 71 181 71 l 181 64 q 123 0 172 0 l 107 0 q 27 87 27 0 l 27 122 q 40 151 27 146 z "},"\"":{"ha":474,"x_min":21,"x_max":446,"o":"m 136 1057 l 139 1057 q 228 1004 217 1051 l 228 964 l 225 934 q 174 828 220 865 q 96 764 131 762 l 92 765 q 48 842 43 769 q 26 890 49 849 q 21 917 26 896 l 31 962 l 30 979 q 106 1057 36 1062 q 136 1057 106 1060 m 354 1057 l 357 1057 q 446 1004 435 1051 l 446 964 l 444 934 q 392 828 438 865 q 314 765 349 762 l 311 765 q 267 842 261 769 q 244 890 268 849 q 239 917 245 896 l 250 963 l 248 979 q 324 1057 254 1062 q 354 1057 324 1060 z "},"#":{"ha":1408,"x_min":58,"x_max":1344,"o":"m 702 1126 q 1152 934 952 1126 q 1274 759 1238 838 q 1344 461 1344 610 l 1344 437 q 1153 -33 1344 178 q 702 -228 954 -228 q 238 -21 440 -228 q 58 451 58 184 q 248 929 58 722 q 702 1126 446 1126 m 684 1095 q 687 1021 687 1042 q 688 1016 688 1017 l 682 1011 l 670 1011 q 663 1089 663 1011 q 661 1094 661 1089 q 639 1092 646 1092 l 634 1092 q 637 1046 636 1082 q 629 1037 635 1046 q 639 1023 639 1032 l 639 1008 q 660 987 639 987 l 663 987 q 713 1001 713 987 q 715 1010 713 1002 q 713 1034 713 1025 q 722 1043 715 1034 q 712 1052 718 1043 l 712 1055 q 711 1095 712 1067 l 684 1095 m 760 1092 q 755 1069 758 1088 q 783 1062 783 1067 q 769 1036 783 1042 q 777 1026 771 1036 q 769 983 770 985 q 795 979 779 983 q 814 1028 800 1028 l 806 1038 q 810 1061 808 1054 q 838 1056 834 1056 l 838 1058 q 841 1079 838 1063 q 760 1092 770 1092 m 516 1052 q 524 1019 516 1042 q 518 1011 522 1019 l 518 1008 q 536 977 530 1008 q 553 966 543 966 q 608 989 608 977 l 608 995 q 603 1019 608 1002 q 576 1011 579 1011 q 579 998 579 1004 q 559 994 572 994 q 555 1015 555 1003 q 559 1023 559 1016 q 545 1047 547 1023 q 563 1053 549 1050 q 567 1041 567 1048 l 594 1048 q 573 1079 589 1079 l 567 1079 q 516 1052 516 1071 m 876 1067 q 869 1047 869 1049 q 895 1036 895 1038 q 875 1011 888 1011 q 880 1000 880 1004 q 866 959 866 965 q 890 950 886 950 q 917 995 903 995 q 912 1007 912 1002 q 922 1026 918 1026 q 945 1017 941 1017 l 954 1038 q 876 1068 885 1067 l 876 1067 m 389 1006 q 410 964 408 972 l 407 953 q 430 929 422 953 q 440 913 431 929 q 500 955 500 940 q 485 987 500 963 q 488 1000 488 993 q 469 1019 474 1000 q 446 1034 461 1034 q 389 1006 440 1034 m 995 1016 q 968 977 972 977 q 959 975 960 975 q 962 965 959 972 q 938 926 938 928 q 1000 887 996 887 q 1010 907 1010 901 q 972 934 976 928 q 983 945 981 945 l 984 945 l 1010 929 q 1023 949 1013 930 q 996 968 996 963 q 1006 981 1002 979 q 1044 956 1008 979 q 1057 975 1047 957 q 995 1016 1054 977 m 443 1006 q 470 959 445 1006 l 470 958 q 452 947 460 947 q 425 998 431 984 q 443 1006 439 1006 m 291 918 q 313 884 291 910 l 311 874 l 322 874 q 353 848 345 848 q 399 886 369 848 l 401 893 q 380 925 401 900 l 380 926 l 382 935 l 372 935 q 337 962 347 962 q 292 925 323 962 l 291 918 m 1095 943 q 1062 910 1095 941 l 1055 911 l 1051 911 l 1051 899 l 1021 868 q 1040 850 1021 866 l 1062 871 l 1063 871 q 1055 833 1055 836 l 1076 814 l 1086 852 q 1098 848 1097 848 l 1101 848 q 1139 884 1114 848 l 1139 889 q 1095 943 1139 903 m 332 932 l 336 932 q 372 892 347 922 l 372 889 q 359 878 372 887 l 357 878 q 321 919 346 887 l 321 922 q 332 932 321 923 m 413 672 l 414 662 l 414 584 q 374 515 374 569 q 394 412 374 458 q 425 354 397 411 q 448 321 448 326 l 448 318 l 446 307 q 452 269 448 290 q 449 245 449 260 q 450 233 450 234 l 449 230 q 461 178 454 178 q 476 144 476 165 q 503 113 481 130 q 528 92 513 92 q 552 55 552 58 q 591 5 572 5 q 603 -23 599 5 q 640 -47 614 -39 q 690 -71 652 -61 q 700 -72 699 -71 q 777 -66 723 -68 q 808 -50 793 -60 q 856 -26 831 -50 q 908 30 902 -26 q 935 106 920 45 q 960 174 960 134 q 969 204 969 188 l 969 215 q 983 264 983 249 q 978 282 981 277 q 979 306 979 297 l 979 312 q 978 319 979 317 q 979 330 979 326 q 962 394 979 357 q 964 410 963 410 l 963 414 l 963 429 q 956 465 963 442 q 968 490 968 474 l 966 500 q 974 541 974 519 l 974 549 q 979 575 979 566 l 966 621 l 968 645 q 944 729 968 664 q 881 817 922 779 q 808 878 850 864 q 648 910 713 910 l 636 910 q 549 892 602 910 q 480 848 519 881 q 424 753 447 806 q 413 672 418 730 m 1098 907 q 1111 890 1111 897 l 1095 876 l 1092 876 q 1080 887 1090 876 l 1080 889 q 1098 907 1080 891 m 621 895 q 795 867 720 895 q 863 819 854 835 q 903 751 881 804 q 944 648 925 727 l 944 647 q 942 618 944 642 q 951 581 948 601 q 956 576 954 581 l 956 574 q 948 562 956 563 l 951 547 q 938 496 951 522 q 944 491 944 495 l 944 487 q 939 482 944 485 l 930 482 q 926 469 930 477 q 941 424 932 469 l 941 418 q 938 385 938 395 q 954 343 947 374 q 956 332 954 342 l 954 321 q 957 303 957 306 q 951 282 957 300 q 959 262 959 269 q 945 219 959 255 q 937 173 945 194 q 922 127 937 149 q 901 71 911 119 q 882 30 901 68 l 882 28 q 884 22 882 27 q 857 -2 876 -2 q 818 -24 844 -2 q 777 -41 798 -24 l 702 -48 l 700 -48 q 655 -31 686 -48 q 629 -17 655 -24 q 623 4 623 -10 q 624 19 623 6 q 585 43 585 28 q 574 65 574 56 q 578 75 574 68 q 543 115 565 75 q 519 130 526 115 q 503 146 519 134 l 491 182 q 475 221 475 189 q 473 233 473 227 l 473 234 q 475 236 473 236 l 473 239 q 475 275 475 272 q 470 312 470 304 l 471 319 l 467 342 q 409 439 452 347 q 398 512 398 482 l 398 518 q 430 564 398 555 l 440 564 l 440 566 q 437 611 440 587 q 439 637 439 625 q 437 672 439 652 q 501 840 437 777 q 579 889 535 875 q 621 895 583 889 m 452 688 q 454 684 452 687 q 450 668 450 676 q 452 635 450 657 q 450 610 450 614 q 454 562 454 572 q 490 532 490 548 l 491 532 q 498 542 491 538 l 501 542 l 511 534 q 537 538 531 538 l 542 532 l 542 529 q 522 409 522 446 q 534 373 530 393 q 552 351 552 364 q 572 327 572 348 l 589 328 l 610 327 q 625 333 621 333 q 630 328 627 333 q 627 315 627 317 q 630 302 630 305 q 629 297 629 298 q 646 275 646 286 l 646 269 q 666 246 660 269 q 661 222 661 228 q 663 210 663 214 l 664 210 q 706 281 678 243 q 736 337 724 309 l 741 337 q 745 332 745 337 q 722 285 743 315 l 724 285 q 760 302 759 293 q 766 303 763 302 q 787 302 779 302 q 805 307 789 302 l 805 309 l 800 309 q 781 306 794 309 q 751 330 751 313 l 751 334 q 755 343 752 343 l 760 343 q 764 327 763 343 q 778 319 772 319 q 802 322 797 322 q 850 306 835 306 q 875 336 875 306 q 857 409 875 378 q 848 475 848 448 l 848 478 q 881 529 848 497 q 926 574 892 529 q 938 579 928 574 q 929 618 935 602 q 930 642 930 633 l 930 645 q 905 726 919 701 l 880 771 q 854 806 869 780 q 778 857 817 844 q 666 882 696 882 l 651 882 l 642 880 q 636 882 640 882 q 537 848 550 869 q 485 795 511 827 q 452 688 452 756 m 208 819 q 237 790 208 812 q 238 780 238 784 l 252 781 q 285 764 270 764 q 322 808 308 779 l 322 814 q 295 842 322 824 l 295 853 l 292 853 l 281 852 q 249 871 260 871 q 208 825 233 871 l 208 819 m 597 854 q 616 837 616 848 l 616 832 q 582 810 614 826 l 576 810 q 561 827 561 816 l 561 829 q 597 854 561 846 m 573 825 l 576 823 l 581 823 l 603 837 q 594 841 602 841 q 573 825 573 836 m 248 841 l 252 841 q 294 806 291 813 q 283 793 288 795 l 280 793 q 237 827 237 823 q 248 841 243 839 m 530 806 l 534 806 q 548 793 548 805 l 548 787 q 528 758 548 781 q 491 702 519 702 q 479 722 479 707 l 479 735 q 521 804 479 772 q 530 806 526 806 m 1095 791 l 1095 790 q 1105 774 1095 781 l 1111 774 q 1120 781 1120 779 l 1120 784 q 1107 801 1116 801 q 1095 791 1095 795 m 491 733 l 491 722 l 492 714 l 495 714 q 518 765 507 714 q 537 789 532 781 l 537 791 q 533 796 537 794 q 497 759 513 788 q 491 733 491 745 m 1180 768 q 1169 769 1175 769 q 1126 739 1169 757 q 1160 672 1154 689 q 1181 684 1177 680 l 1160 726 l 1175 733 q 1190 705 1190 709 q 1211 714 1194 705 q 1198 743 1211 720 l 1198 744 q 1213 751 1198 747 l 1214 751 q 1235 711 1221 733 q 1255 720 1252 720 q 1220 787 1255 727 q 1180 768 1184 768 m 167 768 q 157 744 167 764 q 228 713 222 717 l 228 711 q 218 696 223 696 q 203 711 205 696 q 191 707 195 707 l 149 724 l 140 699 l 140 698 q 184 671 184 684 l 184 669 q 197 673 192 673 q 208 668 208 672 q 201 651 205 651 l 199 651 l 130 678 l 130 677 q 120 652 120 656 q 165 630 165 637 l 165 626 l 167 626 q 178 629 168 626 l 198 621 q 237 662 237 635 q 233 673 237 665 q 253 694 248 680 q 256 703 253 699 q 238 739 248 739 q 222 756 222 744 q 212 751 214 751 l 168 768 l 167 768 m 1240 675 q 1219 659 1240 668 l 1216 648 l 1216 647 q 1223 614 1216 637 q 1210 610 1217 610 q 1202 627 1205 610 q 1213 633 1213 631 q 1205 657 1205 655 q 1177 637 1177 652 l 1177 629 q 1206 579 1184 579 l 1214 581 q 1223 575 1214 578 q 1246 593 1223 583 l 1249 604 l 1249 605 q 1241 637 1249 615 q 1256 644 1250 644 q 1262 626 1262 635 q 1252 621 1261 621 l 1259 595 q 1289 617 1289 600 q 1261 672 1280 672 l 1257 672 q 1252 671 1254 672 q 1240 675 1246 675 m 788 672 q 841 659 801 672 l 844 659 q 873 668 848 659 q 878 663 876 668 l 878 659 q 838 645 878 652 q 800 657 831 645 l 787 659 l 764 654 l 763 654 q 760 657 760 654 l 760 662 q 788 672 760 669 m 660 663 l 664 663 q 712 648 673 663 q 730 642 730 646 l 730 637 q 721 633 728 633 q 670 650 710 633 q 664 651 664 650 q 630 635 650 651 l 625 635 q 621 640 623 635 l 621 644 q 660 663 641 663 m 664 625 l 669 625 q 707 615 707 621 q 702 608 705 608 l 692 608 q 666 612 687 608 q 621 583 642 612 l 619 583 q 614 587 614 585 l 614 589 q 664 625 627 625 m 827 608 l 831 608 q 884 605 836 608 l 884 604 l 899 606 q 905 602 905 604 l 905 597 q 890 590 905 593 q 836 595 848 595 l 835 595 q 812 593 827 595 l 810 596 l 810 600 q 827 608 810 606 m 654 590 l 660 590 q 748 569 686 590 q 784 536 784 547 l 784 530 q 770 522 779 522 l 768 522 q 713 542 760 522 q 684 544 701 542 q 680 539 684 541 l 664 539 q 602 524 654 539 l 599 524 l 594 530 q 630 579 595 541 q 654 590 643 590 m 419 545 l 419 544 q 488 467 469 544 l 490 467 l 490 472 q 488 478 490 475 q 490 509 490 479 q 475 538 482 509 q 440 551 457 551 l 434 551 q 419 545 431 551 m 935 549 q 880 512 930 539 l 872 500 l 873 500 q 895 505 884 505 l 899 505 q 924 498 908 505 q 938 548 938 519 l 935 549 m 412 529 l 412 508 q 443 400 412 446 q 473 355 454 370 q 479 370 479 366 l 479 378 l 471 420 q 480 463 477 455 q 467 496 475 463 q 425 532 444 532 q 412 529 423 532 m 137 530 l 137 502 l 132 496 l 137 490 l 137 463 l 152 463 l 152 491 l 155 491 l 167 465 q 180 490 170 465 l 183 490 l 183 463 l 198 463 l 198 490 l 203 496 l 198 502 l 198 530 l 184 530 q 170 502 182 530 l 165 502 q 153 530 165 505 l 137 530 m 219 530 l 219 503 q 213 496 219 503 q 219 486 219 494 l 219 463 l 233 463 l 233 491 l 234 491 q 248 465 237 491 l 264 491 l 265 491 l 265 463 l 279 463 l 279 490 l 285 497 q 279 502 279 497 l 279 530 l 265 530 q 250 502 262 530 l 249 502 q 234 530 245 502 l 219 530 m 295 530 l 295 529 q 311 497 295 527 q 295 463 295 465 l 311 463 q 319 476 315 463 l 321 476 q 328 463 324 476 l 346 463 l 346 465 q 331 497 331 493 l 346 530 l 328 530 q 321 517 324 517 l 319 517 q 311 530 315 530 l 295 530 m 1000 530 l 1000 503 q 995 496 995 496 q 1000 486 1000 494 l 1000 463 l 1014 463 l 1014 491 l 1015 491 q 1029 465 1019 491 l 1045 491 l 1047 491 l 1047 463 l 1060 463 l 1060 490 l 1066 497 q 1060 502 1060 497 l 1060 530 l 1047 530 q 1032 502 1044 530 l 1030 502 q 1015 530 1027 502 l 1000 530 m 1081 530 l 1081 503 l 1076 496 q 1081 486 1081 494 l 1081 463 l 1095 463 l 1095 491 l 1096 491 q 1109 465 1100 491 l 1126 491 l 1128 491 l 1128 463 l 1141 463 l 1141 490 l 1147 497 q 1141 502 1141 497 l 1141 530 l 1128 530 q 1113 502 1124 530 l 1111 502 q 1096 530 1108 502 l 1081 530 m 1158 530 q 1174 496 1174 498 l 1158 463 l 1174 463 q 1181 476 1177 463 l 1183 476 q 1190 463 1186 476 l 1210 463 q 1194 497 1194 494 l 1210 530 l 1190 530 q 1183 517 1186 517 l 1181 517 q 1174 530 1177 530 l 1158 530 m 1221 530 q 1238 496 1238 498 l 1221 463 l 1238 463 q 1246 476 1242 463 l 1247 476 q 1255 463 1251 476 l 1274 463 q 1257 497 1257 494 l 1274 530 l 1255 530 q 1247 517 1251 517 l 1246 517 q 1238 530 1242 530 l 1221 530 m 692 527 q 737 512 734 522 l 737 508 q 733 503 737 506 q 694 514 709 514 l 692 514 q 652 497 652 507 q 648 493 649 493 l 644 493 q 639 502 639 494 q 692 527 639 517 m 440 511 q 449 503 446 509 l 443 454 q 454 427 446 427 l 460 430 q 465 426 465 428 l 465 421 q 458 414 465 419 l 452 414 q 430 454 435 414 q 434 493 434 481 l 434 498 l 433 507 q 440 511 437 511 m 699 508 q 754 481 730 508 l 754 476 q 697 451 734 451 q 645 482 645 460 l 645 486 q 699 508 667 508 m 763 502 l 768 502 q 784 478 784 489 q 775 463 782 463 q 769 467 769 465 l 769 481 l 758 493 l 758 497 q 763 502 758 499 m 702 494 q 705 486 705 490 l 705 478 q 702 465 705 474 l 703 465 q 736 481 736 468 q 702 494 718 494 m 896 493 q 899 484 899 487 q 893 467 897 475 l 895 467 q 918 487 918 467 q 896 493 907 493 m 660 482 l 660 479 l 661 479 l 661 482 l 660 482 m 861 478 l 861 472 q 865 469 862 469 l 865 471 l 863 478 l 861 478 m 458 472 q 467 469 462 472 q 464 452 464 458 l 465 439 l 460 436 q 449 454 452 436 q 458 472 452 472 m 758 466 l 763 466 q 768 461 765 466 l 768 460 q 741 418 768 448 l 739 418 q 732 426 735 418 l 754 457 q 758 466 755 466 m 880 454 l 869 454 l 861 456 q 886 372 863 426 q 887 340 887 352 l 887 334 q 881 312 887 321 q 909 292 888 312 l 911 292 q 918 343 911 295 l 927 429 q 923 442 926 442 q 897 400 923 418 l 895 400 q 890 405 892 400 l 890 408 q 912 454 912 429 l 912 458 q 880 454 894 454 m 805 437 l 810 437 q 815 426 814 437 l 814 418 l 818 397 l 818 394 q 809 390 817 390 q 800 430 802 390 l 800 433 q 805 437 800 435 m 633 436 l 639 436 q 684 414 659 414 l 691 414 q 724 421 699 414 l 726 418 l 726 412 q 690 400 716 400 q 630 431 630 408 l 630 433 q 633 436 631 436 m 1225 426 q 1223 400 1223 408 q 1242 387 1227 400 q 1220 375 1242 385 l 1217 351 q 1267 373 1263 373 l 1272 373 l 1280 366 q 1286 372 1282 366 l 1297 370 l 1302 370 l 1302 379 l 1304 390 q 1283 399 1289 390 q 1276 393 1276 395 q 1238 416 1265 393 l 1225 426 m 153 415 q 134 403 153 409 l 131 393 q 132 369 132 371 q 123 366 127 366 l 122 366 q 117 380 118 366 q 126 384 121 384 q 123 405 125 405 q 99 390 99 405 q 116 345 99 345 q 127 339 120 345 q 147 349 127 345 l 152 363 q 149 384 152 366 q 161 388 155 388 q 165 373 163 385 q 156 369 156 370 q 157 349 156 368 l 159 349 q 183 364 183 349 q 165 409 183 409 q 155 415 161 409 l 153 415 m 768 403 l 772 403 q 777 399 774 403 q 758 360 766 360 l 755 360 q 751 366 753 360 q 768 403 764 401 m 787 369 q 806 357 806 363 l 806 353 q 803 349 806 349 l 800 349 q 781 360 781 355 l 781 364 q 787 369 781 368 m 1204 288 q 1241 275 1241 280 l 1241 272 l 1249 276 q 1283 272 1273 272 l 1287 290 q 1265 294 1269 294 l 1265 296 q 1292 307 1267 298 l 1297 328 q 1267 321 1272 321 q 1234 342 1267 337 l 1226 342 q 1204 288 1211 342 m 152 326 q 146 330 152 328 q 111 313 146 320 q 110 312 110 313 q 116 294 113 294 q 141 298 134 298 q 156 266 146 266 l 157 266 q 199 285 199 269 l 199 288 l 189 333 q 152 326 159 326 m 1231 319 q 1249 312 1249 319 q 1244 300 1248 300 q 1226 307 1226 302 q 1231 319 1227 319 m 176 307 q 180 292 180 299 q 161 288 175 288 q 156 303 156 297 q 176 307 169 307 m 1181 224 q 1210 203 1181 211 q 1214 194 1213 194 q 1223 199 1221 199 q 1246 191 1229 195 q 1270 233 1261 191 l 1270 236 q 1242 255 1270 247 q 1238 262 1242 262 l 1234 260 l 1231 260 l 1205 267 q 1181 224 1192 267 m 174 254 q 165 256 170 254 q 152 243 165 250 q 131 233 131 239 q 138 216 137 216 q 167 227 162 227 q 174 209 170 227 q 146 199 147 199 l 146 197 q 153 179 150 179 q 186 189 181 189 q 193 188 188 188 q 228 208 193 197 l 228 210 q 207 266 212 250 q 174 254 178 254 m 1208 243 q 1249 230 1215 243 l 1249 229 q 1242 214 1246 214 q 1202 230 1202 228 q 1208 243 1205 243 m 197 239 q 204 221 200 235 q 192 216 195 216 q 184 234 186 224 q 197 239 193 239 m 805 215 l 802 216 q 773 210 793 212 q 753 201 767 201 q 743 204 750 201 q 732 200 735 200 q 734 197 732 197 l 760 197 q 854 222 854 207 q 831 224 839 224 l 830 224 q 805 215 810 215 m 1173 206 l 1144 149 q 1160 143 1154 143 q 1168 159 1168 157 l 1169 159 q 1187 143 1187 157 q 1196 146 1192 146 q 1226 131 1200 146 l 1227 131 q 1235 151 1235 148 q 1204 174 1204 163 q 1195 172 1198 172 q 1180 180 1180 178 q 1187 200 1187 193 q 1173 206 1177 206 m 204 176 q 195 179 201 176 q 163 153 195 167 q 174 136 170 140 q 210 153 205 153 q 188 113 203 138 q 197 94 188 109 l 227 111 q 235 109 228 109 q 262 130 235 119 q 267 136 267 133 q 259 151 259 149 l 223 134 l 223 136 l 244 173 q 234 193 244 180 l 204 176 m 836 178 q 842 153 838 153 l 845 153 q 850 163 850 155 l 850 168 q 844 179 850 176 l 839 179 l 836 178 m 812 172 q 808 155 809 168 q 815 144 810 144 q 820 146 818 146 l 820 164 q 821 165 820 165 q 812 172 820 172 m 779 164 l 781 149 l 781 140 q 785 136 781 138 l 788 136 q 791 138 791 136 l 791 158 l 790 165 l 783 165 l 779 164 m 1138 140 l 1103 91 q 1132 68 1103 90 l 1132 61 l 1141 62 q 1169 43 1151 56 l 1171 43 q 1181 60 1171 45 l 1156 79 q 1168 94 1164 94 q 1192 77 1175 90 l 1195 77 q 1205 94 1195 79 q 1177 115 1177 112 l 1177 122 l 1175 122 l 1165 121 q 1138 140 1162 125 m 833 106 q 836 103 833 103 l 844 103 q 846 127 846 119 q 845 131 845 130 l 839 131 q 833 106 833 131 m 250 98 l 241 100 q 223 80 241 87 q 213 71 223 79 q 225 55 223 55 l 253 75 l 262 73 l 262 80 l 291 103 q 280 119 280 117 q 250 98 279 119 m 794 106 l 794 92 q 798 90 795 90 l 802 90 q 806 109 806 90 l 806 118 l 799 118 q 794 106 794 117 m 1141 112 l 1143 112 q 1152 104 1152 106 q 1139 90 1143 91 q 1131 97 1131 95 l 1131 98 q 1141 112 1139 111 m 289 75 l 283 75 l 280 76 q 273 56 280 64 l 273 50 q 289 25 273 43 l 289 24 q 281 16 289 22 l 280 16 q 271 26 277 16 l 271 28 l 276 34 q 262 49 263 49 q 249 35 250 40 l 249 30 q 279 -6 249 17 l 288 -6 q 298 -2 293 -2 l 300 -2 l 302 -3 q 311 16 302 6 l 311 22 q 295 47 311 29 l 295 49 q 302 56 295 51 l 304 56 q 313 43 313 51 q 309 39 311 43 q 322 24 309 38 q 336 41 336 33 l 336 43 q 306 79 336 56 l 300 79 q 289 75 294 79 m 817 76 l 817 64 l 818 56 l 823 56 q 829 67 829 59 l 829 70 q 824 79 829 77 l 820 79 q 817 76 817 79 m 1056 37 l 1056 34 q 1081 12 1059 34 l 1081 4 l 1088 4 q 1114 -18 1090 4 l 1117 -18 q 1129 -3 1117 -16 q 1111 12 1114 12 l 1111 14 l 1141 9 l 1156 25 q 1126 34 1133 31 q 1129 45 1129 40 q 1098 73 1109 73 l 1095 73 q 1056 37 1086 73 m 787 25 l 790 24 l 794 24 q 803 46 798 26 q 802 50 802 49 l 794 50 q 787 25 790 50 m 1095 50 q 1107 40 1101 48 l 1107 35 q 1098 26 1107 33 q 1083 40 1083 38 q 1095 50 1090 50 m 814 20 l 814 14 q 818 10 814 12 l 821 10 q 827 30 825 10 l 823 33 l 820 33 q 814 20 816 33 m 322 3 l 323 -1 l 323 -8 l 302 -33 q 319 -47 315 -46 q 340 -23 333 -28 q 353 -35 353 -33 l 353 -36 q 334 -60 341 -50 l 334 -62 q 351 -74 336 -62 q 373 -47 351 -71 l 380 -47 l 380 -38 q 401 -9 401 -12 l 387 3 l 385 3 q 366 -21 385 -1 q 352 -9 352 -11 l 352 -8 q 370 14 352 -7 l 370 16 q 357 28 370 17 l 355 28 q 328 3 334 3 l 322 3 m 1004 -14 l 1004 -17 q 1019 -41 1004 -22 l 1019 -47 l 1017 -50 q 1035 -58 1029 -50 q 1045 -69 1035 -63 l 1051 -69 q 1087 -41 1064 -69 q 1088 -36 1088 -38 q 1074 -12 1088 -30 l 1074 -6 l 1076 -3 q 1053 13 1062 -3 q 1040 19 1046 19 q 1004 -14 1004 -1 m 1040 -3 q 1065 -39 1065 -34 q 1056 -47 1057 -47 l 1053 -47 q 1026 -16 1051 -46 l 1026 -12 q 1040 -3 1034 -3 m 939 -48 l 939 -51 l 956 -78 l 954 -89 q 977 -114 966 -89 q 979 -119 979 -114 q 1026 -84 1026 -98 l 1026 -81 q 1008 -51 1026 -74 q 985 -24 998 -24 q 939 -48 979 -24 m 981 -47 q 985 -56 985 -48 q 972 -64 979 -64 l 966 -54 q 981 -47 976 -47 m 464 -51 q 440 -84 452 -84 q 443 -93 443 -89 q 430 -124 443 -96 l 431 -124 q 449 -132 445 -132 l 461 -105 l 463 -105 q 486 -115 467 -105 q 494 -99 486 -113 q 470 -87 484 -96 q 477 -75 475 -75 q 511 -90 506 -90 l 512 -90 q 518 -75 512 -85 q 464 -50 465 -50 l 464 -51 m 866 -83 q 880 -115 880 -111 q 876 -123 880 -118 q 897 -157 887 -123 q 917 -149 917 -152 q 906 -119 906 -125 q 923 -113 922 -113 q 938 -141 936 -141 l 956 -134 l 942 -104 l 945 -93 q 924 -58 935 -93 q 866 -83 921 -58 m 995 -74 l 998 -74 q 1004 -81 1000 -74 l 1004 -83 q 990 -93 1002 -87 l 984 -84 l 984 -81 q 995 -74 984 -79 m 507 -117 q 511 -126 511 -122 q 506 -145 506 -142 l 506 -149 q 545 -170 506 -163 l 551 -170 q 568 -142 563 -170 q 576 -138 576 -139 q 573 -129 573 -133 q 579 -105 579 -107 q 533 -83 579 -90 q 515 -113 523 -83 q 507 -117 507 -115 m 911 -84 l 912 -84 q 916 -96 916 -94 l 899 -104 q 893 -92 895 -99 q 911 -84 905 -84 m 805 -100 l 812 -134 l 808 -141 l 808 -142 q 824 -178 819 -142 l 825 -178 l 878 -165 q 873 -149 873 -151 l 841 -156 q 836 -138 836 -145 q 841 -132 838 -138 q 825 -99 830 -132 q 824 -94 824 -99 q 805 -100 805 -98 m 597 -100 q 585 -139 593 -139 q 583 -141 583 -139 q 589 -149 587 -142 l 585 -181 l 587 -181 q 606 -182 587 -181 l 606 -181 l 610 -144 l 612 -144 q 633 -187 614 -147 q 652 -190 648 -190 q 664 -153 652 -157 q 659 -145 661 -146 l 664 -109 l 644 -106 q 636 -145 640 -145 q 614 -102 618 -102 q 597 -100 603 -100 m 542 -104 q 557 -109 557 -105 q 541 -150 546 -150 q 528 -144 528 -147 q 542 -104 538 -104 m 670 -109 l 670 -127 l 691 -127 q 694 -130 694 -128 l 694 -139 q 687 -151 694 -146 l 687 -153 q 694 -159 691 -153 l 694 -192 l 715 -192 l 715 -157 l 721 -151 l 713 -142 l 713 -129 q 717 -126 714 -126 l 736 -126 l 736 -109 l 670 -109 z "},"$":{"ha":486,"x_min":14,"x_max":461,"o":"m 301 867 q 350 793 350 867 q 412 769 353 781 q 439 709 439 751 l 439 682 q 391 633 439 649 l 363 633 q 328 568 328 633 q 323 511 328 552 q 404 473 323 473 q 445 419 445 456 q 461 332 453 419 l 461 256 q 429 118 448 118 q 339 64 418 88 q 323 7 327 64 q 277 -31 323 -22 q 236 -26 259 -31 l 190 -34 q 130 26 130 -22 q 103 69 130 69 q 19 113 37 69 q 14 134 14 123 q 62 202 14 185 q 133 218 133 210 q 138 251 138 237 l 138 349 q 95 400 138 386 q 38 557 38 425 l 38 568 q 60 685 38 598 q 144 769 60 710 q 165 850 153 850 q 203 864 177 859 l 244 853 l 258 853 q 301 867 296 867 z "},"%":{"ha":842,"x_min":7,"x_max":814,"o":"m 156 829 l 281 829 q 400 768 384 829 l 400 701 l 388 555 q 397 543 392 543 q 470 631 417 549 q 580 777 509 676 q 644 820 622 820 l 717 820 q 793 762 793 820 q 671 597 793 728 l 564 451 q 558 433 558 439 l 576 423 q 723 433 588 429 q 814 329 794 433 l 814 180 q 750 52 785 52 q 720 39 736 39 q 476 67 518 39 q 446 143 446 85 q 458 286 446 178 q 448 298 453 298 q 315 159 427 298 q 217 31 224 60 q 125 0 193 0 q 16 31 16 0 q 7 55 9 31 q 107 180 7 90 q 333 457 333 448 l 333 460 q 321 466 326 466 q 241 451 254 451 l 180 451 q 58 484 58 458 q 34 557 34 519 l 37 588 l 37 670 q 156 829 37 829 m 165 618 q 193 597 174 597 l 208 597 q 260 664 260 597 q 241 692 260 680 l 217 692 q 165 622 165 683 l 165 618 m 580 216 q 631 174 580 174 q 674 237 674 174 q 640 286 674 286 l 613 286 q 583 225 583 272 q 580 216 580 225 z "},"&":{"ha":713,"x_min":9,"x_max":745,"o":"m 224 831 l 443 831 q 503 778 503 819 l 503 622 q 443 463 503 496 q 413 416 413 438 q 469 344 428 379 l 473 344 q 524 386 489 344 q 601 431 566 431 l 622 431 q 694 395 673 431 l 694 365 q 607 254 694 338 q 577 215 577 219 l 577 203 q 658 87 577 190 q 727 -3 714 5 q 745 -42 745 -23 l 745 -54 q 628 -99 745 -99 l 619 -99 q 545 -12 578 -99 q 473 77 499 52 l 464 77 q 418 33 446 77 q 329 0 388 0 q 239 9 309 0 q 140 5 158 5 q 15 47 37 5 q 9 107 9 77 l 9 143 q 18 236 9 157 l 15 242 q 111 368 15 311 q 179 431 179 417 l 179 437 q 140 488 179 450 q 125 529 125 512 l 125 745 q 179 829 125 800 q 224 831 210 831 m 278 655 l 278 595 q 311 550 278 559 q 359 634 359 576 q 326 694 359 694 l 323 694 q 278 655 278 694 m 179 176 q 210 155 189 155 l 284 155 q 371 218 353 155 q 317 290 371 233 q 290 308 317 296 q 185 215 231 278 l 179 176 z "},"'":{"ha":253,"x_min":21,"x_max":228,"o":"m 136 1057 l 139 1057 q 228 1004 217 1051 l 228 964 l 225 934 q 174 828 220 865 q 96 764 131 762 l 92 765 q 48 842 43 769 q 26 890 49 849 q 21 917 26 896 l 31 962 l 30 979 q 106 1057 36 1062 q 136 1057 106 1060 z "},"(":{"ha":402,"x_min":20,"x_max":381,"o":"m 304 834 l 323 834 q 381 776 381 825 q 298 688 381 727 q 210 568 210 608 q 179 446 197 555 q 185 388 179 434 q 182 385 182 388 q 197 312 189 385 q 271 165 220 239 q 353 58 353 89 l 353 52 q 292 3 353 15 l 250 3 q 237 0 243 3 q 81 168 169 0 q 20 416 36 278 q 210 819 20 672 q 304 834 232 834 z "},")":{"ha":399,"x_min":14,"x_max":370,"o":"m 90 831 l 158 831 q 323 635 239 831 q 370 417 370 494 q 201 28 370 174 q 96 0 170 0 l 81 0 q 14 68 14 0 q 106 157 14 105 q 191 292 174 218 q 210 383 210 361 l 210 402 q 170 580 195 554 q 118 672 155 624 q 41 779 41 749 l 41 789 q 90 831 41 820 z "},"*":{"ha":510,"x_min":21,"x_max":477,"o":"m 254 1131 l 279 1131 q 341 1082 341 1131 q 336 1025 341 1080 l 347 1017 l 352 1017 q 412 1033 394 1033 q 477 935 451 1033 l 477 930 q 385 857 477 890 l 382 843 q 422 767 422 782 l 422 762 q 336 694 422 719 q 254 778 296 694 q 238 789 241 789 q 154 715 223 789 q 121 707 146 710 q 45 759 78 707 l 45 789 q 102 857 56 806 l 116 876 l 116 889 q 43 941 116 896 q 21 968 31 951 l 21 987 q 97 1055 50 1055 q 162 1030 121 1055 l 170 1030 q 186 1087 186 1030 q 254 1131 186 1124 z "},"+":{"ha":618,"x_min":15,"x_max":590,"o":"m 309 714 l 325 714 q 409 666 387 714 l 409 653 q 402 514 409 611 q 444 485 409 485 l 496 485 q 590 404 590 485 l 590 375 q 548 307 590 340 q 470 298 524 298 l 444 298 q 393 269 393 298 l 393 181 q 319 117 393 123 l 293 117 q 205 184 205 125 q 209 245 209 220 l 209 294 q 157 317 201 317 l 154 317 q 86 311 137 317 q 15 375 15 321 l 15 388 q 92 481 15 481 l 160 481 q 222 520 222 481 l 222 624 q 309 714 222 714 z "},",":{"ha":315,"x_min":57,"x_max":251,"o":"m 156 193 l 159 193 q 248 149 235 193 l 251 111 l 251 82 q 210 -23 251 16 q 140 -90 174 -90 l 136 -90 q 89 -20 89 -90 q 63 24 89 -13 q 57 50 63 31 l 63 94 l 60 111 q 127 190 60 190 q 156 193 127 193 z "},"-":{"ha":454,"x_min":34,"x_max":422,"o":"m 351 519 q 421 414 422 513 q 254 318 410 302 q 128 317 153 315 l 97 321 q 35 426 34 327 q 168 529 47 541 l 351 519 z "},".":{"ha":294,"x_min":41,"x_max":239,"o":"m 111 205 l 182 205 q 239 134 235 205 l 239 83 q 198 6 239 26 q 153 -7 169 -7 l 111 -7 q 41 51 41 5 l 41 60 q 92 201 48 201 l 111 205 z "},"/":{"ha":593,"x_min":0,"x_max":583,"o":"m 458 838 q 580 783 580 829 q 583 770 583 783 l 583 760 q 546 682 583 731 q 298 231 397 404 q 186 17 256 124 q 132 0 163 0 q 0 64 0 12 l 0 75 q 98 254 0 87 q 227 478 98 266 l 387 800 q 458 838 418 838 z "},":":{"ha":342,"x_min":84,"x_max":277,"o":"m 187 613 l 196 613 q 277 547 277 613 l 277 475 q 240 420 277 441 l 118 420 q 84 479 88 420 q 96 566 92 517 q 187 613 109 613 m 134 388 l 234 388 q 277 335 266 388 l 277 248 q 187 189 277 195 l 165 189 q 87 235 102 189 l 87 260 q 115 372 98 372 q 134 388 115 377 z "},";":{"ha":378,"x_min":81,"x_max":291,"o":"m 172 623 l 194 623 q 278 568 278 623 l 278 509 q 243 422 278 442 l 110 422 q 81 471 81 441 q 149 619 81 619 q 172 623 153 623 m 123 389 l 252 389 q 291 309 291 388 l 291 273 q 223 146 291 229 q 172 111 223 127 q 126 163 126 122 q 94 241 126 186 q 90 283 90 262 l 90 302 q 123 389 90 372 z "},"<":{"ha":438,"x_min":30,"x_max":410,"o":"m 323 606 q 372 533 372 606 l 372 519 q 312 435 372 455 l 247 389 l 247 373 q 380 311 261 356 q 410 264 410 290 q 361 159 410 159 l 355 159 q 146 262 339 159 q 35 321 35 294 q 30 330 30 328 l 30 392 q 130 487 30 434 q 317 604 277 604 q 323 606 317 606 z "},"=":{"ha":454,"x_min":34,"x_max":422,"o":"m 351 581 q 421 475 422 574 q 254 413 410 397 q 128 412 153 410 l 97 416 q 35 487 34 422 q 168 590 47 602 l 351 581 m 351 357 q 421 251 422 349 q 254 189 410 174 q 128 189 153 186 l 97 191 q 36 262 34 198 q 168 366 47 378 l 351 357 z "},">":{"ha":438,"x_min":30,"x_max":407,"o":"m 119 606 q 296 498 151 606 q 393 427 376 450 q 407 381 407 409 l 407 335 q 339 283 407 298 q 122 175 283 264 q 87 161 103 161 l 79 161 q 30 256 30 161 l 30 270 q 100 327 30 310 l 190 370 l 190 387 q 81 460 152 422 q 62 511 62 490 l 62 541 q 92 606 62 592 l 119 606 z "},"?":{"ha":462,"x_min":0,"x_max":456,"o":"m 298 840 l 340 840 q 444 731 444 840 l 444 691 q 456 555 456 604 l 456 543 q 324 391 456 468 q 294 255 300 380 q 275 202 294 215 l 155 202 q 136 248 144 202 q 178 444 154 444 q 291 539 178 449 q 308 592 304 564 q 258 685 308 685 q 159 645 159 677 q 129 566 159 576 q 86 555 113 555 l 83 555 q 3 642 3 555 q 0 734 0 666 q 86 798 34 798 q 298 840 125 821 m 159 176 l 285 176 q 308 109 308 159 q 215 0 308 0 q 132 53 132 9 l 132 99 q 159 176 132 146 z "},"@":{"ha":848,"x_min":14,"x_max":833,"o":"m 357 825 q 781 768 781 798 q 833 694 833 746 q 820 535 820 589 l 820 258 q 756 143 820 168 q 718 137 734 137 l 667 137 q 488 197 530 137 l 466 201 q 409 185 409 195 l 409 178 q 501 121 501 153 l 505 105 q 456 9 496 9 q 421 0 456 5 q 157 38 309 19 l 138 35 q 14 146 14 35 q 17 210 17 182 l 17 236 l 36 373 q 33 376 36 376 q 61 618 45 507 q 68 637 61 630 l 68 656 q 125 790 68 728 q 357 825 168 825 m 259 669 q 208 567 208 658 q 205 551 208 557 q 214 526 208 526 q 316 596 273 596 l 482 596 q 593 519 593 587 l 593 500 q 625 287 600 287 q 657 277 636 277 q 680 296 675 283 l 680 322 q 683 420 680 380 q 680 497 680 446 q 683 507 680 500 l 680 526 l 680 589 q 574 663 680 663 q 409 675 426 675 q 259 669 306 669 m 186 418 q 192 382 186 410 l 195 382 q 211 437 207 382 q 205 462 205 457 l 201 462 q 186 418 191 462 m 355 424 q 357 411 357 418 l 355 411 l 357 405 l 357 373 q 355 370 357 370 q 374 344 355 357 l 393 344 q 434 370 422 344 l 434 389 q 389 462 428 462 l 387 462 q 355 424 359 462 m 192 347 q 170 227 170 292 q 243 191 170 191 q 259 197 249 191 q 233 229 259 205 q 199 341 212 254 q 195 347 195 341 l 192 347 z "},"A":{"ha":534,"x_min":15,"x_max":522,"o":"m 100 813 l 287 832 q 430 795 426 833 q 471 576 448 798 l 479 506 q 481 452 483 467 q 490 390 487 423 l 509 187 q 514 106 512 154 q 522 60 517 100 q 476 -1 520 3 q 460 -6 464 -3 q 351 56 358 -16 q 347 70 348 56 q 344 170 349 128 l 340 238 q 282 270 336 275 l 204 262 q 180 232 185 260 q 182 230 180 229 q 176 115 184 216 q 187 53 177 100 q 150 -8 187 -4 l 139 -9 q 31 4 51 -18 q 18 33 18 26 l 15 57 l 27 205 q 24 208 26 208 q 23 404 29 343 l 26 405 q 22 407 25 407 q 25 699 26 510 q 100 813 40 807 m 180 464 q 264 437 184 429 l 297 441 q 321 468 317 443 l 308 524 q 311 576 307 575 q 307 578 310 578 q 306 619 307 606 l 304 635 q 282 668 302 661 l 255 665 q 184 617 179 658 q 180 464 181 590 z "},"B":{"ha":549,"x_min":14,"x_max":515,"o":"m 352 834 q 479 757 451 834 q 498 566 498 709 l 496 566 q 504 477 504 537 q 498 402 498 410 q 515 235 515 328 l 515 144 q 473 20 515 38 q 401 0 457 0 q 199 3 241 3 q 136 8 152 8 l 75 8 q 14 75 24 8 q 22 241 16 187 q 19 305 22 254 q 31 432 26 410 q 27 435 31 435 l 33 469 q 27 510 29 505 q 31 568 31 546 l 31 673 q 24 757 31 724 q 136 829 24 829 l 155 829 q 191 826 168 829 q 352 834 233 831 m 174 665 q 177 579 177 614 l 177 529 q 202 482 177 482 l 238 482 q 266 479 251 482 q 343 518 343 479 l 343 615 q 288 701 343 701 l 282 701 q 174 665 174 697 m 172 302 l 172 197 q 169 166 172 185 q 260 136 169 136 q 294 130 260 130 l 338 130 q 376 166 376 134 l 376 275 q 327 319 376 313 q 227 324 248 324 l 197 324 q 172 302 181 324 z "},"C":{"ha":648,"x_min":14,"x_max":626,"o":"m 207 829 q 308 826 240 829 q 331 829 324 829 q 386 823 354 823 l 548 823 q 626 760 626 823 l 626 725 q 623 722 626 722 l 626 716 q 591 670 612 670 q 568 664 591 664 q 288 679 490 670 q 204 609 216 679 q 184 404 191 559 l 175 289 l 175 202 q 256 159 175 163 q 363 161 280 159 q 484 159 463 159 q 576 161 539 161 q 623 96 623 144 l 626 60 q 559 0 626 5 l 349 0 q 256 6 263 6 l 161 6 q 57 55 90 20 q 14 168 14 109 q 37 422 14 289 q 34 425 37 425 l 37 453 l 37 514 l 48 647 l 48 650 q 51 652 48 652 l 48 659 l 48 673 q 129 814 48 770 q 207 829 157 829 z "},"D":{"ha":614,"x_min":14,"x_max":586,"o":"m 122 831 l 301 823 l 384 823 q 549 749 486 823 q 574 564 574 694 q 577 538 577 564 q 574 515 574 518 q 583 356 581 502 l 586 350 q 583 336 583 345 q 574 245 581 245 q 577 242 574 242 q 552 114 570 138 q 441 34 510 34 q 108 3 287 3 q 79 0 108 0 q 14 62 14 12 q 19 134 14 74 q 16 194 19 166 q 25 345 20 345 q 22 376 22 364 l 22 393 l 31 490 q 28 669 31 517 q 54 812 28 812 q 122 831 74 831 m 173 655 l 173 333 q 165 239 165 262 q 168 182 168 219 q 227 157 168 157 l 287 157 q 418 199 399 157 q 424 216 420 216 q 420 219 424 219 q 435 430 429 243 l 435 510 q 412 658 429 658 q 241 684 365 684 l 218 684 q 173 655 173 684 z "},"E":{"ha":570,"x_min":20,"x_max":549,"o":"m 234 829 l 327 829 q 374 823 374 828 l 380 826 q 517 789 497 826 q 532 733 532 761 q 470 677 532 677 q 237 686 404 683 q 186 649 186 686 q 178 570 178 595 l 178 553 q 239 514 178 514 q 450 492 450 514 q 470 433 470 473 l 470 430 q 422 359 470 370 l 406 359 q 307 368 327 368 l 209 368 q 186 342 186 368 l 186 317 q 183 315 186 315 l 186 309 q 172 199 178 260 q 229 160 172 160 q 284 157 246 160 q 492 165 420 160 q 549 79 549 165 l 549 73 q 487 0 549 0 l 478 0 q 357 5 469 0 l 212 5 q 32 39 32 12 q 20 71 20 54 l 20 73 l 32 300 l 32 396 q 28 472 32 433 q 35 578 35 520 l 37 578 l 35 585 l 35 669 q 32 787 35 712 q 99 823 50 823 l 180 823 q 234 829 228 829 z "},"F":{"ha":549,"x_min":6,"x_max":543,"o":"m 258 829 q 374 834 313 830 q 472 842 401 836 q 540 795 517 846 l 543 749 q 498 684 533 686 q 466 676 498 678 q 359 678 373 679 l 321 675 q 166 646 165 664 q 161 562 159 625 l 158 562 q 161 559 158 559 l 159 540 l 161 507 q 221 465 163 474 l 280 469 q 353 486 296 469 q 410 435 407 482 l 412 400 q 367 343 408 346 q 286 336 340 342 l 177 337 q 159 284 159 336 l 163 214 q 161 162 160 168 l 166 67 q 87 -14 171 -9 l 62 -15 q 16 34 27 -18 l 16 39 q 21 268 22 253 l 16 346 q 21 395 15 370 l 18 401 l 20 602 l 10 748 q 79 820 6 816 q 155 822 90 821 q 258 829 199 825 z "},"G":{"ha":621,"x_min":20,"x_max":593,"o":"m 160 840 l 168 840 q 336 823 313 831 l 350 826 q 386 823 376 826 q 442 826 417 826 l 475 826 q 570 801 554 826 q 581 770 581 787 l 581 768 q 565 701 581 739 q 495 678 546 678 q 420 681 471 678 l 420 684 q 417 681 417 684 q 258 690 342 690 l 252 692 q 188 633 188 692 q 180 550 180 572 l 180 441 q 182 215 180 366 q 235 153 191 153 q 391 142 258 153 q 420 215 420 142 l 420 223 q 386 273 420 273 q 291 298 291 280 q 277 343 277 307 l 277 355 q 333 427 277 427 l 383 427 q 453 425 412 427 q 526 435 516 433 q 593 363 593 435 q 590 245 590 267 q 584 229 584 237 l 584 187 q 559 31 578 31 q 481 0 541 0 l 470 0 q 126 14 271 5 q 54 64 54 37 q 43 103 45 64 l 43 134 q 28 413 35 210 l 28 469 q 20 578 20 557 l 20 703 q 51 793 20 744 q 160 840 90 840 z "},"H":{"ha":578,"x_min":20,"x_max":547,"o":"m 433 838 l 467 838 q 547 763 547 838 l 547 738 q 542 671 542 675 l 542 258 q 545 153 542 219 q 542 105 542 146 q 545 69 545 71 q 492 3 545 16 q 442 0 458 0 q 397 47 408 0 q 389 142 397 75 l 389 250 q 370 297 389 297 q 256 294 298 294 l 195 294 q 173 250 173 286 l 173 163 q 148 20 165 20 q 106 5 130 5 q 20 66 20 5 l 34 272 l 34 324 q 40 391 40 387 l 40 580 l 43 596 q 40 610 40 601 l 40 613 q 45 702 45 694 q 43 757 45 726 q 109 821 43 821 l 132 821 q 193 779 193 818 q 195 771 195 779 l 195 730 q 184 555 195 698 l 184 483 q 214 435 184 435 l 359 435 q 389 477 389 435 q 387 802 389 544 q 433 838 405 838 z "},"I":{"ha":226,"x_min":20,"x_max":193,"o":"m 112 838 q 190 799 180 838 q 193 774 193 783 l 193 760 q 187 693 193 755 l 187 359 q 176 134 181 134 q 179 123 179 129 l 176 117 q 179 106 179 112 l 179 100 q 176 98 179 98 l 179 92 l 179 64 q 121 0 179 0 q 26 39 26 2 q 20 50 22 39 q 28 220 20 78 l 28 387 q 35 454 28 391 l 35 537 q 37 634 35 596 q 35 724 35 659 l 35 740 q 31 785 35 756 q 81 835 40 835 q 112 838 97 838 z "},"J":{"ha":471,"x_min":14,"x_max":439,"o":"m 132 846 q 420 818 420 846 q 439 753 437 818 l 439 209 q 378 45 439 115 q 177 0 342 0 q 28 31 28 0 q 14 87 18 31 q 70 163 14 163 q 180 155 140 155 q 271 200 271 160 q 288 288 278 209 q 284 319 284 307 l 284 350 q 281 431 284 408 q 290 666 281 452 q 228 703 290 703 q 208 700 217 700 l 208 703 l 203 700 q 53 734 53 700 q 42 793 46 736 q 96 844 42 836 q 132 846 109 846 z "},"K":{"ha":588,"x_min":20,"x_max":577,"o":"m 465 844 q 553 794 553 844 q 500 711 553 763 q 326 463 345 510 l 326 460 q 395 345 326 431 q 566 68 541 102 q 577 60 577 64 l 577 57 q 533 -3 577 22 q 494 -9 512 -9 l 478 -9 q 401 35 418 -9 q 271 270 401 65 q 227 336 237 330 l 222 336 q 175 259 175 308 l 178 254 l 178 73 q 153 4 178 15 q 98 -7 140 -7 l 92 -7 q 20 35 36 -7 l 20 106 q 26 187 26 173 l 26 320 l 37 513 l 37 684 q 31 786 37 738 q 92 836 31 829 l 134 836 q 189 761 189 836 l 189 750 q 180 546 180 659 q 189 535 184 535 q 249 598 208 535 q 409 816 336 701 q 465 844 435 844 z "},"L":{"ha":495,"x_min":18,"x_max":490,"o":"m 90 825 l 155 829 q 195 788 186 830 l 197 745 q 193 661 198 734 q 199 610 194 650 q 186 281 188 391 l 188 249 q 189 180 190 220 q 285 159 191 155 q 377 167 372 167 l 431 170 q 485 130 484 162 l 487 74 q 410 4 490 8 l 385 3 q 214 2 288 1 q 160 -3 193 -2 q 20 35 56 -9 l 20 41 q 24 222 26 70 q 26 248 27 222 l 26 254 q 28 256 26 256 l 25 262 l 24 288 q 28 311 23 300 q 25 322 25 316 l 24 325 q 27 328 24 328 q 20 351 21 338 l 18 385 q 33 770 35 717 l 32 777 q 90 825 30 812 z "},"M":{"ha":752,"x_min":20,"x_max":728,"o":"m 77 854 l 137 854 q 210 768 192 854 l 229 732 q 351 453 295 557 l 362 448 q 465 629 378 448 q 560 808 549 794 q 628 838 591 838 l 669 838 q 728 787 728 838 l 728 627 q 718 434 718 468 l 718 388 q 712 323 712 327 l 719 57 q 670 3 719 20 q 640 0 652 0 l 637 0 q 562 43 577 0 q 564 179 564 138 l 557 429 l 555 448 l 544 448 q 454 298 525 431 q 395 247 431 247 q 313 250 347 250 q 243 336 260 250 q 189 437 199 437 q 178 399 181 437 l 183 260 q 180 220 180 227 q 183 79 183 153 q 180 76 183 76 l 183 71 l 183 65 q 118 0 183 0 l 99 0 q 28 49 28 4 l 28 52 q 31 141 28 91 l 28 184 l 34 241 q 31 260 31 252 l 34 260 q 28 307 28 275 q 26 564 28 383 q 20 605 20 590 l 20 632 q 26 697 26 693 l 26 705 q 20 770 20 766 l 20 779 q 77 854 20 854 z "},"N":{"ha":564,"x_min":20,"x_max":525,"o":"m 452 852 q 525 789 525 842 l 525 705 q 511 464 514 584 q 514 442 514 449 q 509 361 509 410 l 509 279 q 506 125 509 227 l 503 125 q 506 122 503 122 q 476 27 506 37 q 427 19 463 19 l 425 19 q 346 87 346 19 q 294 176 334 115 q 197 382 243 298 l 186 382 q 178 350 178 354 q 180 320 180 332 l 180 290 q 172 217 180 277 l 172 57 q 88 0 172 0 l 75 0 q 20 38 28 0 q 28 152 24 152 q 26 155 28 155 q 31 182 28 177 q 28 342 28 288 l 28 450 q 31 743 28 556 q 26 776 26 769 q 72 827 33 827 l 72 825 l 77 827 l 115 827 q 191 760 174 827 q 289 524 258 616 q 346 415 336 416 l 351 415 q 362 572 359 415 q 359 616 359 588 l 362 616 l 359 621 l 359 632 q 362 635 359 635 l 357 654 q 368 817 364 691 q 452 852 382 852 z "},"O":{"ha":561,"x_min":20,"x_max":527,"o":"m 149 834 l 239 834 q 443 798 443 817 q 516 711 488 774 q 527 568 516 697 q 522 395 522 429 l 522 255 q 513 171 522 197 l 513 134 q 415 12 513 45 q 275 0 376 6 l 272 0 q 77 34 163 0 q 28 120 31 79 q 32 123 32 120 l 26 126 q 20 308 23 277 l 32 593 l 32 635 q 71 795 32 746 q 149 834 114 834 m 160 442 l 160 387 q 157 286 160 329 q 160 199 160 267 q 231 149 160 154 q 269 143 245 149 q 378 193 378 153 q 381 233 381 217 l 381 269 l 378 288 l 381 288 q 373 367 373 331 q 376 448 373 387 q 373 465 376 450 q 376 498 376 484 l 373 543 q 378 608 378 573 l 378 624 q 283 697 378 688 l 219 697 q 174 630 174 697 q 160 442 174 605 z "},"P":{"ha":507,"x_min":14,"x_max":493,"o":"m 214 838 l 282 838 q 433 811 433 829 q 482 740 464 799 q 493 653 493 671 l 493 608 q 467 379 493 475 q 208 298 421 298 l 206 298 q 174 258 174 298 q 169 190 174 237 q 172 174 169 178 q 169 137 169 151 l 169 71 q 77 0 169 0 l 71 0 q 14 47 14 7 q 35 376 35 315 l 35 682 q 40 724 40 721 l 40 780 q 109 829 40 829 q 214 838 179 838 m 174 595 l 180 551 q 177 469 177 511 l 177 461 q 206 445 184 445 l 229 445 q 327 482 307 445 q 338 558 338 538 q 332 627 332 620 q 335 682 335 661 q 290 709 321 709 l 272 711 q 182 682 182 706 l 174 595 z "},"Q":{"ha":582,"x_min":14,"x_max":553,"o":"m 353 840 q 521 799 488 840 q 551 701 536 799 l 551 688 q 545 614 545 622 l 545 544 q 553 473 545 516 q 545 118 545 267 q 518 20 545 68 q 488 -18 488 -3 q 518 -113 488 -26 l 518 -134 q 505 -156 518 -149 l 366 -156 l 366 -145 q 307 -12 330 -12 q 263 1 300 -6 q 260 -1 260 1 l 247 1 l 155 1 q 24 83 56 1 q 14 180 14 124 l 14 218 q 30 433 24 382 l 30 468 q 33 492 30 477 l 30 498 q 38 582 38 543 q 35 674 38 618 q 84 807 35 780 q 309 837 134 837 q 353 840 309 840 m 174 500 q 176 498 174 498 q 163 262 168 401 l 163 216 q 222 151 163 151 l 233 151 q 244 167 238 151 l 241 172 l 241 197 q 315 245 241 245 l 345 245 q 401 235 394 235 q 412 273 412 247 l 412 308 q 399 547 404 398 l 399 647 q 339 696 399 696 q 195 671 195 696 q 176 500 189 671 l 174 500 z "},"R":{"ha":557,"x_min":27,"x_max":543,"o":"m 217 833 q 448 798 428 825 q 491 738 491 760 q 526 526 526 610 q 442 396 526 431 q 347 358 347 379 q 458 179 351 335 q 534 68 486 136 q 543 46 543 54 l 543 35 q 488 0 543 3 l 467 0 q 353 90 392 0 q 285 195 285 186 q 201 323 260 219 q 184 328 192 328 q 176 309 176 318 l 176 271 q 184 130 176 193 l 184 98 l 187 84 l 184 84 q 190 46 188 81 q 133 -5 190 -5 l 109 -5 q 38 60 38 -5 q 35 114 35 90 l 38 114 l 35 119 l 35 233 q 38 236 35 236 l 35 241 q 41 331 41 292 q 30 659 30 464 l 30 746 q 27 776 30 758 q 117 827 27 827 q 217 833 178 827 m 176 646 l 176 608 q 171 526 176 568 q 198 491 171 498 l 217 494 l 269 494 q 358 524 347 494 q 361 532 358 526 q 320 692 361 673 q 282 708 304 700 q 179 675 179 701 q 176 646 176 657 z "},"S":{"ha":513,"x_min":20,"x_max":481,"o":"m 126 831 l 156 831 q 208 826 161 831 l 281 826 q 468 804 468 826 q 481 764 481 793 l 481 736 q 435 682 471 682 q 419 680 435 680 q 349 688 363 688 l 278 688 q 199 693 262 688 q 164 636 164 693 q 197 522 164 522 l 213 519 l 251 519 q 430 460 378 519 q 473 359 473 420 q 481 248 481 317 l 481 178 q 435 34 481 61 q 308 -4 435 21 q 94 -7 138 -7 q 20 47 20 -7 l 20 80 q 77 137 31 137 l 91 137 q 278 123 202 132 q 338 194 338 123 l 338 316 q 281 376 338 376 l 161 376 q 34 490 74 376 l 28 574 q 31 658 31 614 l 31 696 q 126 831 31 831 z "},"T":{"ha":665,"x_min":14,"x_max":639,"o":"m 507 829 l 577 829 q 639 781 639 823 l 639 728 q 535 681 618 681 q 418 648 418 681 q 415 619 415 633 q 421 533 415 574 q 418 441 418 481 l 418 343 q 415 307 418 326 q 418 276 418 297 l 418 257 q 415 201 418 220 q 418 145 418 181 l 418 115 q 415 112 418 112 l 418 106 l 418 64 q 365 0 418 0 q 264 33 278 0 q 259 58 259 52 l 259 73 q 264 193 264 183 l 264 486 q 259 561 264 507 q 264 631 264 615 q 214 675 264 675 l 201 675 q 109 667 167 675 q 14 734 14 667 q 61 823 22 823 q 64 826 64 823 q 161 823 130 823 l 374 823 q 507 829 496 829 z "},"U":{"ha":572,"x_min":14,"x_max":544,"o":"m 92 840 q 169 779 169 840 q 166 745 169 759 q 169 550 169 627 l 169 431 q 174 333 169 424 l 174 222 q 239 141 174 149 q 293 138 277 138 q 389 186 389 138 q 400 265 395 186 l 389 538 l 389 587 q 377 781 380 630 q 431 829 377 821 l 484 829 q 538 755 532 829 l 538 719 q 541 516 538 594 q 538 383 538 448 q 544 226 544 240 q 442 22 544 66 q 290 0 377 0 l 203 0 q 59 76 125 0 q 31 186 31 150 l 31 203 q 33 248 31 219 q 19 395 19 294 q 25 471 19 405 q 14 589 22 536 l 14 789 q 67 840 14 833 l 92 840 z "},"V":{"ha":549,"x_min":0,"x_max":560,"o":"m 100 831 q 168 740 168 821 q 212 481 180 590 q 230 366 223 446 q 254 319 243 322 l 256 319 q 298 442 270 319 q 383 799 339 589 q 436 829 383 817 l 451 829 q 549 802 549 829 q 560 784 560 796 q 466 464 549 724 q 366 153 383 205 q 345 53 361 146 q 251 0 328 0 l 206 0 q 130 41 145 0 q 44 486 74 273 q 0 758 26 530 l 0 764 q 79 829 0 823 q 100 831 83 831 z "},"W":{"ha":907,"x_min":0,"x_max":890,"o":"m 800 840 q 884 808 884 836 q 890 793 890 808 l 890 779 q 793 236 852 539 q 767 111 767 199 q 741 20 752 20 q 697 0 724 0 l 636 0 q 554 58 576 0 q 508 274 522 150 q 461 437 470 431 l 461 441 l 450 441 q 391 251 433 441 q 376 204 386 251 q 345 76 356 164 q 307 20 337 45 q 248 12 281 12 l 204 12 q 128 52 143 12 q 44 493 73 282 q 0 762 26 536 l 0 767 q 79 831 0 825 q 99 834 83 834 q 166 744 166 824 q 210 487 178 595 q 228 374 220 453 q 251 327 241 330 l 254 327 q 295 450 267 327 q 379 802 336 594 q 432 831 379 821 l 446 831 q 543 805 543 831 q 575 636 559 805 q 627 403 587 551 q 648 332 637 332 l 650 332 q 692 513 665 332 q 738 802 703 555 q 800 840 754 840 z "},"X":{"ha":588,"x_min":7,"x_max":573,"o":"m 123 829 l 145 829 q 236 675 193 740 q 279 595 270 597 l 291 595 q 346 694 301 600 q 397 795 372 732 q 452 826 423 826 q 543 777 543 826 q 472 637 543 749 q 452 598 472 632 q 378 448 396 492 q 370 422 370 437 l 370 412 q 412 315 405 323 q 496 165 440 283 l 573 52 l 573 39 q 532 0 573 4 l 486 0 q 414 44 433 0 q 321 214 409 74 q 286 247 300 247 q 233 168 272 243 q 146 17 227 162 q 73 -5 124 -5 q 7 39 7 -5 l 7 44 q 79 184 7 64 q 178 365 127 281 q 200 412 191 382 l 200 433 q 66 689 164 527 q 19 777 19 758 q 104 823 19 817 l 115 823 l 123 829 z "},"Y":{"ha":498,"x_min":-31,"x_max":491,"o":"m 406 823 l 434 821 q 487 752 491 817 q 487 709 488 716 q 436 399 453 399 q 387 349 435 378 q 289 323 336 329 q 270 296 279 317 l 273 291 l 271 256 l 269 60 q 203 -1 265 -5 l 189 0 q 117 42 115 5 q 115 54 115 42 q 121 101 117 72 q 119 153 122 111 q 125 203 123 179 l 126 218 q 111 340 134 339 q 28 389 77 343 q -20 562 -26 471 l -31 785 l -31 787 q 32 840 -28 835 q 112 762 117 835 q 148 477 107 480 l 199 475 q 306 496 304 468 q 332 642 315 520 l 339 750 q 380 821 343 814 q 406 823 396 823 z "},"Z":{"ha":561,"x_min":14,"x_max":552,"o":"m 474 838 q 529 777 529 838 l 529 768 q 488 650 529 690 l 422 541 q 373 437 396 498 q 270 253 323 358 q 218 155 218 173 q 241 144 220 144 l 247 144 q 342 141 288 144 q 471 158 378 153 l 506 158 q 552 86 552 158 l 552 52 q 477 3 552 7 q 474 0 477 0 q 393 5 441 5 l 347 5 q 275 3 300 5 q 201 5 248 5 l 178 5 q 74 3 138 5 q 22 72 22 17 q 19 104 19 98 q 83 224 19 142 q 210 435 102 261 q 319 645 283 582 l 321 662 l 321 665 q 304 676 321 671 q 62 665 113 665 q 14 754 22 665 q 103 826 14 826 l 126 826 q 189 823 164 826 q 368 829 250 829 l 396 829 q 474 838 462 838 z "},"[":{"ha":366,"x_min":20,"x_max":340,"o":"m 149 834 q 255 825 198 825 l 279 825 q 340 736 340 825 q 239 664 340 664 q 194 636 205 664 q 197 633 194 633 l 194 618 l 194 268 q 221 176 194 176 q 298 155 298 176 q 321 76 321 146 l 321 64 q 215 0 321 0 q 47 39 85 0 q 23 174 24 60 q 26 286 26 251 q 20 374 20 346 l 20 399 q 26 481 26 473 l 26 591 q 33 664 26 595 l 33 728 q 149 834 33 810 z "},"\\":{"ha":600,"x_min":0,"x_max":585,"o":"m 129 829 q 206 771 182 829 q 389 416 306 569 q 565 112 456 311 q 585 68 585 96 l 585 64 q 507 7 585 22 q 463 0 492 0 l 419 0 q 243 304 389 0 q 112 541 174 422 q 0 758 0 727 q 129 829 0 829 z "},"]":{"ha":363,"x_min":14,"x_max":332,"o":"m 160 834 q 307 788 307 817 q 332 633 332 788 l 332 590 q 328 587 332 587 q 332 584 328 584 q 328 568 332 573 q 332 458 332 500 l 332 391 q 319 140 326 228 l 319 83 q 239 3 319 41 q 221 0 224 0 q 60 3 108 3 q 14 98 14 18 l 14 107 q 142 171 14 171 q 157 205 157 186 l 157 467 q 160 590 157 513 q 130 654 160 654 l 96 654 q 32 733 46 654 q 29 755 29 745 q 160 834 29 834 z "},"^":{"ha":578,"x_min":27,"x_max":551,"o":"m 305 1134 q 465 1015 331 1134 q 551 925 551 971 l 551 913 q 509 853 551 853 q 422 908 491 853 q 290 992 326 978 q 186 923 290 989 q 72 846 87 846 l 64 846 q 27 905 27 846 l 27 918 q 102 1000 27 962 q 253 1119 199 1082 q 305 1134 288 1134 z "},"_":{"ha":454,"x_min":-26,"x_max":511,"o":"m 440 176 q 511 71 511 170 q 343 -5 499 -20 q 68 -5 93 -8 l 37 -2 q -24 83 -26 4 q 108 186 -12 198 l 440 176 z "},"`":{"ha":273,"x_min":27,"x_max":236,"o":"m 90 1094 q 165 1040 145 1094 q 231 918 186 989 q 236 885 236 894 q 198 855 218 855 l 155 855 q 60 977 110 855 q 27 1045 27 1025 l 27 1061 q 90 1094 41 1094 z "},"a":{"ha":534,"x_min":15,"x_max":522,"o":"m 100 813 l 287 832 q 430 795 426 833 q 471 576 448 798 l 479 506 q 481 452 483 467 q 490 390 487 423 l 509 187 q 514 106 512 154 q 522 60 517 100 q 476 -1 520 3 q 460 -6 464 -3 q 351 56 358 -16 q 347 70 348 56 q 344 170 349 128 l 340 238 q 282 270 336 275 l 204 262 q 180 232 185 260 q 182 230 180 229 q 176 115 184 216 q 187 53 177 100 q 150 -8 187 -4 l 139 -9 q 31 4 51 -18 q 18 33 18 26 l 15 57 l 27 205 q 24 208 26 208 q 23 404 29 343 l 26 405 q 22 407 25 407 q 25 699 26 510 q 100 813 40 807 m 180 464 q 264 437 184 429 l 297 441 q 321 468 317 443 l 308 524 q 311 576 307 575 q 307 578 310 578 q 306 619 307 606 l 304 635 q 282 668 302 661 l 255 665 q 184 617 179 658 q 180 464 181 590 z "},"b":{"ha":549,"x_min":14,"x_max":515,"o":"m 352 834 q 479 757 451 834 q 498 566 498 709 l 496 566 q 504 477 504 537 q 498 402 498 410 q 515 235 515 328 l 515 144 q 473 20 515 38 q 401 0 457 0 q 199 3 241 3 q 136 8 152 8 l 75 8 q 14 75 24 8 q 22 241 16 187 q 19 305 22 254 q 31 432 26 410 q 27 435 31 435 l 33 469 q 27 510 29 505 q 31 568 31 546 l 31 673 q 24 757 31 724 q 136 829 24 829 l 155 829 q 191 826 168 829 q 352 834 233 831 m 174 665 q 177 579 177 614 l 177 529 q 202 482 177 482 l 238 482 q 266 479 251 482 q 343 518 343 479 l 343 615 q 288 701 343 701 l 282 701 q 174 665 174 697 m 172 302 l 172 197 q 169 166 172 185 q 260 136 169 136 q 294 130 260 130 l 338 130 q 376 166 376 134 l 376 275 q 327 319 376 313 q 227 324 248 324 l 197 324 q 172 302 181 324 z "},"c":{"ha":648,"x_min":14,"x_max":626,"o":"m 207 829 q 308 826 240 829 q 331 829 324 829 q 386 823 354 823 l 548 823 q 626 760 626 823 l 626 725 q 623 722 626 722 l 626 716 q 591 670 612 670 q 568 664 591 664 q 288 679 490 670 q 204 609 216 679 q 184 404 191 559 l 175 289 l 175 202 q 256 159 175 163 q 363 161 280 159 q 484 159 463 159 q 576 161 539 161 q 623 96 623 144 l 626 60 q 559 0 626 5 l 349 0 q 256 6 263 6 l 161 6 q 57 55 90 20 q 14 168 14 109 q 37 422 14 289 q 34 425 37 425 l 37 453 l 37 514 l 48 647 l 48 650 q 51 652 48 652 l 48 659 l 48 673 q 129 814 48 770 q 207 829 157 829 z "},"d":{"ha":614,"x_min":14,"x_max":586,"o":"m 122 831 l 301 823 l 384 823 q 549 749 486 823 q 574 564 574 694 q 577 538 577 564 q 574 515 574 518 q 583 356 581 502 l 586 350 q 583 336 583 345 q 574 245 581 245 q 577 242 574 242 q 552 114 570 138 q 441 34 510 34 q 108 3 287 3 q 79 0 108 0 q 14 62 14 12 q 19 134 14 74 q 16 194 19 166 q 25 345 20 345 q 22 376 22 364 l 22 393 l 31 490 q 28 669 31 517 q 54 812 28 812 q 122 831 74 831 m 173 655 l 173 333 q 165 239 165 262 q 168 182 168 219 q 227 157 168 157 l 287 157 q 418 199 399 157 q 424 216 420 216 q 420 219 424 219 q 435 430 429 243 l 435 510 q 412 658 429 658 q 241 684 365 684 l 218 684 q 173 655 173 684 z "},"e":{"ha":570,"x_min":20,"x_max":549,"o":"m 234 829 l 327 829 q 374 823 374 828 l 380 826 q 517 789 497 826 q 532 733 532 761 q 470 677 532 677 q 237 686 404 683 q 186 649 186 686 q 178 570 178 595 l 178 553 q 239 514 178 514 q 450 492 450 514 q 470 433 470 473 l 470 430 q 422 359 470 370 l 406 359 q 307 368 327 368 l 209 368 q 186 342 186 368 l 186 317 q 183 315 186 315 l 186 309 q 172 199 178 260 q 229 160 172 160 q 284 157 246 160 q 492 165 420 160 q 549 79 549 165 l 549 73 q 487 0 549 0 l 478 0 q 357 5 469 0 l 212 5 q 32 39 32 12 q 20 71 20 54 l 20 73 l 32 300 l 32 396 q 28 472 32 433 q 35 578 35 520 l 37 578 l 35 585 l 35 669 q 32 787 35 712 q 99 823 50 823 l 180 823 q 234 829 228 829 z "},"f":{"ha":549,"x_min":6,"x_max":543,"o":"m 258 829 q 374 834 313 830 q 472 842 401 836 q 540 795 517 846 l 543 749 q 498 684 533 686 q 466 676 498 678 q 359 678 373 679 l 321 675 q 166 646 165 664 q 161 562 159 625 l 158 562 q 161 559 158 559 l 159 540 l 161 507 q 221 465 163 474 l 280 469 q 353 486 296 469 q 410 435 407 482 l 412 400 q 367 343 408 346 q 286 336 340 342 l 177 337 q 159 284 159 336 l 163 214 q 161 162 160 168 l 166 67 q 87 -14 171 -9 l 62 -15 q 16 34 27 -18 l 16 39 q 21 268 22 253 l 16 346 q 21 395 15 370 l 18 401 l 20 602 l 10 748 q 79 820 6 816 q 155 822 90 821 q 258 829 199 825 z "},"g":{"ha":621,"x_min":20,"x_max":593,"o":"m 160 840 l 168 840 q 336 823 313 831 l 350 826 q 386 823 376 826 q 442 826 417 826 l 475 826 q 570 801 554 826 q 581 770 581 787 l 581 768 q 565 701 581 739 q 495 678 546 678 q 420 681 471 678 l 420 684 q 417 681 417 684 q 258 690 342 690 l 252 692 q 188 633 188 692 q 180 550 180 572 l 180 441 q 182 215 180 366 q 235 153 191 153 q 391 142 258 153 q 420 215 420 142 l 420 223 q 386 273 420 273 q 291 298 291 280 q 277 343 277 307 l 277 355 q 333 427 277 427 l 383 427 q 453 425 412 427 q 526 435 516 433 q 593 363 593 435 q 590 245 590 267 q 584 229 584 237 l 584 187 q 559 31 578 31 q 481 0 541 0 l 470 0 q 126 14 271 5 q 54 64 54 37 q 43 103 45 64 l 43 134 q 28 413 35 210 l 28 469 q 20 578 20 557 l 20 703 q 51 793 20 744 q 160 840 90 840 z "},"h":{"ha":578,"x_min":20,"x_max":547,"o":"m 433 838 l 467 838 q 547 763 547 838 l 547 738 q 542 671 542 675 l 542 258 q 545 153 542 219 q 542 105 542 146 q 545 69 545 71 q 492 3 545 16 q 442 0 458 0 q 397 47 408 0 q 389 142 397 75 l 389 250 q 370 297 389 297 q 256 294 298 294 l 195 294 q 173 250 173 286 l 173 163 q 148 20 165 20 q 106 5 130 5 q 20 66 20 5 l 34 272 l 34 324 q 40 391 40 387 l 40 580 l 43 596 q 40 610 40 601 l 40 613 q 45 702 45 694 q 43 757 45 726 q 109 821 43 821 l 132 821 q 193 779 193 818 q 195 771 195 779 l 195 730 q 184 555 195 698 l 184 483 q 214 435 184 435 l 359 435 q 389 477 389 435 q 387 802 389 544 q 433 838 405 838 z "},"i":{"ha":226,"x_min":20,"x_max":193,"o":"m 112 838 q 190 799 180 838 q 193 774 193 783 l 193 760 q 187 693 193 755 l 187 359 q 176 134 181 134 q 179 123 179 129 l 176 117 q 179 106 179 112 l 179 100 q 176 98 179 98 l 179 92 l 179 64 q 121 0 179 0 q 26 39 26 2 q 20 50 22 39 q 28 220 20 78 l 28 387 q 35 454 28 391 l 35 537 q 37 634 35 596 q 35 724 35 659 l 35 740 q 31 785 35 756 q 81 835 40 835 q 112 838 97 838 z "},"j":{"ha":471,"x_min":14,"x_max":439,"o":"m 132 846 q 420 818 420 846 q 439 753 437 818 l 439 209 q 378 45 439 115 q 177 0 342 0 q 28 31 28 0 q 14 87 18 31 q 70 163 14 163 q 180 155 140 155 q 271 200 271 160 q 288 288 278 209 q 284 319 284 307 l 284 350 q 281 431 284 408 q 290 666 281 452 q 228 703 290 703 q 208 700 217 700 l 208 703 l 203 700 q 53 734 53 700 q 42 793 46 736 q 96 844 42 836 q 132 846 109 846 z "},"k":{"ha":588,"x_min":20,"x_max":577,"o":"m 465 844 q 553 794 553 844 q 500 711 553 763 q 326 463 345 510 l 326 460 q 395 345 326 431 q 566 68 541 102 q 577 60 577 64 l 577 57 q 533 -3 577 22 q 494 -9 512 -9 l 478 -9 q 401 35 418 -9 q 271 270 401 65 q 227 336 237 330 l 222 336 q 175 259 175 308 l 178 254 l 178 73 q 153 4 178 15 q 98 -7 140 -7 l 92 -7 q 20 35 36 -7 l 20 106 q 26 187 26 173 l 26 320 l 37 513 l 37 684 q 31 786 37 738 q 92 836 31 829 l 134 836 q 189 761 189 836 l 189 750 q 180 546 180 659 q 189 535 184 535 q 249 598 208 535 q 409 816 336 701 q 465 844 435 844 z "},"l":{"ha":495,"x_min":18,"x_max":490,"o":"m 90 825 l 155 829 q 195 788 186 830 l 197 745 q 193 661 198 734 q 199 610 194 650 q 186 281 188 391 l 188 249 q 189 180 190 220 q 285 159 191 155 q 377 167 372 167 l 431 170 q 485 130 484 162 l 487 74 q 410 4 490 8 l 385 3 q 214 2 288 1 q 160 -3 193 -2 q 20 35 56 -9 l 20 41 q 24 222 26 70 q 26 248 27 222 l 26 254 q 28 256 26 256 l 25 262 l 24 288 q 28 311 23 300 q 25 322 25 316 l 24 325 q 27 328 24 328 q 20 351 21 338 l 18 385 q 33 770 35 717 l 32 777 q 90 825 30 812 z "},"m":{"ha":752,"x_min":20,"x_max":728,"o":"m 77 854 l 137 854 q 210 768 192 854 l 229 732 q 351 453 295 557 l 362 448 q 465 629 378 448 q 560 808 549 794 q 628 838 591 838 l 669 838 q 728 787 728 838 l 728 627 q 718 434 718 468 l 718 388 q 712 323 712 327 l 719 57 q 670 3 719 20 q 640 0 652 0 l 637 0 q 562 43 577 0 q 564 179 564 138 l 557 429 l 555 448 l 544 448 q 454 298 525 431 q 395 247 431 247 q 313 250 347 250 q 243 336 260 250 q 189 437 199 437 q 178 399 181 437 l 183 260 q 180 220 180 227 q 183 79 183 153 q 180 76 183 76 l 183 71 l 183 65 q 118 0 183 0 l 99 0 q 28 49 28 4 l 28 52 q 31 141 28 91 l 28 184 l 34 241 q 31 260 31 252 l 34 260 q 28 307 28 275 q 26 564 28 383 q 20 605 20 590 l 20 632 q 26 697 26 693 l 26 705 q 20 770 20 766 l 20 779 q 77 854 20 854 z "},"n":{"ha":564,"x_min":20,"x_max":525,"o":"m 452 852 q 525 789 525 842 l 525 705 q 511 464 514 584 q 514 442 514 449 q 509 361 509 410 l 509 279 q 506 125 509 227 l 503 125 q 506 122 503 122 q 476 27 506 37 q 427 19 463 19 l 425 19 q 346 87 346 19 q 294 176 334 115 q 197 382 243 298 l 186 382 q 178 350 178 354 q 180 320 180 332 l 180 290 q 172 217 180 277 l 172 57 q 88 0 172 0 l 75 0 q 20 38 28 0 q 28 152 24 152 q 26 155 28 155 q 31 182 28 177 q 28 342 28 288 l 28 450 q 31 743 28 556 q 26 776 26 769 q 72 827 33 827 l 72 825 l 77 827 l 115 827 q 191 760 174 827 q 289 524 258 616 q 346 415 336 416 l 351 415 q 362 572 359 415 q 359 616 359 588 l 362 616 l 359 621 l 359 632 q 362 635 359 635 l 357 654 q 368 817 364 691 q 452 852 382 852 z "},"o":{"ha":561,"x_min":20,"x_max":527,"o":"m 149 834 l 239 834 q 443 798 443 817 q 516 711 488 774 q 527 568 516 697 q 522 395 522 429 l 522 255 q 513 171 522 197 l 513 134 q 415 12 513 45 q 275 0 376 6 l 272 0 q 77 34 163 0 q 28 120 31 79 q 32 123 32 120 l 26 126 q 20 308 23 277 l 32 593 l 32 635 q 71 795 32 746 q 149 834 114 834 m 160 442 l 160 387 q 157 286 160 329 q 160 199 160 267 q 231 149 160 154 q 269 143 245 149 q 378 193 378 153 q 381 233 381 217 l 381 269 l 378 288 l 381 288 q 373 367 373 331 q 376 448 373 387 q 373 465 376 450 q 376 498 376 484 l 373 543 q 378 608 378 573 l 378 624 q 283 697 378 688 l 219 697 q 174 630 174 697 q 160 442 174 605 z "},"p":{"ha":507,"x_min":14,"x_max":493,"o":"m 214 838 l 282 838 q 433 811 433 829 q 482 740 464 799 q 493 653 493 671 l 493 608 q 467 379 493 475 q 208 298 421 298 l 206 298 q 174 258 174 298 q 169 190 174 237 q 172 174 169 178 q 169 137 169 151 l 169 71 q 77 0 169 0 l 71 0 q 14 47 14 7 q 35 376 35 315 l 35 682 q 40 724 40 721 l 40 780 q 109 829 40 829 q 214 838 179 838 m 174 595 l 180 551 q 177 469 177 511 l 177 461 q 206 445 184 445 l 229 445 q 327 482 307 445 q 338 558 338 538 q 332 627 332 620 q 335 682 335 661 q 290 709 321 709 l 272 711 q 182 682 182 706 l 174 595 z "},"q":{"ha":582,"x_min":14,"x_max":553,"o":"m 353 840 q 521 799 488 840 q 551 701 536 799 l 551 688 q 545 614 545 622 l 545 544 q 553 473 545 516 q 545 118 545 267 q 518 20 545 68 q 488 -18 488 -3 q 518 -113 488 -26 l 518 -134 q 505 -156 518 -149 l 366 -156 l 366 -145 q 307 -12 330 -12 q 263 1 300 -6 q 260 -1 260 1 l 247 1 l 155 1 q 24 83 56 1 q 14 180 14 124 l 14 218 q 30 433 24 382 l 30 468 q 33 492 30 477 l 30 498 q 38 582 38 543 q 35 674 38 618 q 84 807 35 780 q 309 837 134 837 q 353 840 309 840 m 174 500 q 176 498 174 498 q 163 262 168 401 l 163 216 q 222 151 163 151 l 233 151 q 244 167 238 151 l 241 172 l 241 197 q 315 245 241 245 l 345 245 q 401 235 394 235 q 412 273 412 247 l 412 308 q 399 547 404 398 l 399 647 q 339 696 399 696 q 195 671 195 696 q 176 500 189 671 l 174 500 z "},"r":{"ha":557,"x_min":27,"x_max":543,"o":"m 217 833 q 448 798 428 825 q 491 738 491 760 q 526 526 526 610 q 442 396 526 431 q 347 358 347 379 q 458 179 351 335 q 534 68 486 136 q 543 46 543 54 l 543 35 q 488 0 543 3 l 467 0 q 353 90 392 0 q 285 195 285 186 q 201 323 260 219 q 184 328 192 328 q 176 309 176 318 l 176 271 q 184 130 176 193 l 184 98 l 187 84 l 184 84 q 190 46 188 81 q 133 -5 190 -5 l 109 -5 q 38 60 38 -5 q 35 114 35 90 l 38 114 l 35 119 l 35 233 q 38 236 35 236 l 35 241 q 41 331 41 292 q 30 659 30 464 l 30 746 q 27 776 30 758 q 117 827 27 827 q 217 833 178 827 m 176 646 l 176 608 q 171 526 176 568 q 198 491 171 498 l 217 494 l 269 494 q 358 524 347 494 q 361 532 358 526 q 320 692 361 673 q 282 708 304 700 q 179 675 179 701 q 176 646 176 657 z "},"s":{"ha":513,"x_min":20,"x_max":481,"o":"m 126 831 l 156 831 q 208 826 161 831 l 281 826 q 468 804 468 826 q 481 764 481 793 l 481 736 q 435 682 471 682 q 419 680 435 680 q 349 688 363 688 l 278 688 q 199 693 262 688 q 164 636 164 693 q 197 522 164 522 l 213 519 l 251 519 q 430 460 378 519 q 473 359 473 420 q 481 248 481 317 l 481 178 q 435 34 481 61 q 308 -4 435 21 q 94 -7 138 -7 q 20 47 20 -7 l 20 80 q 77 137 31 137 l 91 137 q 278 123 202 132 q 338 194 338 123 l 338 316 q 281 376 338 376 l 161 376 q 34 490 74 376 l 28 574 q 31 658 31 614 l 31 696 q 126 831 31 831 z "},"t":{"ha":665,"x_min":14,"x_max":639,"o":"m 507 829 l 577 829 q 639 781 639 823 l 639 728 q 535 681 618 681 q 418 648 418 681 q 415 619 415 633 q 421 533 415 574 q 418 441 418 481 l 418 343 q 415 307 418 326 q 418 276 418 297 l 418 257 q 415 201 418 220 q 418 145 418 181 l 418 115 q 415 112 418 112 l 418 106 l 418 64 q 365 0 418 0 q 264 33 278 0 q 259 58 259 52 l 259 73 q 264 193 264 183 l 264 486 q 259 561 264 507 q 264 631 264 615 q 214 675 264 675 l 201 675 q 109 667 167 675 q 14 734 14 667 q 61 823 22 823 q 64 826 64 823 q 161 823 130 823 l 374 823 q 507 829 496 829 z "},"u":{"ha":572,"x_min":14,"x_max":544,"o":"m 92 840 q 169 779 169 840 q 166 745 169 759 q 169 550 169 627 l 169 431 q 174 333 169 424 l 174 222 q 239 141 174 149 q 293 138 277 138 q 389 186 389 138 q 400 265 395 186 l 389 538 l 389 587 q 377 781 380 630 q 431 829 377 821 l 484 829 q 538 755 532 829 l 538 719 q 541 516 538 594 q 538 383 538 448 q 544 226 544 240 q 442 22 544 66 q 290 0 377 0 l 203 0 q 59 76 125 0 q 31 186 31 150 l 31 203 q 33 248 31 219 q 19 395 19 294 q 25 471 19 405 q 14 589 22 536 l 14 789 q 67 840 14 833 l 92 840 z "},"v":{"ha":549,"x_min":0,"x_max":560,"o":"m 100 831 q 168 740 168 821 q 212 481 180 590 q 230 366 223 446 q 254 319 243 322 l 256 319 q 298 442 270 319 q 383 799 339 589 q 436 829 383 817 l 451 829 q 549 802 549 829 q 560 784 560 796 q 466 464 549 724 q 366 153 383 205 q 345 53 361 146 q 251 0 328 0 l 206 0 q 130 41 145 0 q 44 486 74 273 q 0 758 26 530 l 0 764 q 79 829 0 823 q 100 831 83 831 z "},"w":{"ha":907,"x_min":0,"x_max":890,"o":"m 800 840 q 884 808 884 836 q 890 793 890 808 l 890 779 q 793 236 852 539 q 767 111 767 199 q 741 20 752 20 q 697 0 724 0 l 636 0 q 554 58 576 0 q 508 274 522 150 q 461 437 470 431 l 461 441 l 450 441 q 391 251 433 441 q 376 204 386 251 q 345 76 356 164 q 307 20 337 45 q 248 12 281 12 l 204 12 q 128 52 143 12 q 44 493 73 282 q 0 762 26 536 l 0 767 q 79 831 0 825 q 99 834 83 834 q 166 744 166 824 q 210 487 178 595 q 228 374 220 453 q 251 327 241 330 l 254 327 q 295 450 267 327 q 379 802 336 594 q 432 831 379 821 l 446 831 q 543 805 543 831 q 575 636 559 805 q 627 403 587 551 q 648 332 637 332 l 650 332 q 692 513 665 332 q 738 802 703 555 q 800 840 754 840 z "},"x":{"ha":588,"x_min":7,"x_max":573,"o":"m 123 829 l 145 829 q 236 675 193 740 q 279 595 270 597 l 291 595 q 346 694 301 600 q 397 795 372 732 q 452 826 423 826 q 543 777 543 826 q 472 637 543 749 q 452 598 472 632 q 378 448 396 492 q 370 422 370 437 l 370 412 q 412 315 405 323 q 496 165 440 283 l 573 52 l 573 39 q 532 0 573 4 l 486 0 q 414 44 433 0 q 321 214 409 74 q 286 247 300 247 q 233 168 272 243 q 146 17 227 162 q 73 -5 124 -5 q 7 39 7 -5 l 7 44 q 79 184 7 64 q 178 365 127 281 q 200 412 191 382 l 200 433 q 66 689 164 527 q 19 777 19 758 q 104 823 19 817 l 115 823 l 123 829 z "},"y":{"ha":498,"x_min":-31,"x_max":491,"o":"m 406 823 l 434 821 q 487 752 491 817 q 487 709 488 716 q 436 399 453 399 q 387 349 435 378 q 289 323 336 329 q 270 296 279 317 l 273 291 l 271 256 l 269 60 q 203 -1 265 -5 l 189 0 q 117 42 115 5 q 115 54 115 42 q 121 101 117 72 q 119 153 122 111 q 125 203 123 179 l 126 218 q 111 340 134 339 q 28 389 77 343 q -20 562 -26 471 l -31 785 l -31 787 q 32 840 -28 835 q 112 762 117 835 q 148 477 107 480 l 199 475 q 306 496 304 468 q 332 642 315 520 l 339 750 q 380 821 343 814 q 406 823 396 823 z "},"z":{"ha":561,"x_min":14,"x_max":552,"o":"m 474 838 q 529 777 529 838 l 529 768 q 488 650 529 690 l 422 541 q 373 437 396 498 q 270 253 323 358 q 218 155 218 173 q 241 144 220 144 l 247 144 q 342 141 288 144 q 471 158 378 153 l 506 158 q 552 86 552 158 l 552 52 q 477 3 552 7 q 474 0 477 0 q 393 5 441 5 l 347 5 q 275 3 300 5 q 201 5 248 5 l 178 5 q 74 3 138 5 q 22 72 22 17 q 19 104 19 98 q 83 224 19 142 q 210 435 102 261 q 319 645 283 582 l 321 662 l 321 665 q 304 676 321 671 q 62 665 113 665 q 14 754 22 665 q 103 826 14 826 l 126 826 q 189 823 164 826 q 368 829 250 829 l 396 829 q 474 838 462 838 z "},"{":{"ha":688,"x_min":0,"x_max":0,"o":""},"|":{"ha":688,"x_min":0,"x_max":0,"o":""},"}":{"ha":688,"x_min":0,"x_max":0,"o":""},"~":{"ha":480,"x_min":30,"x_max":448,"o":"m 355 538 l 415 538 q 448 514 429 538 l 448 500 q 336 395 448 454 l 320 392 q 233 416 311 392 q 217 419 229 419 q 133 368 200 419 q 109 365 118 365 l 98 365 q 30 408 30 365 l 30 411 q 106 490 30 442 q 190 533 148 528 l 220 533 l 290 517 l 296 517 q 355 538 303 517 z "},"":{"ha":241,"x_min":36,"x_max":208,"o":"m 137 0 q 39 62 41 -2 q 36 72 36 68 l 52 319 l 52 332 q 79 654 56 653 l 176 656 l 176 637 q 190 589 189 619 l 191 573 q 198 404 192 503 q 191 294 189 366 q 206 63 194 170 q 137 0 208 2 m 191 682 l 62 680 q 49 721 52 679 l 47 756 q 51 760 47 759 l 47 766 q 104 831 56 830 l 119 831 q 202 747 200 833 l 203 711 q 191 682 203 687 z "},"":{"ha":772,"x_min":0,"x_max":0,"o":""},"":{"ha":688,"x_min":0,"x_max":0,"o":""},"":{"ha":688,"x_min":0,"x_max":0,"o":""},"":{"ha":856,"x_min":0,"x_max":0,"o":""},"":{"ha":688,"x_min":0,"x_max":0,"o":""},"":{"ha":688,"x_min":0,"x_max":0,"o":""},"":{"ha":694,"x_min":0,"x_max":0,"o":""},"":{"ha":1408,"x_min":58,"x_max":1344,"o":"m 702 1126 q 1152 934 952 1126 q 1274 759 1238 838 q 1344 461 1344 610 l 1344 437 q 1153 -33 1344 178 q 702 -228 954 -228 q 238 -21 440 -228 q 58 451 58 184 q 248 929 58 722 q 702 1126 446 1126 m 684 1095 q 687 1021 687 1042 q 688 1016 688 1017 l 682 1011 l 670 1011 q 663 1089 663 1011 q 661 1094 661 1089 q 639 1092 646 1092 l 634 1092 q 637 1046 636 1082 q 629 1037 635 1046 q 639 1023 639 1032 l 639 1008 q 660 987 639 987 l 663 987 q 713 1001 713 987 q 715 1010 713 1002 q 713 1034 713 1025 q 722 1043 715 1034 q 712 1052 718 1043 l 712 1055 q 711 1095 712 1067 l 684 1095 m 760 1092 q 755 1069 758 1088 q 783 1062 783 1067 q 769 1036 783 1042 q 777 1026 771 1036 q 769 983 770 985 q 795 979 779 983 q 814 1028 800 1028 l 806 1038 q 810 1061 808 1054 q 838 1056 834 1056 l 838 1058 q 841 1079 838 1063 q 760 1092 770 1092 m 516 1052 q 524 1019 516 1042 q 518 1011 522 1019 l 518 1008 q 536 977 530 1008 q 553 966 543 966 q 608 989 608 977 l 608 995 q 603 1019 608 1002 q 576 1011 579 1011 q 579 998 579 1004 q 559 994 572 994 q 555 1015 555 1003 q 559 1023 559 1016 q 545 1047 547 1023 q 563 1053 549 1050 q 567 1041 567 1048 l 594 1048 q 573 1079 589 1079 l 567 1079 q 516 1052 516 1071 m 876 1067 q 869 1047 869 1049 q 895 1036 895 1038 q 875 1011 888 1011 q 880 1000 880 1004 q 866 959 866 965 q 890 950 886 950 q 917 995 903 995 q 912 1007 912 1002 q 922 1026 918 1026 q 945 1017 941 1017 l 954 1038 q 876 1068 885 1067 l 876 1067 m 389 1006 q 410 964 408 972 l 407 953 q 430 929 422 953 q 440 913 431 929 q 500 955 500 940 q 485 987 500 963 q 488 1000 488 993 q 469 1019 474 1000 q 446 1034 461 1034 q 389 1006 440 1034 m 995 1016 q 968 977 972 977 q 959 975 960 975 q 962 965 959 972 q 938 926 938 928 q 1000 887 996 887 q 1010 907 1010 901 q 972 934 976 928 q 983 945 981 945 l 984 945 l 1010 929 q 1023 949 1013 930 q 996 968 996 963 q 1006 981 1002 979 q 1044 956 1008 979 q 1057 975 1047 957 q 995 1016 1054 977 m 443 1006 q 470 959 445 1006 l 470 958 q 452 947 460 947 q 425 998 431 984 q 443 1006 439 1006 m 291 918 q 313 884 291 910 l 311 874 l 322 874 q 353 848 345 848 q 399 886 369 848 l 401 893 q 380 925 401 900 l 380 926 l 382 935 l 372 935 q 337 962 347 962 q 292 925 323 962 l 291 918 m 1095 943 q 1062 910 1095 941 l 1055 911 l 1051 911 l 1051 899 l 1021 868 q 1040 850 1021 866 l 1062 871 l 1063 871 q 1055 833 1055 836 l 1076 814 l 1086 852 q 1098 848 1097 848 l 1101 848 q 1139 884 1114 848 l 1139 889 q 1095 943 1139 903 m 332 932 l 336 932 q 372 892 347 922 l 372 889 q 359 878 372 887 l 357 878 q 321 919 346 887 l 321 922 q 332 932 321 923 m 413 672 l 414 662 l 414 584 q 374 515 374 569 q 394 412 374 458 q 425 354 397 411 q 448 321 448 326 l 448 318 l 446 307 q 452 269 448 290 q 449 245 449 260 q 450 233 450 234 l 449 230 q 461 178 454 178 q 476 144 476 165 q 503 113 481 130 q 528 92 513 92 q 552 55 552 58 q 591 5 572 5 q 603 -23 599 5 q 640 -47 614 -39 q 690 -71 652 -61 q 700 -72 699 -71 q 777 -66 723 -68 q 808 -50 793 -60 q 856 -26 831 -50 q 908 30 902 -26 q 935 106 920 45 q 960 174 960 134 q 969 204 969 188 l 969 215 q 983 264 983 249 q 978 282 981 277 q 979 306 979 297 l 979 312 q 978 319 979 317 q 979 330 979 326 q 962 394 979 357 q 964 410 963 410 l 963 414 l 963 429 q 956 465 963 442 q 968 490 968 474 l 966 500 q 974 541 974 519 l 974 549 q 979 575 979 566 l 966 621 l 968 645 q 944 729 968 664 q 881 817 922 779 q 808 878 850 864 q 648 910 713 910 l 636 910 q 549 892 602 910 q 480 848 519 881 q 424 753 447 806 q 413 672 418 730 m 1098 907 q 1111 890 1111 897 l 1095 876 l 1092 876 q 1080 887 1090 876 l 1080 889 q 1098 907 1080 891 m 621 895 q 795 867 720 895 q 863 819 854 835 q 903 751 881 804 q 944 648 925 727 l 944 647 q 942 618 944 642 q 951 581 948 601 q 956 576 954 581 l 956 574 q 948 562 956 563 l 951 547 q 938 496 951 522 q 944 491 944 495 l 944 487 q 939 482 944 485 l 930 482 q 926 469 930 477 q 941 424 932 469 l 941 418 q 938 385 938 395 q 954 343 947 374 q 956 332 954 342 l 954 321 q 957 303 957 306 q 951 282 957 300 q 959 262 959 269 q 945 219 959 255 q 937 173 945 194 q 922 127 937 149 q 901 71 911 119 q 882 30 901 68 l 882 28 q 884 22 882 27 q 857 -2 876 -2 q 818 -24 844 -2 q 777 -41 798 -24 l 702 -48 l 700 -48 q 655 -31 686 -48 q 629 -17 655 -24 q 623 4 623 -10 q 624 19 623 6 q 585 43 585 28 q 574 65 574 56 q 578 75 574 68 q 543 115 565 75 q 519 130 526 115 q 503 146 519 134 l 491 182 q 475 221 475 189 q 473 233 473 227 l 473 234 q 475 236 473 236 l 473 239 q 475 275 475 272 q 470 312 470 304 l 471 319 l 467 342 q 409 439 452 347 q 398 512 398 482 l 398 518 q 430 564 398 555 l 440 564 l 440 566 q 437 611 440 587 q 439 637 439 625 q 437 672 439 652 q 501 840 437 777 q 579 889 535 875 q 621 895 583 889 m 452 688 q 454 684 452 687 q 450 668 450 676 q 452 635 450 657 q 450 610 450 614 q 454 562 454 572 q 490 532 490 548 l 491 532 q 498 542 491 538 l 501 542 l 511 534 q 537 538 531 538 l 542 532 l 542 529 q 522 409 522 446 q 534 373 530 393 q 552 351 552 364 q 572 327 572 348 l 589 328 l 610 327 q 625 333 621 333 q 630 328 627 333 q 627 315 627 317 q 630 302 630 305 q 629 297 629 298 q 646 275 646 286 l 646 269 q 666 246 660 269 q 661 222 661 228 q 663 210 663 214 l 664 210 q 706 281 678 243 q 736 337 724 309 l 741 337 q 745 332 745 337 q 722 285 743 315 l 724 285 q 760 302 759 293 q 766 303 763 302 q 787 302 779 302 q 805 307 789 302 l 805 309 l 800 309 q 781 306 794 309 q 751 330 751 313 l 751 334 q 755 343 752 343 l 760 343 q 764 327 763 343 q 778 319 772 319 q 802 322 797 322 q 850 306 835 306 q 875 336 875 306 q 857 409 875 378 q 848 475 848 448 l 848 478 q 881 529 848 497 q 926 574 892 529 q 938 579 928 574 q 929 618 935 602 q 930 642 930 633 l 930 645 q 905 726 919 701 l 880 771 q 854 806 869 780 q 778 857 817 844 q 666 882 696 882 l 651 882 l 642 880 q 636 882 640 882 q 537 848 550 869 q 485 795 511 827 q 452 688 452 756 m 208 819 q 237 790 208 812 q 238 780 238 784 l 252 781 q 285 764 270 764 q 322 808 308 779 l 322 814 q 295 842 322 824 l 295 853 l 292 853 l 281 852 q 249 871 260 871 q 208 825 233 871 l 208 819 m 597 854 q 616 837 616 848 l 616 832 q 582 810 614 826 l 576 810 q 561 827 561 816 l 561 829 q 597 854 561 846 m 573 825 l 576 823 l 581 823 l 603 837 q 594 841 602 841 q 573 825 573 836 m 248 841 l 252 841 q 294 806 291 813 q 283 793 288 795 l 280 793 q 237 827 237 823 q 248 841 243 839 m 530 806 l 534 806 q 548 793 548 805 l 548 787 q 528 758 548 781 q 491 702 519 702 q 479 722 479 707 l 479 735 q 521 804 479 772 q 530 806 526 806 m 1095 791 l 1095 790 q 1105 774 1095 781 l 1111 774 q 1120 781 1120 779 l 1120 784 q 1107 801 1116 801 q 1095 791 1095 795 m 491 733 l 491 722 l 492 714 l 495 714 q 518 765 507 714 q 537 789 532 781 l 537 791 q 533 796 537 794 q 497 759 513 788 q 491 733 491 745 m 1180 768 q 1169 769 1175 769 q 1126 739 1169 757 q 1160 672 1154 689 q 1181 684 1177 680 l 1160 726 l 1175 733 q 1190 705 1190 709 q 1211 714 1194 705 q 1198 743 1211 720 l 1198 744 q 1213 751 1198 747 l 1214 751 q 1235 711 1221 733 q 1255 720 1252 720 q 1220 787 1255 727 q 1180 768 1184 768 m 167 768 q 157 744 167 764 q 228 713 222 717 l 228 711 q 218 696 223 696 q 203 711 205 696 q 191 707 195 707 l 149 724 l 140 699 l 140 698 q 184 671 184 684 l 184 669 q 197 673 192 673 q 208 668 208 672 q 201 651 205 651 l 199 651 l 130 678 l 130 677 q 120 652 120 656 q 165 630 165 637 l 165 626 l 167 626 q 178 629 168 626 l 198 621 q 237 662 237 635 q 233 673 237 665 q 253 694 248 680 q 256 703 253 699 q 238 739 248 739 q 222 756 222 744 q 212 751 214 751 l 168 768 l 167 768 m 1240 675 q 1219 659 1240 668 l 1216 648 l 1216 647 q 1223 614 1216 637 q 1210 610 1217 610 q 1202 627 1205 610 q 1213 633 1213 631 q 1205 657 1205 655 q 1177 637 1177 652 l 1177 629 q 1206 579 1184 579 l 1214 581 q 1223 575 1214 578 q 1246 593 1223 583 l 1249 604 l 1249 605 q 1241 637 1249 615 q 1256 644 1250 644 q 1262 626 1262 635 q 1252 621 1261 621 l 1259 595 q 1289 617 1289 600 q 1261 672 1280 672 l 1257 672 q 1252 671 1254 672 q 1240 675 1246 675 m 788 672 q 841 659 801 672 l 844 659 q 873 668 848 659 q 878 663 876 668 l 878 659 q 838 645 878 652 q 800 657 831 645 l 787 659 l 764 654 l 763 654 q 760 657 760 654 l 760 662 q 788 672 760 669 m 660 663 l 664 663 q 712 648 673 663 q 730 642 730 646 l 730 637 q 721 633 728 633 q 670 650 710 633 q 664 651 664 650 q 630 635 650 651 l 625 635 q 621 640 623 635 l 621 644 q 660 663 641 663 m 664 625 l 669 625 q 707 615 707 621 q 702 608 705 608 l 692 608 q 666 612 687 608 q 621 583 642 612 l 619 583 q 614 587 614 585 l 614 589 q 664 625 627 625 m 827 608 l 831 608 q 884 605 836 608 l 884 604 l 899 606 q 905 602 905 604 l 905 597 q 890 590 905 593 q 836 595 848 595 l 835 595 q 812 593 827 595 l 810 596 l 810 600 q 827 608 810 606 m 654 590 l 660 590 q 748 569 686 590 q 784 536 784 547 l 784 530 q 770 522 779 522 l 768 522 q 713 542 760 522 q 684 544 701 542 q 680 539 684 541 l 664 539 q 602 524 654 539 l 599 524 l 594 530 q 630 579 595 541 q 654 590 643 590 m 419 545 l 419 544 q 488 467 469 544 l 490 467 l 490 472 q 488 478 490 475 q 490 509 490 479 q 475 538 482 509 q 440 551 457 551 l 434 551 q 419 545 431 551 m 935 549 q 880 512 930 539 l 872 500 l 873 500 q 895 505 884 505 l 899 505 q 924 498 908 505 q 938 548 938 519 l 935 549 m 412 529 l 412 508 q 443 400 412 446 q 473 355 454 370 q 479 370 479 366 l 479 378 l 471 420 q 480 463 477 455 q 467 496 475 463 q 425 532 444 532 q 412 529 423 532 m 137 530 l 137 502 l 132 496 l 137 490 l 137 463 l 152 463 l 152 491 l 155 491 l 167 465 q 180 490 170 465 l 183 490 l 183 463 l 198 463 l 198 490 l 203 496 l 198 502 l 198 530 l 184 530 q 170 502 182 530 l 165 502 q 153 530 165 505 l 137 530 m 219 530 l 219 503 q 213 496 219 503 q 219 486 219 494 l 219 463 l 233 463 l 233 491 l 234 491 q 248 465 237 491 l 264 491 l 265 491 l 265 463 l 279 463 l 279 490 l 285 497 q 279 502 279 497 l 279 530 l 265 530 q 250 502 262 530 l 249 502 q 234 530 245 502 l 219 530 m 295 530 l 295 529 q 311 497 295 527 q 295 463 295 465 l 311 463 q 319 476 315 463 l 321 476 q 328 463 324 476 l 346 463 l 346 465 q 331 497 331 493 l 346 530 l 328 530 q 321 517 324 517 l 319 517 q 311 530 315 530 l 295 530 m 1000 530 l 1000 503 q 995 496 995 496 q 1000 486 1000 494 l 1000 463 l 1014 463 l 1014 491 l 1015 491 q 1029 465 1019 491 l 1045 491 l 1047 491 l 1047 463 l 1060 463 l 1060 490 l 1066 497 q 1060 502 1060 497 l 1060 530 l 1047 530 q 1032 502 1044 530 l 1030 502 q 1015 530 1027 502 l 1000 530 m 1081 530 l 1081 503 l 1076 496 q 1081 486 1081 494 l 1081 463 l 1095 463 l 1095 491 l 1096 491 q 1109 465 1100 491 l 1126 491 l 1128 491 l 1128 463 l 1141 463 l 1141 490 l 1147 497 q 1141 502 1141 497 l 1141 530 l 1128 530 q 1113 502 1124 530 l 1111 502 q 1096 530 1108 502 l 1081 530 m 1158 530 q 1174 496 1174 498 l 1158 463 l 1174 463 q 1181 476 1177 463 l 1183 476 q 1190 463 1186 476 l 1210 463 q 1194 497 1194 494 l 1210 530 l 1190 530 q 1183 517 1186 517 l 1181 517 q 1174 530 1177 530 l 1158 530 m 1221 530 q 1238 496 1238 498 l 1221 463 l 1238 463 q 1246 476 1242 463 l 1247 476 q 1255 463 1251 476 l 1274 463 q 1257 497 1257 494 l 1274 530 l 1255 530 q 1247 517 1251 517 l 1246 517 q 1238 530 1242 530 l 1221 530 m 692 527 q 737 512 734 522 l 737 508 q 733 503 737 506 q 694 514 709 514 l 692 514 q 652 497 652 507 q 648 493 649 493 l 644 493 q 639 502 639 494 q 692 527 639 517 m 440 511 q 449 503 446 509 l 443 454 q 454 427 446 427 l 460 430 q 465 426 465 428 l 465 421 q 458 414 465 419 l 452 414 q 430 454 435 414 q 434 493 434 481 l 434 498 l 433 507 q 440 511 437 511 m 699 508 q 754 481 730 508 l 754 476 q 697 451 734 451 q 645 482 645 460 l 645 486 q 699 508 667 508 m 763 502 l 768 502 q 784 478 784 489 q 775 463 782 463 q 769 467 769 465 l 769 481 l 758 493 l 758 497 q 763 502 758 499 m 702 494 q 705 486 705 490 l 705 478 q 702 465 705 474 l 703 465 q 736 481 736 468 q 702 494 718 494 m 896 493 q 899 484 899 487 q 893 467 897 475 l 895 467 q 918 487 918 467 q 896 493 907 493 m 660 482 l 660 479 l 661 479 l 661 482 l 660 482 m 861 478 l 861 472 q 865 469 862 469 l 865 471 l 863 478 l 861 478 m 458 472 q 467 469 462 472 q 464 452 464 458 l 465 439 l 460 436 q 449 454 452 436 q 458 472 452 472 m 758 466 l 763 466 q 768 461 765 466 l 768 460 q 741 418 768 448 l 739 418 q 732 426 735 418 l 754 457 q 758 466 755 466 m 880 454 l 869 454 l 861 456 q 886 372 863 426 q 887 340 887 352 l 887 334 q 881 312 887 321 q 909 292 888 312 l 911 292 q 918 343 911 295 l 927 429 q 923 442 926 442 q 897 400 923 418 l 895 400 q 890 405 892 400 l 890 408 q 912 454 912 429 l 912 458 q 880 454 894 454 m 805 437 l 810 437 q 815 426 814 437 l 814 418 l 818 397 l 818 394 q 809 390 817 390 q 800 430 802 390 l 800 433 q 805 437 800 435 m 633 436 l 639 436 q 684 414 659 414 l 691 414 q 724 421 699 414 l 726 418 l 726 412 q 690 400 716 400 q 630 431 630 408 l 630 433 q 633 436 631 436 m 1225 426 q 1223 400 1223 408 q 1242 387 1227 400 q 1220 375 1242 385 l 1217 351 q 1267 373 1263 373 l 1272 373 l 1280 366 q 1286 372 1282 366 l 1297 370 l 1302 370 l 1302 379 l 1304 390 q 1283 399 1289 390 q 1276 393 1276 395 q 1238 416 1265 393 l 1225 426 m 153 415 q 134 403 153 409 l 131 393 q 132 369 132 371 q 123 366 127 366 l 122 366 q 117 380 118 366 q 126 384 121 384 q 123 405 125 405 q 99 390 99 405 q 116 345 99 345 q 127 339 120 345 q 147 349 127 345 l 152 363 q 149 384 152 366 q 161 388 155 388 q 165 373 163 385 q 156 369 156 370 q 157 349 156 368 l 159 349 q 183 364 183 349 q 165 409 183 409 q 155 415 161 409 l 153 415 m 768 403 l 772 403 q 777 399 774 403 q 758 360 766 360 l 755 360 q 751 366 753 360 q 768 403 764 401 m 787 369 q 806 357 806 363 l 806 353 q 803 349 806 349 l 800 349 q 781 360 781 355 l 781 364 q 787 369 781 368 m 1204 288 q 1241 275 1241 280 l 1241 272 l 1249 276 q 1283 272 1273 272 l 1287 290 q 1265 294 1269 294 l 1265 296 q 1292 307 1267 298 l 1297 328 q 1267 321 1272 321 q 1234 342 1267 337 l 1226 342 q 1204 288 1211 342 m 152 326 q 146 330 152 328 q 111 313 146 320 q 110 312 110 313 q 116 294 113 294 q 141 298 134 298 q 156 266 146 266 l 157 266 q 199 285 199 269 l 199 288 l 189 333 q 152 326 159 326 m 1231 319 q 1249 312 1249 319 q 1244 300 1248 300 q 1226 307 1226 302 q 1231 319 1227 319 m 176 307 q 180 292 180 299 q 161 288 175 288 q 156 303 156 297 q 176 307 169 307 m 1181 224 q 1210 203 1181 211 q 1214 194 1213 194 q 1223 199 1221 199 q 1246 191 1229 195 q 1270 233 1261 191 l 1270 236 q 1242 255 1270 247 q 1238 262 1242 262 l 1234 260 l 1231 260 l 1205 267 q 1181 224 1192 267 m 174 254 q 165 256 170 254 q 152 243 165 250 q 131 233 131 239 q 138 216 137 216 q 167 227 162 227 q 174 209 170 227 q 146 199 147 199 l 146 197 q 153 179 150 179 q 186 189 181 189 q 193 188 188 188 q 228 208 193 197 l 228 210 q 207 266 212 250 q 174 254 178 254 m 1208 243 q 1249 230 1215 243 l 1249 229 q 1242 214 1246 214 q 1202 230 1202 228 q 1208 243 1205 243 m 197 239 q 204 221 200 235 q 192 216 195 216 q 184 234 186 224 q 197 239 193 239 m 805 215 l 802 216 q 773 210 793 212 q 753 201 767 201 q 743 204 750 201 q 732 200 735 200 q 734 197 732 197 l 760 197 q 854 222 854 207 q 831 224 839 224 l 830 224 q 805 215 810 215 m 1173 206 l 1144 149 q 1160 143 1154 143 q 1168 159 1168 157 l 1169 159 q 1187 143 1187 157 q 1196 146 1192 146 q 1226 131 1200 146 l 1227 131 q 1235 151 1235 148 q 1204 174 1204 163 q 1195 172 1198 172 q 1180 180 1180 178 q 1187 200 1187 193 q 1173 206 1177 206 m 204 176 q 195 179 201 176 q 163 153 195 167 q 174 136 170 140 q 210 153 205 153 q 188 113 203 138 q 197 94 188 109 l 227 111 q 235 109 228 109 q 262 130 235 119 q 267 136 267 133 q 259 151 259 149 l 223 134 l 223 136 l 244 173 q 234 193 244 180 l 204 176 m 836 178 q 842 153 838 153 l 845 153 q 850 163 850 155 l 850 168 q 844 179 850 176 l 839 179 l 836 178 m 812 172 q 808 155 809 168 q 815 144 810 144 q 820 146 818 146 l 820 164 q 821 165 820 165 q 812 172 820 172 m 779 164 l 781 149 l 781 140 q 785 136 781 138 l 788 136 q 791 138 791 136 l 791 158 l 790 165 l 783 165 l 779 164 m 1138 140 l 1103 91 q 1132 68 1103 90 l 1132 61 l 1141 62 q 1169 43 1151 56 l 1171 43 q 1181 60 1171 45 l 1156 79 q 1168 94 1164 94 q 1192 77 1175 90 l 1195 77 q 1205 94 1195 79 q 1177 115 1177 112 l 1177 122 l 1175 122 l 1165 121 q 1138 140 1162 125 m 833 106 q 836 103 833 103 l 844 103 q 846 127 846 119 q 845 131 845 130 l 839 131 q 833 106 833 131 m 250 98 l 241 100 q 223 80 241 87 q 213 71 223 79 q 225 55 223 55 l 253 75 l 262 73 l 262 80 l 291 103 q 280 119 280 117 q 250 98 279 119 m 794 106 l 794 92 q 798 90 795 90 l 802 90 q 806 109 806 90 l 806 118 l 799 118 q 794 106 794 117 m 1141 112 l 1143 112 q 1152 104 1152 106 q 1139 90 1143 91 q 1131 97 1131 95 l 1131 98 q 1141 112 1139 111 m 289 75 l 283 75 l 280 76 q 273 56 280 64 l 273 50 q 289 25 273 43 l 289 24 q 281 16 289 22 l 280 16 q 271 26 277 16 l 271 28 l 276 34 q 262 49 263 49 q 249 35 250 40 l 249 30 q 279 -6 249 17 l 288 -6 q 298 -2 293 -2 l 300 -2 l 302 -3 q 311 16 302 6 l 311 22 q 295 47 311 29 l 295 49 q 302 56 295 51 l 304 56 q 313 43 313 51 q 309 39 311 43 q 322 24 309 38 q 336 41 336 33 l 336 43 q 306 79 336 56 l 300 79 q 289 75 294 79 m 817 76 l 817 64 l 818 56 l 823 56 q 829 67 829 59 l 829 70 q 824 79 829 77 l 820 79 q 817 76 817 79 m 1056 37 l 1056 34 q 1081 12 1059 34 l 1081 4 l 1088 4 q 1114 -18 1090 4 l 1117 -18 q 1129 -3 1117 -16 q 1111 12 1114 12 l 1111 14 l 1141 9 l 1156 25 q 1126 34 1133 31 q 1129 45 1129 40 q 1098 73 1109 73 l 1095 73 q 1056 37 1086 73 m 787 25 l 790 24 l 794 24 q 803 46 798 26 q 802 50 802 49 l 794 50 q 787 25 790 50 m 1095 50 q 1107 40 1101 48 l 1107 35 q 1098 26 1107 33 q 1083 40 1083 38 q 1095 50 1090 50 m 814 20 l 814 14 q 818 10 814 12 l 821 10 q 827 30 825 10 l 823 33 l 820 33 q 814 20 816 33 m 322 3 l 323 -1 l 323 -8 l 302 -33 q 319 -47 315 -46 q 340 -23 333 -28 q 353 -35 353 -33 l 353 -36 q 334 -60 341 -50 l 334 -62 q 351 -74 336 -62 q 373 -47 351 -71 l 380 -47 l 380 -38 q 401 -9 401 -12 l 387 3 l 385 3 q 366 -21 385 -1 q 352 -9 352 -11 l 352 -8 q 370 14 352 -7 l 370 16 q 357 28 370 17 l 355 28 q 328 3 334 3 l 322 3 m 1004 -14 l 1004 -17 q 1019 -41 1004 -22 l 1019 -47 l 1017 -50 q 1035 -58 1029 -50 q 1045 -69 1035 -63 l 1051 -69 q 1087 -41 1064 -69 q 1088 -36 1088 -38 q 1074 -12 1088 -30 l 1074 -6 l 1076 -3 q 1053 13 1062 -3 q 1040 19 1046 19 q 1004 -14 1004 -1 m 1040 -3 q 1065 -39 1065 -34 q 1056 -47 1057 -47 l 1053 -47 q 1026 -16 1051 -46 l 1026 -12 q 1040 -3 1034 -3 m 939 -48 l 939 -51 l 956 -78 l 954 -89 q 977 -114 966 -89 q 979 -119 979 -114 q 1026 -84 1026 -98 l 1026 -81 q 1008 -51 1026 -74 q 985 -24 998 -24 q 939 -48 979 -24 m 981 -47 q 985 -56 985 -48 q 972 -64 979 -64 l 966 -54 q 981 -47 976 -47 m 464 -51 q 440 -84 452 -84 q 443 -93 443 -89 q 430 -124 443 -96 l 431 -124 q 449 -132 445 -132 l 461 -105 l 463 -105 q 486 -115 467 -105 q 494 -99 486 -113 q 470 -87 484 -96 q 477 -75 475 -75 q 511 -90 506 -90 l 512 -90 q 518 -75 512 -85 q 464 -50 465 -50 l 464 -51 m 866 -83 q 880 -115 880 -111 q 876 -123 880 -118 q 897 -157 887 -123 q 917 -149 917 -152 q 906 -119 906 -125 q 923 -113 922 -113 q 938 -141 936 -141 l 956 -134 l 942 -104 l 945 -93 q 924 -58 935 -93 q 866 -83 921 -58 m 995 -74 l 998 -74 q 1004 -81 1000 -74 l 1004 -83 q 990 -93 1002 -87 l 984 -84 l 984 -81 q 995 -74 984 -79 m 507 -117 q 511 -126 511 -122 q 506 -145 506 -142 l 506 -149 q 545 -170 506 -163 l 551 -170 q 568 -142 563 -170 q 576 -138 576 -139 q 573 -129 573 -133 q 579 -105 579 -107 q 533 -83 579 -90 q 515 -113 523 -83 q 507 -117 507 -115 m 911 -84 l 912 -84 q 916 -96 916 -94 l 899 -104 q 893 -92 895 -99 q 911 -84 905 -84 m 805 -100 l 812 -134 l 808 -141 l 808 -142 q 824 -178 819 -142 l 825 -178 l 878 -165 q 873 -149 873 -151 l 841 -156 q 836 -138 836 -145 q 841 -132 838 -138 q 825 -99 830 -132 q 824 -94 824 -99 q 805 -100 805 -98 m 597 -100 q 585 -139 593 -139 q 583 -141 583 -139 q 589 -149 587 -142 l 585 -181 l 587 -181 q 606 -182 587 -181 l 606 -181 l 610 -144 l 612 -144 q 633 -187 614 -147 q 652 -190 648 -190 q 664 -153 652 -157 q 659 -145 661 -146 l 664 -109 l 644 -106 q 636 -145 640 -145 q 614 -102 618 -102 q 597 -100 603 -100 m 542 -104 q 557 -109 557 -105 q 541 -150 546 -150 q 528 -144 528 -147 q 542 -104 538 -104 m 670 -109 l 670 -127 l 691 -127 q 694 -130 694 -128 l 694 -139 q 687 -151 694 -146 l 687 -153 q 694 -159 691 -153 l 694 -192 l 715 -192 l 715 -157 l 721 -151 l 713 -142 l 713 -129 q 717 -126 714 -126 l 736 -126 l 736 -109 l 670 -109 z "},"":{"ha":439,"x_min":0,"x_max":0,"o":""},"":{"ha":640,"x_min":0,"x_max":0,"o":""},"":{"ha":688,"x_min":0,"x_max":0,"o":""},"":{"ha":1408,"x_min":58,"x_max":1344,"o":"m 702 1126 q 1152 934 952 1126 q 1274 759 1238 838 q 1344 461 1344 610 l 1344 437 q 1153 -33 1344 178 q 702 -228 954 -228 q 238 -21 440 -228 q 58 451 58 184 q 248 929 58 722 q 702 1126 446 1126 m 684 1095 q 687 1021 687 1042 q 688 1016 688 1017 l 682 1011 l 670 1011 q 663 1089 663 1011 q 661 1094 661 1089 q 639 1092 646 1092 l 634 1092 q 637 1046 636 1082 q 629 1037 635 1046 q 639 1023 639 1032 l 639 1008 q 660 987 639 987 l 663 987 q 713 1001 713 987 q 715 1010 713 1002 q 713 1034 713 1025 q 722 1043 715 1034 q 712 1052 718 1043 l 712 1055 q 711 1095 712 1067 l 684 1095 m 760 1092 q 755 1069 758 1088 q 783 1062 783 1067 q 769 1036 783 1042 q 777 1026 771 1036 q 769 983 770 985 q 795 979 779 983 q 814 1028 800 1028 l 806 1038 q 810 1061 808 1054 q 838 1056 834 1056 l 838 1058 q 841 1079 838 1063 q 760 1092 770 1092 m 516 1052 q 524 1019 516 1042 q 518 1011 522 1019 l 518 1008 q 536 977 530 1008 q 553 966 543 966 q 608 989 608 977 l 608 995 q 603 1019 608 1002 q 576 1011 579 1011 q 579 998 579 1004 q 559 994 572 994 q 555 1015 555 1003 q 559 1023 559 1016 q 545 1047 547 1023 q 563 1053 549 1050 q 567 1041 567 1048 l 594 1048 q 573 1079 589 1079 l 567 1079 q 516 1052 516 1071 m 876 1067 q 869 1047 869 1049 q 895 1036 895 1038 q 875 1011 888 1011 q 880 1000 880 1004 q 866 959 866 965 q 890 950 886 950 q 917 995 903 995 q 912 1007 912 1002 q 922 1026 918 1026 q 945 1017 941 1017 l 954 1038 q 876 1068 885 1067 l 876 1067 m 389 1006 q 410 964 408 972 l 407 953 q 430 929 422 953 q 440 913 431 929 q 500 955 500 940 q 485 987 500 963 q 488 1000 488 993 q 469 1019 474 1000 q 446 1034 461 1034 q 389 1006 440 1034 m 995 1016 q 968 977 972 977 q 959 975 960 975 q 962 965 959 972 q 938 926 938 928 q 1000 887 996 887 q 1010 907 1010 901 q 972 934 976 928 q 983 945 981 945 l 984 945 l 1010 929 q 1023 949 1013 930 q 996 968 996 963 q 1006 981 1002 979 q 1044 956 1008 979 q 1057 975 1047 957 q 995 1016 1054 977 m 443 1006 q 470 959 445 1006 l 470 958 q 452 947 460 947 q 425 998 431 984 q 443 1006 439 1006 m 291 918 q 313 884 291 910 l 311 874 l 322 874 q 353 848 345 848 q 399 886 369 848 l 401 893 q 380 925 401 900 l 380 926 l 382 935 l 372 935 q 337 962 347 962 q 292 925 323 962 l 291 918 m 1095 943 q 1062 910 1095 941 l 1055 911 l 1051 911 l 1051 899 l 1021 868 q 1040 850 1021 866 l 1062 871 l 1063 871 q 1055 833 1055 836 l 1076 814 l 1086 852 q 1098 848 1097 848 l 1101 848 q 1139 884 1114 848 l 1139 889 q 1095 943 1139 903 m 332 932 l 336 932 q 372 892 347 922 l 372 889 q 359 878 372 887 l 357 878 q 321 919 346 887 l 321 922 q 332 932 321 923 m 413 672 l 414 662 l 414 584 q 374 515 374 569 q 394 412 374 458 q 425 354 397 411 q 448 321 448 326 l 448 318 l 446 307 q 452 269 448 290 q 449 245 449 260 q 450 233 450 234 l 449 230 q 461 178 454 178 q 476 144 476 165 q 503 113 481 130 q 528 92 513 92 q 552 55 552 58 q 591 5 572 5 q 603 -23 599 5 q 640 -47 614 -39 q 690 -71 652 -61 q 700 -72 699 -71 q 777 -66 723 -68 q 808 -50 793 -60 q 856 -26 831 -50 q 908 30 902 -26 q 935 106 920 45 q 960 174 960 134 q 969 204 969 188 l 969 215 q 983 264 983 249 q 978 282 981 277 q 979 306 979 297 l 979 312 q 978 319 979 317 q 979 330 979 326 q 962 394 979 357 q 964 410 963 410 l 963 414 l 963 429 q 956 465 963 442 q 968 490 968 474 l 966 500 q 974 541 974 519 l 974 549 q 979 575 979 566 l 966 621 l 968 645 q 944 729 968 664 q 881 817 922 779 q 808 878 850 864 q 648 910 713 910 l 636 910 q 549 892 602 910 q 480 848 519 881 q 424 753 447 806 q 413 672 418 730 m 1098 907 q 1111 890 1111 897 l 1095 876 l 1092 876 q 1080 887 1090 876 l 1080 889 q 1098 907 1080 891 m 621 895 q 795 867 720 895 q 863 819 854 835 q 903 751 881 804 q 944 648 925 727 l 944 647 q 942 618 944 642 q 951 581 948 601 q 956 576 954 581 l 956 574 q 948 562 956 563 l 951 547 q 938 496 951 522 q 944 491 944 495 l 944 487 q 939 482 944 485 l 930 482 q 926 469 930 477 q 941 424 932 469 l 941 418 q 938 385 938 395 q 954 343 947 374 q 956 332 954 342 l 954 321 q 957 303 957 306 q 951 282 957 300 q 959 262 959 269 q 945 219 959 255 q 937 173 945 194 q 922 127 937 149 q 901 71 911 119 q 882 30 901 68 l 882 28 q 884 22 882 27 q 857 -2 876 -2 q 818 -24 844 -2 q 777 -41 798 -24 l 702 -48 l 700 -48 q 655 -31 686 -48 q 629 -17 655 -24 q 623 4 623 -10 q 624 19 623 6 q 585 43 585 28 q 574 65 574 56 q 578 75 574 68 q 543 115 565 75 q 519 130 526 115 q 503 146 519 134 l 491 182 q 475 221 475 189 q 473 233 473 227 l 473 234 q 475 236 473 236 l 473 239 q 475 275 475 272 q 470 312 470 304 l 471 319 l 467 342 q 409 439 452 347 q 398 512 398 482 l 398 518 q 430 564 398 555 l 440 564 l 440 566 q 437 611 440 587 q 439 637 439 625 q 437 672 439 652 q 501 840 437 777 q 579 889 535 875 q 621 895 583 889 m 452 688 q 454 684 452 687 q 450 668 450 676 q 452 635 450 657 q 450 610 450 614 q 454 562 454 572 q 490 532 490 548 l 491 532 q 498 542 491 538 l 501 542 l 511 534 q 537 538 531 538 l 542 532 l 542 529 q 522 409 522 446 q 534 373 530 393 q 552 351 552 364 q 572 327 572 348 l 589 328 l 610 327 q 625 333 621 333 q 630 328 627 333 q 627 315 627 317 q 630 302 630 305 q 629 297 629 298 q 646 275 646 286 l 646 269 q 666 246 660 269 q 661 222 661 228 q 663 210 663 214 l 664 210 q 706 281 678 243 q 736 337 724 309 l 741 337 q 745 332 745 337 q 722 285 743 315 l 724 285 q 760 302 759 293 q 766 303 763 302 q 787 302 779 302 q 805 307 789 302 l 805 309 l 800 309 q 781 306 794 309 q 751 330 751 313 l 751 334 q 755 343 752 343 l 760 343 q 764 327 763 343 q 778 319 772 319 q 802 322 797 322 q 850 306 835 306 q 875 336 875 306 q 857 409 875 378 q 848 475 848 448 l 848 478 q 881 529 848 497 q 926 574 892 529 q 938 579 928 574 q 929 618 935 602 q 930 642 930 633 l 930 645 q 905 726 919 701 l 880 771 q 854 806 869 780 q 778 857 817 844 q 666 882 696 882 l 651 882 l 642 880 q 636 882 640 882 q 537 848 550 869 q 485 795 511 827 q 452 688 452 756 m 208 819 q 237 790 208 812 q 238 780 238 784 l 252 781 q 285 764 270 764 q 322 808 308 779 l 322 814 q 295 842 322 824 l 295 853 l 292 853 l 281 852 q 249 871 260 871 q 208 825 233 871 l 208 819 m 597 854 q 616 837 616 848 l 616 832 q 582 810 614 826 l 576 810 q 561 827 561 816 l 561 829 q 597 854 561 846 m 573 825 l 576 823 l 581 823 l 603 837 q 594 841 602 841 q 573 825 573 836 m 248 841 l 252 841 q 294 806 291 813 q 283 793 288 795 l 280 793 q 237 827 237 823 q 248 841 243 839 m 530 806 l 534 806 q 548 793 548 805 l 548 787 q 528 758 548 781 q 491 702 519 702 q 479 722 479 707 l 479 735 q 521 804 479 772 q 530 806 526 806 m 1095 791 l 1095 790 q 1105 774 1095 781 l 1111 774 q 1120 781 1120 779 l 1120 784 q 1107 801 1116 801 q 1095 791 1095 795 m 491 733 l 491 722 l 492 714 l 495 714 q 518 765 507 714 q 537 789 532 781 l 537 791 q 533 796 537 794 q 497 759 513 788 q 491 733 491 745 m 1180 768 q 1169 769 1175 769 q 1126 739 1169 757 q 1160 672 1154 689 q 1181 684 1177 680 l 1160 726 l 1175 733 q 1190 705 1190 709 q 1211 714 1194 705 q 1198 743 1211 720 l 1198 744 q 1213 751 1198 747 l 1214 751 q 1235 711 1221 733 q 1255 720 1252 720 q 1220 787 1255 727 q 1180 768 1184 768 m 167 768 q 157 744 167 764 q 228 713 222 717 l 228 711 q 218 696 223 696 q 203 711 205 696 q 191 707 195 707 l 149 724 l 140 699 l 140 698 q 184 671 184 684 l 184 669 q 197 673 192 673 q 208 668 208 672 q 201 651 205 651 l 199 651 l 130 678 l 130 677 q 120 652 120 656 q 165 630 165 637 l 165 626 l 167 626 q 178 629 168 626 l 198 621 q 237 662 237 635 q 233 673 237 665 q 253 694 248 680 q 256 703 253 699 q 238 739 248 739 q 222 756 222 744 q 212 751 214 751 l 168 768 l 167 768 m 1240 675 q 1219 659 1240 668 l 1216 648 l 1216 647 q 1223 614 1216 637 q 1210 610 1217 610 q 1202 627 1205 610 q 1213 633 1213 631 q 1205 657 1205 655 q 1177 637 1177 652 l 1177 629 q 1206 579 1184 579 l 1214 581 q 1223 575 1214 578 q 1246 593 1223 583 l 1249 604 l 1249 605 q 1241 637 1249 615 q 1256 644 1250 644 q 1262 626 1262 635 q 1252 621 1261 621 l 1259 595 q 1289 617 1289 600 q 1261 672 1280 672 l 1257 672 q 1252 671 1254 672 q 1240 675 1246 675 m 788 672 q 841 659 801 672 l 844 659 q 873 668 848 659 q 878 663 876 668 l 878 659 q 838 645 878 652 q 800 657 831 645 l 787 659 l 764 654 l 763 654 q 760 657 760 654 l 760 662 q 788 672 760 669 m 660 663 l 664 663 q 712 648 673 663 q 730 642 730 646 l 730 637 q 721 633 728 633 q 670 650 710 633 q 664 651 664 650 q 630 635 650 651 l 625 635 q 621 640 623 635 l 621 644 q 660 663 641 663 m 664 625 l 669 625 q 707 615 707 621 q 702 608 705 608 l 692 608 q 666 612 687 608 q 621 583 642 612 l 619 583 q 614 587 614 585 l 614 589 q 664 625 627 625 m 827 608 l 831 608 q 884 605 836 608 l 884 604 l 899 606 q 905 602 905 604 l 905 597 q 890 590 905 593 q 836 595 848 595 l 835 595 q 812 593 827 595 l 810 596 l 810 600 q 827 608 810 606 m 654 590 l 660 590 q 748 569 686 590 q 784 536 784 547 l 784 530 q 770 522 779 522 l 768 522 q 713 542 760 522 q 684 544 701 542 q 680 539 684 541 l 664 539 q 602 524 654 539 l 599 524 l 594 530 q 630 579 595 541 q 654 590 643 590 m 419 545 l 419 544 q 488 467 469 544 l 490 467 l 490 472 q 488 478 490 475 q 490 509 490 479 q 475 538 482 509 q 440 551 457 551 l 434 551 q 419 545 431 551 m 935 549 q 880 512 930 539 l 872 500 l 873 500 q 895 505 884 505 l 899 505 q 924 498 908 505 q 938 548 938 519 l 935 549 m 412 529 l 412 508 q 443 400 412 446 q 473 355 454 370 q 479 370 479 366 l 479 378 l 471 420 q 480 463 477 455 q 467 496 475 463 q 425 532 444 532 q 412 529 423 532 m 137 530 l 137 502 l 132 496 l 137 490 l 137 463 l 152 463 l 152 491 l 155 491 l 167 465 q 180 490 170 465 l 183 490 l 183 463 l 198 463 l 198 490 l 203 496 l 198 502 l 198 530 l 184 530 q 170 502 182 530 l 165 502 q 153 530 165 505 l 137 530 m 219 530 l 219 503 q 213 496 219 503 q 219 486 219 494 l 219 463 l 233 463 l 233 491 l 234 491 q 248 465 237 491 l 264 491 l 265 491 l 265 463 l 279 463 l 279 490 l 285 497 q 279 502 279 497 l 279 530 l 265 530 q 250 502 262 530 l 249 502 q 234 530 245 502 l 219 530 m 295 530 l 295 529 q 311 497 295 527 q 295 463 295 465 l 311 463 q 319 476 315 463 l 321 476 q 328 463 324 476 l 346 463 l 346 465 q 331 497 331 493 l 346 530 l 328 530 q 321 517 324 517 l 319 517 q 311 530 315 530 l 295 530 m 1000 530 l 1000 503 q 995 496 995 496 q 1000 486 1000 494 l 1000 463 l 1014 463 l 1014 491 l 1015 491 q 1029 465 1019 491 l 1045 491 l 1047 491 l 1047 463 l 1060 463 l 1060 490 l 1066 497 q 1060 502 1060 497 l 1060 530 l 1047 530 q 1032 502 1044 530 l 1030 502 q 1015 530 1027 502 l 1000 530 m 1081 530 l 1081 503 l 1076 496 q 1081 486 1081 494 l 1081 463 l 1095 463 l 1095 491 l 1096 491 q 1109 465 1100 491 l 1126 491 l 1128 491 l 1128 463 l 1141 463 l 1141 490 l 1147 497 q 1141 502 1141 497 l 1141 530 l 1128 530 q 1113 502 1124 530 l 1111 502 q 1096 530 1108 502 l 1081 530 m 1158 530 q 1174 496 1174 498 l 1158 463 l 1174 463 q 1181 476 1177 463 l 1183 476 q 1190 463 1186 476 l 1210 463 q 1194 497 1194 494 l 1210 530 l 1190 530 q 1183 517 1186 517 l 1181 517 q 1174 530 1177 530 l 1158 530 m 1221 530 q 1238 496 1238 498 l 1221 463 l 1238 463 q 1246 476 1242 463 l 1247 476 q 1255 463 1251 476 l 1274 463 q 1257 497 1257 494 l 1274 530 l 1255 530 q 1247 517 1251 517 l 1246 517 q 1238 530 1242 530 l 1221 530 m 692 527 q 737 512 734 522 l 737 508 q 733 503 737 506 q 694 514 709 514 l 692 514 q 652 497 652 507 q 648 493 649 493 l 644 493 q 639 502 639 494 q 692 527 639 517 m 440 511 q 449 503 446 509 l 443 454 q 454 427 446 427 l 460 430 q 465 426 465 428 l 465 421 q 458 414 465 419 l 452 414 q 430 454 435 414 q 434 493 434 481 l 434 498 l 433 507 q 440 511 437 511 m 699 508 q 754 481 730 508 l 754 476 q 697 451 734 451 q 645 482 645 460 l 645 486 q 699 508 667 508 m 763 502 l 768 502 q 784 478 784 489 q 775 463 782 463 q 769 467 769 465 l 769 481 l 758 493 l 758 497 q 763 502 758 499 m 702 494 q 705 486 705 490 l 705 478 q 702 465 705 474 l 703 465 q 736 481 736 468 q 702 494 718 494 m 896 493 q 899 484 899 487 q 893 467 897 475 l 895 467 q 918 487 918 467 q 896 493 907 493 m 660 482 l 660 479 l 661 479 l 661 482 l 660 482 m 861 478 l 861 472 q 865 469 862 469 l 865 471 l 863 478 l 861 478 m 458 472 q 467 469 462 472 q 464 452 464 458 l 465 439 l 460 436 q 449 454 452 436 q 458 472 452 472 m 758 466 l 763 466 q 768 461 765 466 l 768 460 q 741 418 768 448 l 739 418 q 732 426 735 418 l 754 457 q 758 466 755 466 m 880 454 l 869 454 l 861 456 q 886 372 863 426 q 887 340 887 352 l 887 334 q 881 312 887 321 q 909 292 888 312 l 911 292 q 918 343 911 295 l 927 429 q 923 442 926 442 q 897 400 923 418 l 895 400 q 890 405 892 400 l 890 408 q 912 454 912 429 l 912 458 q 880 454 894 454 m 805 437 l 810 437 q 815 426 814 437 l 814 418 l 818 397 l 818 394 q 809 390 817 390 q 800 430 802 390 l 800 433 q 805 437 800 435 m 633 436 l 639 436 q 684 414 659 414 l 691 414 q 724 421 699 414 l 726 418 l 726 412 q 690 400 716 400 q 630 431 630 408 l 630 433 q 633 436 631 436 m 1225 426 q 1223 400 1223 408 q 1242 387 1227 400 q 1220 375 1242 385 l 1217 351 q 1267 373 1263 373 l 1272 373 l 1280 366 q 1286 372 1282 366 l 1297 370 l 1302 370 l 1302 379 l 1304 390 q 1283 399 1289 390 q 1276 393 1276 395 q 1238 416 1265 393 l 1225 426 m 153 415 q 134 403 153 409 l 131 393 q 132 369 132 371 q 123 366 127 366 l 122 366 q 117 380 118 366 q 126 384 121 384 q 123 405 125 405 q 99 390 99 405 q 116 345 99 345 q 127 339 120 345 q 147 349 127 345 l 152 363 q 149 384 152 366 q 161 388 155 388 q 165 373 163 385 q 156 369 156 370 q 157 349 156 368 l 159 349 q 183 364 183 349 q 165 409 183 409 q 155 415 161 409 l 153 415 m 768 403 l 772 403 q 777 399 774 403 q 758 360 766 360 l 755 360 q 751 366 753 360 q 768 403 764 401 m 787 369 q 806 357 806 363 l 806 353 q 803 349 806 349 l 800 349 q 781 360 781 355 l 781 364 q 787 369 781 368 m 1204 288 q 1241 275 1241 280 l 1241 272 l 1249 276 q 1283 272 1273 272 l 1287 290 q 1265 294 1269 294 l 1265 296 q 1292 307 1267 298 l 1297 328 q 1267 321 1272 321 q 1234 342 1267 337 l 1226 342 q 1204 288 1211 342 m 152 326 q 146 330 152 328 q 111 313 146 320 q 110 312 110 313 q 116 294 113 294 q 141 298 134 298 q 156 266 146 266 l 157 266 q 199 285 199 269 l 199 288 l 189 333 q 152 326 159 326 m 1231 319 q 1249 312 1249 319 q 1244 300 1248 300 q 1226 307 1226 302 q 1231 319 1227 319 m 176 307 q 180 292 180 299 q 161 288 175 288 q 156 303 156 297 q 176 307 169 307 m 1181 224 q 1210 203 1181 211 q 1214 194 1213 194 q 1223 199 1221 199 q 1246 191 1229 195 q 1270 233 1261 191 l 1270 236 q 1242 255 1270 247 q 1238 262 1242 262 l 1234 260 l 1231 260 l 1205 267 q 1181 224 1192 267 m 174 254 q 165 256 170 254 q 152 243 165 250 q 131 233 131 239 q 138 216 137 216 q 167 227 162 227 q 174 209 170 227 q 146 199 147 199 l 146 197 q 153 179 150 179 q 186 189 181 189 q 193 188 188 188 q 228 208 193 197 l 228 210 q 207 266 212 250 q 174 254 178 254 m 1208 243 q 1249 230 1215 243 l 1249 229 q 1242 214 1246 214 q 1202 230 1202 228 q 1208 243 1205 243 m 197 239 q 204 221 200 235 q 192 216 195 216 q 184 234 186 224 q 197 239 193 239 m 805 215 l 802 216 q 773 210 793 212 q 753 201 767 201 q 743 204 750 201 q 732 200 735 200 q 734 197 732 197 l 760 197 q 854 222 854 207 q 831 224 839 224 l 830 224 q 805 215 810 215 m 1173 206 l 1144 149 q 1160 143 1154 143 q 1168 159 1168 157 l 1169 159 q 1187 143 1187 157 q 1196 146 1192 146 q 1226 131 1200 146 l 1227 131 q 1235 151 1235 148 q 1204 174 1204 163 q 1195 172 1198 172 q 1180 180 1180 178 q 1187 200 1187 193 q 1173 206 1177 206 m 204 176 q 195 179 201 176 q 163 153 195 167 q 174 136 170 140 q 210 153 205 153 q 188 113 203 138 q 197 94 188 109 l 227 111 q 235 109 228 109 q 262 130 235 119 q 267 136 267 133 q 259 151 259 149 l 223 134 l 223 136 l 244 173 q 234 193 244 180 l 204 176 m 836 178 q 842 153 838 153 l 845 153 q 850 163 850 155 l 850 168 q 844 179 850 176 l 839 179 l 836 178 m 812 172 q 808 155 809 168 q 815 144 810 144 q 820 146 818 146 l 820 164 q 821 165 820 165 q 812 172 820 172 m 779 164 l 781 149 l 781 140 q 785 136 781 138 l 788 136 q 791 138 791 136 l 791 158 l 790 165 l 783 165 l 779 164 m 1138 140 l 1103 91 q 1132 68 1103 90 l 1132 61 l 1141 62 q 1169 43 1151 56 l 1171 43 q 1181 60 1171 45 l 1156 79 q 1168 94 1164 94 q 1192 77 1175 90 l 1195 77 q 1205 94 1195 79 q 1177 115 1177 112 l 1177 122 l 1175 122 l 1165 121 q 1138 140 1162 125 m 833 106 q 836 103 833 103 l 844 103 q 846 127 846 119 q 845 131 845 130 l 839 131 q 833 106 833 131 m 250 98 l 241 100 q 223 80 241 87 q 213 71 223 79 q 225 55 223 55 l 253 75 l 262 73 l 262 80 l 291 103 q 280 119 280 117 q 250 98 279 119 m 794 106 l 794 92 q 798 90 795 90 l 802 90 q 806 109 806 90 l 806 118 l 799 118 q 794 106 794 117 m 1141 112 l 1143 112 q 1152 104 1152 106 q 1139 90 1143 91 q 1131 97 1131 95 l 1131 98 q 1141 112 1139 111 m 289 75 l 283 75 l 280 76 q 273 56 280 64 l 273 50 q 289 25 273 43 l 289 24 q 281 16 289 22 l 280 16 q 271 26 277 16 l 271 28 l 276 34 q 262 49 263 49 q 249 35 250 40 l 249 30 q 279 -6 249 17 l 288 -6 q 298 -2 293 -2 l 300 -2 l 302 -3 q 311 16 302 6 l 311 22 q 295 47 311 29 l 295 49 q 302 56 295 51 l 304 56 q 313 43 313 51 q 309 39 311 43 q 322 24 309 38 q 336 41 336 33 l 336 43 q 306 79 336 56 l 300 79 q 289 75 294 79 m 817 76 l 817 64 l 818 56 l 823 56 q 829 67 829 59 l 829 70 q 824 79 829 77 l 820 79 q 817 76 817 79 m 1056 37 l 1056 34 q 1081 12 1059 34 l 1081 4 l 1088 4 q 1114 -18 1090 4 l 1117 -18 q 1129 -3 1117 -16 q 1111 12 1114 12 l 1111 14 l 1141 9 l 1156 25 q 1126 34 1133 31 q 1129 45 1129 40 q 1098 73 1109 73 l 1095 73 q 1056 37 1086 73 m 787 25 l 790 24 l 794 24 q 803 46 798 26 q 802 50 802 49 l 794 50 q 787 25 790 50 m 1095 50 q 1107 40 1101 48 l 1107 35 q 1098 26 1107 33 q 1083 40 1083 38 q 1095 50 1090 50 m 814 20 l 814 14 q 818 10 814 12 l 821 10 q 827 30 825 10 l 823 33 l 820 33 q 814 20 816 33 m 322 3 l 323 -1 l 323 -8 l 302 -33 q 319 -47 315 -46 q 340 -23 333 -28 q 353 -35 353 -33 l 353 -36 q 334 -60 341 -50 l 334 -62 q 351 -74 336 -62 q 373 -47 351 -71 l 380 -47 l 380 -38 q 401 -9 401 -12 l 387 3 l 385 3 q 366 -21 385 -1 q 352 -9 352 -11 l 352 -8 q 370 14 352 -7 l 370 16 q 357 28 370 17 l 355 28 q 328 3 334 3 l 322 3 m 1004 -14 l 1004 -17 q 1019 -41 1004 -22 l 1019 -47 l 1017 -50 q 1035 -58 1029 -50 q 1045 -69 1035 -63 l 1051 -69 q 1087 -41 1064 -69 q 1088 -36 1088 -38 q 1074 -12 1088 -30 l 1074 -6 l 1076 -3 q 1053 13 1062 -3 q 1040 19 1046 19 q 1004 -14 1004 -1 m 1040 -3 q 1065 -39 1065 -34 q 1056 -47 1057 -47 l 1053 -47 q 1026 -16 1051 -46 l 1026 -12 q 1040 -3 1034 -3 m 939 -48 l 939 -51 l 956 -78 l 954 -89 q 977 -114 966 -89 q 979 -119 979 -114 q 1026 -84 1026 -98 l 1026 -81 q 1008 -51 1026 -74 q 985 -24 998 -24 q 939 -48 979 -24 m 981 -47 q 985 -56 985 -48 q 972 -64 979 -64 l 966 -54 q 981 -47 976 -47 m 464 -51 q 440 -84 452 -84 q 443 -93 443 -89 q 430 -124 443 -96 l 431 -124 q 449 -132 445 -132 l 461 -105 l 463 -105 q 486 -115 467 -105 q 494 -99 486 -113 q 470 -87 484 -96 q 477 -75 475 -75 q 511 -90 506 -90 l 512 -90 q 518 -75 512 -85 q 464 -50 465 -50 l 464 -51 m 866 -83 q 880 -115 880 -111 q 876 -123 880 -118 q 897 -157 887 -123 q 917 -149 917 -152 q 906 -119 906 -125 q 923 -113 922 -113 q 938 -141 936 -141 l 956 -134 l 942 -104 l 945 -93 q 924 -58 935 -93 q 866 -83 921 -58 m 995 -74 l 998 -74 q 1004 -81 1000 -74 l 1004 -83 q 990 -93 1002 -87 l 984 -84 l 984 -81 q 995 -74 984 -79 m 507 -117 q 511 -126 511 -122 q 506 -145 506 -142 l 506 -149 q 545 -170 506 -163 l 551 -170 q 568 -142 563 -170 q 576 -138 576 -139 q 573 -129 573 -133 q 579 -105 579 -107 q 533 -83 579 -90 q 515 -113 523 -83 q 507 -117 507 -115 m 911 -84 l 912 -84 q 916 -96 916 -94 l 899 -104 q 893 -92 895 -99 q 911 -84 905 -84 m 805 -100 l 812 -134 l 808 -141 l 808 -142 q 824 -178 819 -142 l 825 -178 l 878 -165 q 873 -149 873 -151 l 841 -156 q 836 -138 836 -145 q 841 -132 838 -138 q 825 -99 830 -132 q 824 -94 824 -99 q 805 -100 805 -98 m 597 -100 q 585 -139 593 -139 q 583 -141 583 -139 q 589 -149 587 -142 l 585 -181 l 587 -181 q 606 -182 587 -181 l 606 -181 l 610 -144 l 612 -144 q 633 -187 614 -147 q 652 -190 648 -190 q 664 -153 652 -157 q 659 -145 661 -146 l 664 -109 l 644 -106 q 636 -145 640 -145 q 614 -102 618 -102 q 597 -100 603 -100 m 542 -104 q 557 -109 557 -105 q 541 -150 546 -150 q 528 -144 528 -147 q 542 -104 538 -104 m 670 -109 l 670 -127 l 691 -127 q 694 -130 694 -128 l 694 -139 q 687 -151 694 -146 l 687 -153 q 694 -159 691 -153 l 694 -192 l 715 -192 l 715 -157 l 721 -151 l 713 -142 l 713 -129 q 717 -126 714 -126 l 736 -126 l 736 -109 l 670 -109 z "},"":{"ha":454,"x_min":0,"x_max":0,"o":""},"":{"ha":340,"x_min":20,"x_max":304,"o":"m 196 1144 l 223 1144 q 297 1101 276 1144 q 304 1067 304 1083 l 304 973 q 248 861 304 876 q 151 845 200 845 q 43 863 66 845 q 20 932 20 888 l 20 1036 q 104 1131 20 1116 q 196 1144 182 1144 m 119 1007 l 119 968 q 151 939 119 943 q 191 989 191 939 l 191 1011 q 162 1040 191 1040 l 151 1040 q 121 1021 128 1040 l 119 1007 z "},"":{"ha":688,"x_min":0,"x_max":0,"o":""},"":{"ha":688,"x_min":0,"x_max":0,"o":""},"":{"ha":688,"x_min":0,"x_max":0,"o":""},"":{"ha":277,"x_min":33,"x_max":241,"o":"m 182 1090 q 241 1058 227 1090 l 241 1042 q 184 925 241 1027 q 114 852 154 852 l 71 852 q 33 887 33 863 q 84 996 33 909 q 171 1090 118 1090 l 182 1090 z "},"":{"ha":800,"x_min":0,"x_max":0,"o":""},"":{"ha":694,"x_min":0,"x_max":0,"o":""},"":{"ha":345,"x_min":0,"x_max":0,"o":""},"":{"ha":694,"x_min":0,"x_max":0,"o":""},"":{"ha":688,"x_min":0,"x_max":0,"o":""},"":{"ha":487,"x_min":0,"x_max":0,"o":""},"":{"ha":640,"x_min":0,"x_max":0,"o":""},"":{"ha":1158,"x_min":0,"x_max":0,"o":""},"":{"ha":1332,"x_min":0,"x_max":0,"o":""},"":{"ha":1158,"x_min":0,"x_max":0,"o":""},"":{"ha":498,"x_min":14,"x_max":473,"o":"m 177 -1 l 134 -1 q 31 106 32 -3 l 30 146 q 15 282 16 234 l 15 295 q 145 449 14 370 q 174 585 170 459 q 193 638 173 625 l 312 640 q 332 593 323 640 q 292 397 316 398 q 180 300 292 392 q 164 248 168 275 q 215 155 165 155 q 314 196 314 164 q 342 276 313 264 q 385 286 359 286 l 389 286 q 469 201 468 287 q 473 109 473 176 q 389 45 441 45 q 177 -1 349 21 m 309 666 l 182 664 q 159 730 159 680 q 250 840 157 840 q 334 789 333 833 l 334 742 q 309 666 334 695 z "},"":{"ha":534,"x_min":15,"x_max":522,"o":"m 100 813 l 287 832 q 430 795 426 833 q 471 576 448 798 l 479 506 q 481 452 483 467 q 490 390 487 423 l 509 187 q 514 106 512 154 q 522 60 517 100 q 476 -1 520 3 q 460 -6 464 -3 q 351 56 358 -16 q 347 70 348 56 q 344 170 349 128 l 340 238 q 282 270 336 275 l 204 262 q 180 232 185 260 q 182 230 180 229 q 176 115 184 216 q 187 53 177 100 q 150 -8 187 -4 l 139 -9 q 31 4 51 -18 q 18 33 18 26 l 15 57 l 27 205 q 24 208 26 208 q 23 404 29 343 l 26 405 q 22 407 25 407 q 25 699 26 510 q 100 813 40 807 m 180 464 q 264 437 184 429 l 297 441 q 321 468 317 443 l 308 524 q 311 576 307 575 q 307 578 310 578 q 306 619 307 606 l 304 635 q 282 668 302 661 l 255 665 q 184 617 179 658 q 180 464 181 590 m 159 1130 q 235 1076 214 1130 q 300 954 256 1025 q 305 921 305 930 q 267 891 288 891 l 224 891 q 129 1013 179 891 q 96 1081 96 1061 l 96 1097 q 159 1130 111 1130 z "},"":{"ha":534,"x_min":15,"x_max":522,"o":"m 100 813 l 287 832 q 430 795 426 833 q 471 576 448 798 l 479 506 q 481 452 483 467 q 490 390 487 423 l 509 187 q 514 106 512 154 q 522 60 517 100 q 476 -1 520 3 q 460 -6 464 -3 q 351 56 358 -16 q 347 70 348 56 q 344 170 349 128 l 340 238 q 282 270 336 275 l 204 262 q 180 232 185 260 q 182 230 180 229 q 176 115 184 216 q 187 53 177 100 q 150 -8 187 -4 l 139 -9 q 31 4 51 -18 q 18 33 18 26 l 15 57 l 27 205 q 24 208 26 208 q 23 404 29 343 l 26 405 q 22 407 25 407 q 25 699 26 510 q 100 813 40 807 m 180 464 q 264 437 184 429 l 297 441 q 321 468 317 443 l 308 524 q 311 576 307 575 q 307 578 310 578 q 306 619 307 606 l 304 635 q 282 668 302 661 l 255 665 q 184 617 179 658 q 180 464 181 590 m 334 1103 q 394 1070 379 1103 l 394 1054 q 337 937 394 1040 q 267 864 307 864 l 223 864 q 185 899 185 876 q 237 1008 185 922 q 323 1103 271 1103 l 334 1103 z "},"":{"ha":534,"x_min":7,"x_max":531,"o":"m 100 813 l 287 832 q 430 795 426 833 q 471 576 448 798 l 479 506 q 481 452 483 467 q 490 390 487 423 l 509 187 q 514 106 512 154 q 522 60 517 100 q 476 -1 520 3 q 460 -6 464 -3 q 351 56 358 -16 q 347 70 348 56 q 344 170 349 128 l 340 238 q 282 270 336 275 l 204 262 q 180 232 185 260 q 182 230 180 229 q 176 115 184 216 q 187 53 177 100 q 150 -8 187 -4 l 139 -9 q 31 4 51 -18 q 18 33 18 26 l 15 57 l 27 205 q 24 208 26 208 q 23 404 29 343 l 26 405 q 22 407 25 407 q 25 699 26 510 q 100 813 40 807 m 180 464 q 264 437 184 429 l 297 441 q 321 468 317 443 l 308 524 q 311 576 307 575 q 307 578 310 578 q 306 619 307 606 l 304 635 q 282 668 302 661 l 255 665 q 184 617 179 658 q 180 464 181 590 m 285 1141 q 444 1021 311 1141 q 531 932 531 978 l 531 920 q 489 860 531 860 q 402 915 471 860 q 270 999 305 985 q 165 930 269 996 q 52 852 67 852 l 44 852 q 7 912 7 852 l 7 924 q 81 1006 7 968 q 233 1126 179 1089 q 285 1141 267 1141 z "},"":{"ha":534,"x_min":15,"x_max":522,"o":"m 100 813 l 287 832 q 430 795 426 833 q 471 576 448 798 l 479 506 q 481 452 483 467 q 490 390 487 423 l 509 187 q 514 106 512 154 q 522 60 517 100 q 476 -1 520 3 q 460 -6 464 -3 q 351 56 358 -16 q 347 70 348 56 q 344 170 349 128 l 340 238 q 282 270 336 275 l 204 262 q 180 232 185 260 q 182 230 180 229 q 176 115 184 216 q 187 53 177 100 q 150 -8 187 -4 l 139 -9 q 31 4 51 -18 q 18 33 18 26 l 15 57 l 27 205 q 24 208 26 208 q 23 404 29 343 l 26 405 q 22 407 25 407 q 25 699 26 510 q 100 813 40 807 m 180 464 q 264 437 184 429 l 297 441 q 321 468 317 443 l 308 524 q 311 576 307 575 q 307 578 310 578 q 306 619 307 606 l 304 635 q 282 668 302 661 l 255 665 q 184 617 179 658 q 180 464 181 590 m 382 1065 l 446 1065 q 480 1038 461 1065 l 480 1024 q 361 911 480 974 l 345 909 q 252 935 334 909 q 235 937 248 937 q 145 882 216 937 q 119 880 130 880 l 107 880 q 35 926 35 880 l 35 928 q 116 1013 35 962 q 205 1059 161 1053 l 237 1059 l 313 1042 l 318 1042 q 382 1065 326 1042 z "},"":{"ha":534,"x_min":15,"x_max":522,"o":"m 100 813 l 287 832 q 430 795 426 833 q 471 576 448 798 l 479 506 q 481 452 483 467 q 490 390 487 423 l 509 187 q 514 106 512 154 q 522 60 517 100 q 476 -1 520 3 q 460 -6 464 -3 q 351 56 358 -16 q 347 70 348 56 q 344 170 349 128 l 340 238 q 282 270 336 275 l 204 262 q 180 232 185 260 q 182 230 180 229 q 176 115 184 216 q 187 53 177 100 q 150 -8 187 -4 l 139 -9 q 31 4 51 -18 q 18 33 18 26 l 15 57 l 27 205 q 24 208 26 208 q 23 404 29 343 l 26 405 q 22 407 25 407 q 25 699 26 510 q 100 813 40 807 m 180 464 q 264 437 184 429 l 297 441 q 321 468 317 443 l 308 524 q 311 576 307 575 q 307 578 310 578 q 306 619 307 606 l 304 635 q 282 668 302 661 l 255 665 q 184 617 179 658 q 180 464 181 590 m 367 1089 l 376 1089 q 457 1023 457 1089 l 457 951 q 420 896 457 918 l 298 896 q 264 955 268 896 q 276 1042 272 993 q 367 1089 288 1089 m 71 1085 l 171 1085 q 214 1032 203 1085 l 214 945 q 124 886 214 892 l 102 886 q 24 932 39 886 l 24 958 q 52 1069 35 1069 q 71 1085 52 1074 z "},"":{"ha":534,"x_min":15,"x_max":522,"o":"m 180 464 q 264 437 184 429 l 297 441 q 321 468 317 443 l 308 524 q 311 576 307 575 q 307 578 310 578 q 306 619 307 606 l 304 635 q 282 668 302 661 l 255 665 q 184 617 179 658 q 180 464 181 590 m 189 968 l 189 929 q 220 900 189 904 q 261 949 261 900 l 261 972 q 232 1001 261 1001 l 220 1001 q 191 981 198 1001 l 189 968 m 338 831 q 430 795 427 825 q 471 576 448 798 l 479 506 q 481 452 483 467 q 490 390 487 423 l 509 187 q 514 106 512 154 q 522 60 517 100 q 476 -1 520 3 q 460 -6 464 -3 q 351 56 358 -16 q 347 70 348 56 q 344 170 349 128 l 340 238 q 282 270 336 275 l 204 262 q 180 232 185 260 q 182 230 180 229 q 176 115 184 216 q 187 53 177 100 q 150 -8 187 -4 l 139 -9 q 31 4 51 -18 q 18 33 18 26 l 15 57 l 27 205 q 24 208 26 208 q 23 404 29 343 l 26 405 q 22 407 25 407 q 25 699 26 510 q 100 813 40 807 l 127 816 q 113 823 118 819 q 90 893 90 849 l 90 997 q 174 1091 90 1077 q 266 1105 252 1105 l 293 1105 q 367 1062 346 1105 q 374 1028 374 1044 l 374 934 q 338 831 374 856 z "},"":{"ha":896,"x_min":15,"x_max":883,"o":"m 180 464 q 264 437 184 429 l 297 441 q 321 468 317 443 l 308 524 q 311 576 307 575 q 307 578 310 578 q 306 619 307 606 l 304 635 q 282 668 302 661 l 255 665 q 184 617 179 658 q 180 464 181 590 m 501 7 q 476 -1 491 0 q 460 -6 464 -3 q 351 56 358 -16 q 347 70 348 56 q 344 170 349 128 l 340 238 q 282 270 336 275 l 204 262 q 180 232 185 260 q 182 230 180 229 q 176 115 184 216 q 187 53 177 100 q 150 -8 187 -4 l 139 -9 q 31 4 51 -18 q 18 33 18 26 l 15 57 l 27 205 q 24 208 26 208 q 23 404 29 343 l 26 405 q 22 407 25 407 q 25 699 26 510 q 100 813 40 807 l 287 832 q 405 819 370 833 q 433 823 418 823 l 515 823 q 568 829 563 829 l 661 829 q 709 823 709 828 l 714 826 q 852 789 831 826 q 866 733 866 761 q 804 677 866 677 q 571 686 738 682 q 521 649 521 686 q 512 570 512 595 l 512 553 q 574 514 512 514 q 785 492 785 514 q 804 433 804 473 l 804 430 q 757 359 804 370 l 740 359 q 642 368 661 368 l 543 368 q 521 342 521 368 l 521 317 q 517 315 521 315 l 521 309 q 507 205 513 262 l 509 187 l 509 185 q 563 160 517 160 q 619 157 581 160 q 827 165 754 160 q 883 79 883 165 l 883 73 q 821 0 883 0 l 812 0 q 692 5 804 0 l 546 5 q 501 7 522 6 z "},"":{"ha":648,"x_min":14,"x_max":626,"o":"m 215 6 l 161 6 q 57 55 90 20 q 14 168 14 109 q 37 422 14 289 q 34 425 37 425 l 37 453 l 37 514 l 48 647 l 48 650 q 51 652 48 652 l 48 659 l 48 673 q 129 814 48 770 q 207 829 157 829 q 308 826 240 829 q 331 829 324 829 q 386 823 354 823 l 548 823 q 626 760 626 823 l 626 725 q 623 722 626 722 l 626 716 q 591 670 612 670 q 568 664 591 664 q 288 679 490 670 q 204 609 216 679 q 184 404 191 559 l 175 289 l 175 202 q 256 159 175 163 l 264 159 l 286 226 q 378 272 311 292 q 417 160 433 248 q 484 159 469 159 q 576 161 539 161 q 623 96 623 144 l 626 60 q 559 0 626 5 l 372 0 q 362 -28 366 -20 l 351 -58 q 262 -96 329 -117 q 215 6 202 -68 z "},"":{"ha":570,"x_min":20,"x_max":549,"o":"m 234 829 l 327 829 q 374 823 374 828 l 380 826 q 517 789 497 826 q 532 733 532 761 q 470 677 532 677 q 237 686 404 683 q 186 649 186 686 q 178 570 178 595 l 178 553 q 239 514 178 514 q 450 492 450 514 q 470 433 470 473 l 470 430 q 422 359 470 370 l 406 359 q 307 368 327 368 l 209 368 q 186 342 186 368 l 186 317 q 183 315 186 315 l 186 309 q 172 199 178 260 q 229 160 172 160 q 284 157 246 160 q 492 165 420 160 q 549 79 549 165 l 549 73 q 487 0 549 0 l 478 0 q 357 5 469 0 l 212 5 q 32 39 32 12 q 20 71 20 54 l 20 73 l 32 300 l 32 396 q 28 472 32 433 q 35 578 35 520 l 37 578 l 35 585 l 35 669 q 32 787 35 712 q 99 823 50 823 l 180 823 q 234 829 228 829 m 213 1124 q 289 1069 269 1124 q 354 947 310 1019 q 359 915 359 924 q 321 885 342 885 l 278 885 q 183 1007 233 885 q 151 1075 151 1055 l 151 1091 q 213 1124 165 1124 z "},"":{"ha":570,"x_min":20,"x_max":549,"o":"m 234 829 l 327 829 q 374 823 374 828 l 380 826 q 517 789 497 826 q 532 733 532 761 q 470 677 532 677 q 237 686 404 683 q 186 649 186 686 q 178 570 178 595 l 178 553 q 239 514 178 514 q 450 492 450 514 q 470 433 470 473 l 470 430 q 422 359 470 370 l 406 359 q 307 368 327 368 l 209 368 q 186 342 186 368 l 186 317 q 183 315 186 315 l 186 309 q 172 199 178 260 q 229 160 172 160 q 284 157 246 160 q 492 165 420 160 q 549 79 549 165 l 549 73 q 487 0 549 0 l 478 0 q 357 5 469 0 l 212 5 q 32 39 32 12 q 20 71 20 54 l 20 73 l 32 300 l 32 396 q 28 472 32 433 q 35 578 35 520 l 37 578 l 35 585 l 35 669 q 32 787 35 712 q 99 823 50 823 l 180 823 q 234 829 228 829 m 334 1103 q 394 1070 379 1103 l 394 1054 q 337 937 394 1040 q 267 864 307 864 l 223 864 q 185 899 185 876 q 237 1008 185 922 q 323 1103 271 1103 l 334 1103 z "},"":{"ha":570,"x_min":20,"x_max":549,"o":"m 234 829 l 327 829 q 374 823 374 828 l 380 826 q 517 789 497 826 q 532 733 532 761 q 470 677 532 677 q 237 686 404 683 q 186 649 186 686 q 178 570 178 595 l 178 553 q 239 514 178 514 q 450 492 450 514 q 470 433 470 473 l 470 430 q 422 359 470 370 l 406 359 q 307 368 327 368 l 209 368 q 186 342 186 368 l 186 317 q 183 315 186 315 l 186 309 q 172 199 178 260 q 229 160 172 160 q 284 157 246 160 q 492 165 420 160 q 549 79 549 165 l 549 73 q 487 0 549 0 l 478 0 q 357 5 469 0 l 212 5 q 32 39 32 12 q 20 71 20 54 l 20 73 l 32 300 l 32 396 q 28 472 32 433 q 35 578 35 520 l 37 578 l 35 585 l 35 669 q 32 787 35 712 q 99 823 50 823 l 180 823 q 234 829 228 829 m 298 1141 q 458 1021 324 1141 q 545 932 545 978 l 545 920 q 503 860 545 860 q 416 915 484 860 q 283 999 319 985 q 179 930 283 996 q 65 852 81 852 l 58 852 q 20 912 20 852 l 20 924 q 95 1006 20 968 q 246 1126 193 1089 q 298 1141 281 1141 z "},"":{"ha":570,"x_min":20,"x_max":549,"o":"m 234 829 l 327 829 q 374 823 374 828 l 380 826 q 517 789 497 826 q 532 733 532 761 q 470 677 532 677 q 237 686 404 683 q 186 649 186 686 q 178 570 178 595 l 178 553 q 239 514 178 514 q 450 492 450 514 q 470 433 470 473 l 470 430 q 422 359 470 370 l 406 359 q 307 368 327 368 l 209 368 q 186 342 186 368 l 186 317 q 183 315 186 315 l 186 309 q 172 199 178 260 q 229 160 172 160 q 284 157 246 160 q 492 165 420 160 q 549 79 549 165 l 549 73 q 487 0 549 0 l 478 0 q 357 5 469 0 l 212 5 q 32 39 32 12 q 20 71 20 54 l 20 73 l 32 300 l 32 396 q 28 472 32 433 q 35 578 35 520 l 37 578 l 35 585 l 35 669 q 32 787 35 712 q 99 823 50 823 l 180 823 q 234 829 228 829 m 387 1082 l 396 1082 q 477 1017 477 1082 l 477 945 q 440 889 477 911 l 318 889 q 284 948 288 889 q 296 1036 292 986 q 387 1082 309 1082 m 91 1078 l 191 1078 q 235 1025 223 1078 l 235 938 q 144 879 235 886 l 122 879 q 44 926 59 879 l 44 951 q 73 1063 55 1063 q 91 1078 73 1067 z "},"":{"ha":226,"x_min":-39,"x_max":193,"o":"m 112 838 q 190 799 180 838 q 193 774 193 783 l 193 760 q 187 693 193 755 l 187 359 q 176 134 181 134 q 179 123 179 129 l 176 117 q 179 106 179 112 l 179 100 q 176 98 179 98 l 179 92 l 179 64 q 121 0 179 0 q 26 39 26 2 q 20 50 22 39 q 28 220 20 78 l 28 387 q 35 454 28 391 l 35 537 q 37 634 35 596 q 35 724 35 659 l 35 740 q 31 785 35 756 q 81 835 40 835 q 112 838 97 838 m 24 1130 q 100 1076 79 1130 q 165 954 121 1025 q 170 921 170 929 q 132 891 153 891 l 89 891 q -6 1013 44 891 q -39 1081 -39 1061 l -39 1097 q 24 1130 -24 1130 z "},"":{"ha":226,"x_min":20,"x_max":254,"o":"m 112 838 q 190 799 180 838 q 193 774 193 783 l 193 760 q 187 693 193 755 l 187 359 q 176 134 181 134 q 179 123 179 129 l 176 117 q 179 106 179 112 l 179 100 q 176 98 179 98 l 179 92 l 179 64 q 121 0 179 0 q 26 39 26 2 q 20 50 22 39 q 28 220 20 78 l 28 387 q 35 454 28 391 l 35 537 q 37 634 35 596 q 35 724 35 659 l 35 740 q 31 785 35 756 q 81 835 40 835 q 112 838 97 838 m 194 1118 q 254 1085 239 1118 l 254 1069 q 197 952 254 1055 q 126 879 166 879 l 83 879 q 45 914 45 890 q 96 1023 45 937 q 183 1118 130 1118 l 194 1118 z "},"":{"ha":226,"x_min":-129,"x_max":395,"o":"m 112 838 q 190 799 180 838 q 193 774 193 783 l 193 760 q 187 693 193 755 l 187 359 q 176 134 181 134 q 179 123 179 129 l 176 117 q 179 106 179 112 l 179 100 q 176 98 179 98 l 179 92 l 179 64 q 121 0 179 0 q 26 39 26 2 q 20 50 22 39 q 28 220 20 78 l 28 387 q 35 454 28 391 l 35 537 q 37 634 35 596 q 35 724 35 659 l 35 740 q 31 785 35 756 q 81 835 40 835 q 112 838 97 838 m 149 1141 q 309 1021 175 1141 q 395 932 395 978 l 395 920 q 353 860 395 860 q 267 915 335 860 q 134 999 170 985 q 30 930 134 996 q -84 852 -68 852 l -92 852 q -129 912 -129 852 l -129 924 q -54 1006 -129 968 q 97 1126 43 1089 q 149 1141 132 1141 z "},"":{"ha":226,"x_min":-114,"x_max":319,"o":"m 112 838 q 190 799 180 838 q 193 774 193 783 l 193 760 q 187 693 193 755 l 187 359 q 176 134 181 134 q 179 123 179 129 l 176 117 q 179 106 179 112 l 179 100 q 176 98 179 98 l 179 92 l 179 64 q 121 0 179 0 q 26 39 26 2 q 20 50 22 39 q 28 220 20 78 l 28 387 q 35 454 28 391 l 35 537 q 37 634 35 596 q 35 724 35 659 l 35 740 q 31 785 35 756 q 81 835 40 835 q 112 838 97 838 m 229 1082 l 238 1082 q 319 1017 319 1082 l 319 945 q 282 888 319 911 l 160 888 q 125 948 130 888 q 138 1036 134 986 q 229 1082 150 1082 m -67 1078 l 33 1078 q 77 1025 64 1078 l 77 938 q -14 879 77 885 l -36 879 q -114 926 -99 879 l -114 951 q -86 1063 -104 1063 q -67 1078 -86 1067 z "},"":{"ha":1408,"x_min":58,"x_max":1344,"o":"m 702 1126 q 1152 934 952 1126 q 1274 759 1238 838 q 1344 461 1344 610 l 1344 437 q 1153 -33 1344 178 q 702 -228 954 -228 q 238 -21 440 -228 q 58 451 58 184 q 248 929 58 722 q 702 1126 446 1126 m 684 1095 q 687 1021 687 1042 q 688 1016 688 1017 l 682 1011 l 670 1011 q 663 1089 663 1011 q 661 1094 661 1089 q 639 1092 646 1092 l 634 1092 q 637 1046 636 1082 q 629 1037 635 1046 q 639 1023 639 1032 l 639 1008 q 660 987 639 987 l 663 987 q 713 1001 713 987 q 715 1010 713 1002 q 713 1034 713 1025 q 722 1043 715 1034 q 712 1052 718 1043 l 712 1055 q 711 1095 712 1067 l 684 1095 m 760 1092 q 755 1069 758 1088 q 783 1062 783 1067 q 769 1036 783 1042 q 777 1026 771 1036 q 769 983 770 985 q 795 979 779 983 q 814 1028 800 1028 l 806 1038 q 810 1061 808 1054 q 838 1056 834 1056 l 838 1058 q 841 1079 838 1063 q 760 1092 770 1092 m 516 1052 q 524 1019 516 1042 q 518 1011 522 1019 l 518 1008 q 536 977 530 1008 q 553 966 543 966 q 608 989 608 977 l 608 995 q 603 1019 608 1002 q 576 1011 579 1011 q 579 998 579 1004 q 559 994 572 994 q 555 1015 555 1003 q 559 1023 559 1016 q 545 1047 547 1023 q 563 1053 549 1050 q 567 1041 567 1048 l 594 1048 q 573 1079 589 1079 l 567 1079 q 516 1052 516 1071 m 876 1067 q 869 1047 869 1049 q 895 1036 895 1038 q 875 1011 888 1011 q 880 1000 880 1004 q 866 959 866 965 q 890 950 886 950 q 917 995 903 995 q 912 1007 912 1002 q 922 1026 918 1026 q 945 1017 941 1017 l 954 1038 q 876 1068 885 1067 l 876 1067 m 389 1006 q 410 964 408 972 l 407 953 q 430 929 422 953 q 440 913 431 929 q 500 955 500 940 q 485 987 500 963 q 488 1000 488 993 q 469 1019 474 1000 q 446 1034 461 1034 q 389 1006 440 1034 m 995 1016 q 968 977 972 977 q 959 975 960 975 q 962 965 959 972 q 938 926 938 928 q 1000 887 996 887 q 1010 907 1010 901 q 972 934 976 928 q 983 945 981 945 l 984 945 l 1010 929 q 1023 949 1013 930 q 996 968 996 963 q 1006 981 1002 979 q 1044 956 1008 979 q 1057 975 1047 957 q 995 1016 1054 977 m 443 1006 q 470 959 445 1006 l 470 958 q 452 947 460 947 q 425 998 431 984 q 443 1006 439 1006 m 291 918 q 313 884 291 910 l 311 874 l 322 874 q 353 848 345 848 q 399 886 369 848 l 401 893 q 380 925 401 900 l 380 926 l 382 935 l 372 935 q 337 962 347 962 q 292 925 323 962 l 291 918 m 1095 943 q 1062 910 1095 941 l 1055 911 l 1051 911 l 1051 899 l 1021 868 q 1040 850 1021 866 l 1062 871 l 1063 871 q 1055 833 1055 836 l 1076 814 l 1086 852 q 1098 848 1097 848 l 1101 848 q 1139 884 1114 848 l 1139 889 q 1095 943 1139 903 m 332 932 l 336 932 q 372 892 347 922 l 372 889 q 359 878 372 887 l 357 878 q 321 919 346 887 l 321 922 q 332 932 321 923 m 413 672 l 414 662 l 414 584 q 374 515 374 569 q 394 412 374 458 q 425 354 397 411 q 448 321 448 326 l 448 318 l 446 307 q 452 269 448 290 q 449 245 449 260 q 450 233 450 234 l 449 230 q 461 178 454 178 q 476 144 476 165 q 503 113 481 130 q 528 92 513 92 q 552 55 552 58 q 591 5 572 5 q 603 -23 599 5 q 640 -47 614 -39 q 690 -71 652 -61 q 700 -72 699 -71 q 777 -66 723 -68 q 808 -50 793 -60 q 856 -26 831 -50 q 908 30 902 -26 q 935 106 920 45 q 960 174 960 134 q 969 204 969 188 l 969 215 q 983 264 983 249 q 978 282 981 277 q 979 306 979 297 l 979 312 q 978 319 979 317 q 979 330 979 326 q 962 394 979 357 q 964 410 963 410 l 963 414 l 963 429 q 956 465 963 442 q 968 490 968 474 l 966 500 q 974 541 974 519 l 974 549 q 979 575 979 566 l 966 621 l 968 645 q 944 729 968 664 q 881 817 922 779 q 808 878 850 864 q 648 910 713 910 l 636 910 q 549 892 602 910 q 480 848 519 881 q 424 753 447 806 q 413 672 418 730 m 1098 907 q 1111 890 1111 897 l 1095 876 l 1092 876 q 1080 887 1090 876 l 1080 889 q 1098 907 1080 891 m 621 895 q 795 867 720 895 q 863 819 854 835 q 903 751 881 804 q 944 648 925 727 l 944 647 q 942 618 944 642 q 951 581 948 601 q 956 576 954 581 l 956 574 q 948 562 956 563 l 951 547 q 938 496 951 522 q 944 491 944 495 l 944 487 q 939 482 944 485 l 930 482 q 926 469 930 477 q 941 424 932 469 l 941 418 q 938 385 938 395 q 954 343 947 374 q 956 332 954 342 l 954 321 q 957 303 957 306 q 951 282 957 300 q 959 262 959 269 q 945 219 959 255 q 937 173 945 194 q 922 127 937 149 q 901 71 911 119 q 882 30 901 68 l 882 28 q 884 22 882 27 q 857 -2 876 -2 q 818 -24 844 -2 q 777 -41 798 -24 l 702 -48 l 700 -48 q 655 -31 686 -48 q 629 -17 655 -24 q 623 4 623 -10 q 624 19 623 6 q 585 43 585 28 q 574 65 574 56 q 578 75 574 68 q 543 115 565 75 q 519 130 526 115 q 503 146 519 134 l 491 182 q 475 221 475 189 q 473 233 473 227 l 473 234 q 475 236 473 236 l 473 239 q 475 275 475 272 q 470 312 470 304 l 471 319 l 467 342 q 409 439 452 347 q 398 512 398 482 l 398 518 q 430 564 398 555 l 440 564 l 440 566 q 437 611 440 587 q 439 637 439 625 q 437 672 439 652 q 501 840 437 777 q 579 889 535 875 q 621 895 583 889 m 452 688 q 454 684 452 687 q 450 668 450 676 q 452 635 450 657 q 450 610 450 614 q 454 562 454 572 q 490 532 490 548 l 491 532 q 498 542 491 538 l 501 542 l 511 534 q 537 538 531 538 l 542 532 l 542 529 q 522 409 522 446 q 534 373 530 393 q 552 351 552 364 q 572 327 572 348 l 589 328 l 610 327 q 625 333 621 333 q 630 328 627 333 q 627 315 627 317 q 630 302 630 305 q 629 297 629 298 q 646 275 646 286 l 646 269 q 666 246 660 269 q 661 222 661 228 q 663 210 663 214 l 664 210 q 706 281 678 243 q 736 337 724 309 l 741 337 q 745 332 745 337 q 722 285 743 315 l 724 285 q 760 302 759 293 q 766 303 763 302 q 787 302 779 302 q 805 307 789 302 l 805 309 l 800 309 q 781 306 794 309 q 751 330 751 313 l 751 334 q 755 343 752 343 l 760 343 q 764 327 763 343 q 778 319 772 319 q 802 322 797 322 q 850 306 835 306 q 875 336 875 306 q 857 409 875 378 q 848 475 848 448 l 848 478 q 881 529 848 497 q 926 574 892 529 q 938 579 928 574 q 929 618 935 602 q 930 642 930 633 l 930 645 q 905 726 919 701 l 880 771 q 854 806 869 780 q 778 857 817 844 q 666 882 696 882 l 651 882 l 642 880 q 636 882 640 882 q 537 848 550 869 q 485 795 511 827 q 452 688 452 756 m 208 819 q 237 790 208 812 q 238 780 238 784 l 252 781 q 285 764 270 764 q 322 808 308 779 l 322 814 q 295 842 322 824 l 295 853 l 292 853 l 281 852 q 249 871 260 871 q 208 825 233 871 l 208 819 m 597 854 q 616 837 616 848 l 616 832 q 582 810 614 826 l 576 810 q 561 827 561 816 l 561 829 q 597 854 561 846 m 573 825 l 576 823 l 581 823 l 603 837 q 594 841 602 841 q 573 825 573 836 m 248 841 l 252 841 q 294 806 291 813 q 283 793 288 795 l 280 793 q 237 827 237 823 q 248 841 243 839 m 530 806 l 534 806 q 548 793 548 805 l 548 787 q 528 758 548 781 q 491 702 519 702 q 479 722 479 707 l 479 735 q 521 804 479 772 q 530 806 526 806 m 1095 791 l 1095 790 q 1105 774 1095 781 l 1111 774 q 1120 781 1120 779 l 1120 784 q 1107 801 1116 801 q 1095 791 1095 795 m 491 733 l 491 722 l 492 714 l 495 714 q 518 765 507 714 q 537 789 532 781 l 537 791 q 533 796 537 794 q 497 759 513 788 q 491 733 491 745 m 1180 768 q 1169 769 1175 769 q 1126 739 1169 757 q 1160 672 1154 689 q 1181 684 1177 680 l 1160 726 l 1175 733 q 1190 705 1190 709 q 1211 714 1194 705 q 1198 743 1211 720 l 1198 744 q 1213 751 1198 747 l 1214 751 q 1235 711 1221 733 q 1255 720 1252 720 q 1220 787 1255 727 q 1180 768 1184 768 m 167 768 q 157 744 167 764 q 228 713 222 717 l 228 711 q 218 696 223 696 q 203 711 205 696 q 191 707 195 707 l 149 724 l 140 699 l 140 698 q 184 671 184 684 l 184 669 q 197 673 192 673 q 208 668 208 672 q 201 651 205 651 l 199 651 l 130 678 l 130 677 q 120 652 120 656 q 165 630 165 637 l 165 626 l 167 626 q 178 629 168 626 l 198 621 q 237 662 237 635 q 233 673 237 665 q 253 694 248 680 q 256 703 253 699 q 238 739 248 739 q 222 756 222 744 q 212 751 214 751 l 168 768 l 167 768 m 1240 675 q 1219 659 1240 668 l 1216 648 l 1216 647 q 1223 614 1216 637 q 1210 610 1217 610 q 1202 627 1205 610 q 1213 633 1213 631 q 1205 657 1205 655 q 1177 637 1177 652 l 1177 629 q 1206 579 1184 579 l 1214 581 q 1223 575 1214 578 q 1246 593 1223 583 l 1249 604 l 1249 605 q 1241 637 1249 615 q 1256 644 1250 644 q 1262 626 1262 635 q 1252 621 1261 621 l 1259 595 q 1289 617 1289 600 q 1261 672 1280 672 l 1257 672 q 1252 671 1254 672 q 1240 675 1246 675 m 788 672 q 841 659 801 672 l 844 659 q 873 668 848 659 q 878 663 876 668 l 878 659 q 838 645 878 652 q 800 657 831 645 l 787 659 l 764 654 l 763 654 q 760 657 760 654 l 760 662 q 788 672 760 669 m 660 663 l 664 663 q 712 648 673 663 q 730 642 730 646 l 730 637 q 721 633 728 633 q 670 650 710 633 q 664 651 664 650 q 630 635 650 651 l 625 635 q 621 640 623 635 l 621 644 q 660 663 641 663 m 664 625 l 669 625 q 707 615 707 621 q 702 608 705 608 l 692 608 q 666 612 687 608 q 621 583 642 612 l 619 583 q 614 587 614 585 l 614 589 q 664 625 627 625 m 827 608 l 831 608 q 884 605 836 608 l 884 604 l 899 606 q 905 602 905 604 l 905 597 q 890 590 905 593 q 836 595 848 595 l 835 595 q 812 593 827 595 l 810 596 l 810 600 q 827 608 810 606 m 654 590 l 660 590 q 748 569 686 590 q 784 536 784 547 l 784 530 q 770 522 779 522 l 768 522 q 713 542 760 522 q 684 544 701 542 q 680 539 684 541 l 664 539 q 602 524 654 539 l 599 524 l 594 530 q 630 579 595 541 q 654 590 643 590 m 419 545 l 419 544 q 488 467 469 544 l 490 467 l 490 472 q 488 478 490 475 q 490 509 490 479 q 475 538 482 509 q 440 551 457 551 l 434 551 q 419 545 431 551 m 935 549 q 880 512 930 539 l 872 500 l 873 500 q 895 505 884 505 l 899 505 q 924 498 908 505 q 938 548 938 519 l 935 549 m 412 529 l 412 508 q 443 400 412 446 q 473 355 454 370 q 479 370 479 366 l 479 378 l 471 420 q 480 463 477 455 q 467 496 475 463 q 425 532 444 532 q 412 529 423 532 m 137 530 l 137 502 l 132 496 l 137 490 l 137 463 l 152 463 l 152 491 l 155 491 l 167 465 q 180 490 170 465 l 183 490 l 183 463 l 198 463 l 198 490 l 203 496 l 198 502 l 198 530 l 184 530 q 170 502 182 530 l 165 502 q 153 530 165 505 l 137 530 m 219 530 l 219 503 q 213 496 219 503 q 219 486 219 494 l 219 463 l 233 463 l 233 491 l 234 491 q 248 465 237 491 l 264 491 l 265 491 l 265 463 l 279 463 l 279 490 l 285 497 q 279 502 279 497 l 279 530 l 265 530 q 250 502 262 530 l 249 502 q 234 530 245 502 l 219 530 m 295 530 l 295 529 q 311 497 295 527 q 295 463 295 465 l 311 463 q 319 476 315 463 l 321 476 q 328 463 324 476 l 346 463 l 346 465 q 331 497 331 493 l 346 530 l 328 530 q 321 517 324 517 l 319 517 q 311 530 315 530 l 295 530 m 1000 530 l 1000 503 q 995 496 995 496 q 1000 486 1000 494 l 1000 463 l 1014 463 l 1014 491 l 1015 491 q 1029 465 1019 491 l 1045 491 l 1047 491 l 1047 463 l 1060 463 l 1060 490 l 1066 497 q 1060 502 1060 497 l 1060 530 l 1047 530 q 1032 502 1044 530 l 1030 502 q 1015 530 1027 502 l 1000 530 m 1081 530 l 1081 503 l 1076 496 q 1081 486 1081 494 l 1081 463 l 1095 463 l 1095 491 l 1096 491 q 1109 465 1100 491 l 1126 491 l 1128 491 l 1128 463 l 1141 463 l 1141 490 l 1147 497 q 1141 502 1141 497 l 1141 530 l 1128 530 q 1113 502 1124 530 l 1111 502 q 1096 530 1108 502 l 1081 530 m 1158 530 q 1174 496 1174 498 l 1158 463 l 1174 463 q 1181 476 1177 463 l 1183 476 q 1190 463 1186 476 l 1210 463 q 1194 497 1194 494 l 1210 530 l 1190 530 q 1183 517 1186 517 l 1181 517 q 1174 530 1177 530 l 1158 530 m 1221 530 q 1238 496 1238 498 l 1221 463 l 1238 463 q 1246 476 1242 463 l 1247 476 q 1255 463 1251 476 l 1274 463 q 1257 497 1257 494 l 1274 530 l 1255 530 q 1247 517 1251 517 l 1246 517 q 1238 530 1242 530 l 1221 530 m 692 527 q 737 512 734 522 l 737 508 q 733 503 737 506 q 694 514 709 514 l 692 514 q 652 497 652 507 q 648 493 649 493 l 644 493 q 639 502 639 494 q 692 527 639 517 m 440 511 q 449 503 446 509 l 443 454 q 454 427 446 427 l 460 430 q 465 426 465 428 l 465 421 q 458 414 465 419 l 452 414 q 430 454 435 414 q 434 493 434 481 l 434 498 l 433 507 q 440 511 437 511 m 699 508 q 754 481 730 508 l 754 476 q 697 451 734 451 q 645 482 645 460 l 645 486 q 699 508 667 508 m 763 502 l 768 502 q 784 478 784 489 q 775 463 782 463 q 769 467 769 465 l 769 481 l 758 493 l 758 497 q 763 502 758 499 m 702 494 q 705 486 705 490 l 705 478 q 702 465 705 474 l 703 465 q 736 481 736 468 q 702 494 718 494 m 896 493 q 899 484 899 487 q 893 467 897 475 l 895 467 q 918 487 918 467 q 896 493 907 493 m 660 482 l 660 479 l 661 479 l 661 482 l 660 482 m 861 478 l 861 472 q 865 469 862 469 l 865 471 l 863 478 l 861 478 m 458 472 q 467 469 462 472 q 464 452 464 458 l 465 439 l 460 436 q 449 454 452 436 q 458 472 452 472 m 758 466 l 763 466 q 768 461 765 466 l 768 460 q 741 418 768 448 l 739 418 q 732 426 735 418 l 754 457 q 758 466 755 466 m 880 454 l 869 454 l 861 456 q 886 372 863 426 q 887 340 887 352 l 887 334 q 881 312 887 321 q 909 292 888 312 l 911 292 q 918 343 911 295 l 927 429 q 923 442 926 442 q 897 400 923 418 l 895 400 q 890 405 892 400 l 890 408 q 912 454 912 429 l 912 458 q 880 454 894 454 m 805 437 l 810 437 q 815 426 814 437 l 814 418 l 818 397 l 818 394 q 809 390 817 390 q 800 430 802 390 l 800 433 q 805 437 800 435 m 633 436 l 639 436 q 684 414 659 414 l 691 414 q 724 421 699 414 l 726 418 l 726 412 q 690 400 716 400 q 630 431 630 408 l 630 433 q 633 436 631 436 m 1225 426 q 1223 400 1223 408 q 1242 387 1227 400 q 1220 375 1242 385 l 1217 351 q 1267 373 1263 373 l 1272 373 l 1280 366 q 1286 372 1282 366 l 1297 370 l 1302 370 l 1302 379 l 1304 390 q 1283 399 1289 390 q 1276 393 1276 395 q 1238 416 1265 393 l 1225 426 m 153 415 q 134 403 153 409 l 131 393 q 132 369 132 371 q 123 366 127 366 l 122 366 q 117 380 118 366 q 126 384 121 384 q 123 405 125 405 q 99 390 99 405 q 116 345 99 345 q 127 339 120 345 q 147 349 127 345 l 152 363 q 149 384 152 366 q 161 388 155 388 q 165 373 163 385 q 156 369 156 370 q 157 349 156 368 l 159 349 q 183 364 183 349 q 165 409 183 409 q 155 415 161 409 l 153 415 m 768 403 l 772 403 q 777 399 774 403 q 758 360 766 360 l 755 360 q 751 366 753 360 q 768 403 764 401 m 787 369 q 806 357 806 363 l 806 353 q 803 349 806 349 l 800 349 q 781 360 781 355 l 781 364 q 787 369 781 368 m 1204 288 q 1241 275 1241 280 l 1241 272 l 1249 276 q 1283 272 1273 272 l 1287 290 q 1265 294 1269 294 l 1265 296 q 1292 307 1267 298 l 1297 328 q 1267 321 1272 321 q 1234 342 1267 337 l 1226 342 q 1204 288 1211 342 m 152 326 q 146 330 152 328 q 111 313 146 320 q 110 312 110 313 q 116 294 113 294 q 141 298 134 298 q 156 266 146 266 l 157 266 q 199 285 199 269 l 199 288 l 189 333 q 152 326 159 326 m 1231 319 q 1249 312 1249 319 q 1244 300 1248 300 q 1226 307 1226 302 q 1231 319 1227 319 m 176 307 q 180 292 180 299 q 161 288 175 288 q 156 303 156 297 q 176 307 169 307 m 1181 224 q 1210 203 1181 211 q 1214 194 1213 194 q 1223 199 1221 199 q 1246 191 1229 195 q 1270 233 1261 191 l 1270 236 q 1242 255 1270 247 q 1238 262 1242 262 l 1234 260 l 1231 260 l 1205 267 q 1181 224 1192 267 m 174 254 q 165 256 170 254 q 152 243 165 250 q 131 233 131 239 q 138 216 137 216 q 167 227 162 227 q 174 209 170 227 q 146 199 147 199 l 146 197 q 153 179 150 179 q 186 189 181 189 q 193 188 188 188 q 228 208 193 197 l 228 210 q 207 266 212 250 q 174 254 178 254 m 1208 243 q 1249 230 1215 243 l 1249 229 q 1242 214 1246 214 q 1202 230 1202 228 q 1208 243 1205 243 m 197 239 q 204 221 200 235 q 192 216 195 216 q 184 234 186 224 q 197 239 193 239 m 805 215 l 802 216 q 773 210 793 212 q 753 201 767 201 q 743 204 750 201 q 732 200 735 200 q 734 197 732 197 l 760 197 q 854 222 854 207 q 831 224 839 224 l 830 224 q 805 215 810 215 m 1173 206 l 1144 149 q 1160 143 1154 143 q 1168 159 1168 157 l 1169 159 q 1187 143 1187 157 q 1196 146 1192 146 q 1226 131 1200 146 l 1227 131 q 1235 151 1235 148 q 1204 174 1204 163 q 1195 172 1198 172 q 1180 180 1180 178 q 1187 200 1187 193 q 1173 206 1177 206 m 204 176 q 195 179 201 176 q 163 153 195 167 q 174 136 170 140 q 210 153 205 153 q 188 113 203 138 q 197 94 188 109 l 227 111 q 235 109 228 109 q 262 130 235 119 q 267 136 267 133 q 259 151 259 149 l 223 134 l 223 136 l 244 173 q 234 193 244 180 l 204 176 m 836 178 q 842 153 838 153 l 845 153 q 850 163 850 155 l 850 168 q 844 179 850 176 l 839 179 l 836 178 m 812 172 q 808 155 809 168 q 815 144 810 144 q 820 146 818 146 l 820 164 q 821 165 820 165 q 812 172 820 172 m 779 164 l 781 149 l 781 140 q 785 136 781 138 l 788 136 q 791 138 791 136 l 791 158 l 790 165 l 783 165 l 779 164 m 1138 140 l 1103 91 q 1132 68 1103 90 l 1132 61 l 1141 62 q 1169 43 1151 56 l 1171 43 q 1181 60 1171 45 l 1156 79 q 1168 94 1164 94 q 1192 77 1175 90 l 1195 77 q 1205 94 1195 79 q 1177 115 1177 112 l 1177 122 l 1175 122 l 1165 121 q 1138 140 1162 125 m 833 106 q 836 103 833 103 l 844 103 q 846 127 846 119 q 845 131 845 130 l 839 131 q 833 106 833 131 m 250 98 l 241 100 q 223 80 241 87 q 213 71 223 79 q 225 55 223 55 l 253 75 l 262 73 l 262 80 l 291 103 q 280 119 280 117 q 250 98 279 119 m 794 106 l 794 92 q 798 90 795 90 l 802 90 q 806 109 806 90 l 806 118 l 799 118 q 794 106 794 117 m 1141 112 l 1143 112 q 1152 104 1152 106 q 1139 90 1143 91 q 1131 97 1131 95 l 1131 98 q 1141 112 1139 111 m 289 75 l 283 75 l 280 76 q 273 56 280 64 l 273 50 q 289 25 273 43 l 289 24 q 281 16 289 22 l 280 16 q 271 26 277 16 l 271 28 l 276 34 q 262 49 263 49 q 249 35 250 40 l 249 30 q 279 -6 249 17 l 288 -6 q 298 -2 293 -2 l 300 -2 l 302 -3 q 311 16 302 6 l 311 22 q 295 47 311 29 l 295 49 q 302 56 295 51 l 304 56 q 313 43 313 51 q 309 39 311 43 q 322 24 309 38 q 336 41 336 33 l 336 43 q 306 79 336 56 l 300 79 q 289 75 294 79 m 817 76 l 817 64 l 818 56 l 823 56 q 829 67 829 59 l 829 70 q 824 79 829 77 l 820 79 q 817 76 817 79 m 1056 37 l 1056 34 q 1081 12 1059 34 l 1081 4 l 1088 4 q 1114 -18 1090 4 l 1117 -18 q 1129 -3 1117 -16 q 1111 12 1114 12 l 1111 14 l 1141 9 l 1156 25 q 1126 34 1133 31 q 1129 45 1129 40 q 1098 73 1109 73 l 1095 73 q 1056 37 1086 73 m 787 25 l 790 24 l 794 24 q 803 46 798 26 q 802 50 802 49 l 794 50 q 787 25 790 50 m 1095 50 q 1107 40 1101 48 l 1107 35 q 1098 26 1107 33 q 1083 40 1083 38 q 1095 50 1090 50 m 814 20 l 814 14 q 818 10 814 12 l 821 10 q 827 30 825 10 l 823 33 l 820 33 q 814 20 816 33 m 322 3 l 323 -1 l 323 -8 l 302 -33 q 319 -47 315 -46 q 340 -23 333 -28 q 353 -35 353 -33 l 353 -36 q 334 -60 341 -50 l 334 -62 q 351 -74 336 -62 q 373 -47 351 -71 l 380 -47 l 380 -38 q 401 -9 401 -12 l 387 3 l 385 3 q 366 -21 385 -1 q 352 -9 352 -11 l 352 -8 q 370 14 352 -7 l 370 16 q 357 28 370 17 l 355 28 q 328 3 334 3 l 322 3 m 1004 -14 l 1004 -17 q 1019 -41 1004 -22 l 1019 -47 l 1017 -50 q 1035 -58 1029 -50 q 1045 -69 1035 -63 l 1051 -69 q 1087 -41 1064 -69 q 1088 -36 1088 -38 q 1074 -12 1088 -30 l 1074 -6 l 1076 -3 q 1053 13 1062 -3 q 1040 19 1046 19 q 1004 -14 1004 -1 m 1040 -3 q 1065 -39 1065 -34 q 1056 -47 1057 -47 l 1053 -47 q 1026 -16 1051 -46 l 1026 -12 q 1040 -3 1034 -3 m 939 -48 l 939 -51 l 956 -78 l 954 -89 q 977 -114 966 -89 q 979 -119 979 -114 q 1026 -84 1026 -98 l 1026 -81 q 1008 -51 1026 -74 q 985 -24 998 -24 q 939 -48 979 -24 m 981 -47 q 985 -56 985 -48 q 972 -64 979 -64 l 966 -54 q 981 -47 976 -47 m 464 -51 q 440 -84 452 -84 q 443 -93 443 -89 q 430 -124 443 -96 l 431 -124 q 449 -132 445 -132 l 461 -105 l 463 -105 q 486 -115 467 -105 q 494 -99 486 -113 q 470 -87 484 -96 q 477 -75 475 -75 q 511 -90 506 -90 l 512 -90 q 518 -75 512 -85 q 464 -50 465 -50 l 464 -51 m 866 -83 q 880 -115 880 -111 q 876 -123 880 -118 q 897 -157 887 -123 q 917 -149 917 -152 q 906 -119 906 -125 q 923 -113 922 -113 q 938 -141 936 -141 l 956 -134 l 942 -104 l 945 -93 q 924 -58 935 -93 q 866 -83 921 -58 m 995 -74 l 998 -74 q 1004 -81 1000 -74 l 1004 -83 q 990 -93 1002 -87 l 984 -84 l 984 -81 q 995 -74 984 -79 m 507 -117 q 511 -126 511 -122 q 506 -145 506 -142 l 506 -149 q 545 -170 506 -163 l 551 -170 q 568 -142 563 -170 q 576 -138 576 -139 q 573 -129 573 -133 q 579 -105 579 -107 q 533 -83 579 -90 q 515 -113 523 -83 q 507 -117 507 -115 m 911 -84 l 912 -84 q 916 -96 916 -94 l 899 -104 q 893 -92 895 -99 q 911 -84 905 -84 m 805 -100 l 812 -134 l 808 -141 l 808 -142 q 824 -178 819 -142 l 825 -178 l 878 -165 q 873 -149 873 -151 l 841 -156 q 836 -138 836 -145 q 841 -132 838 -138 q 825 -99 830 -132 q 824 -94 824 -99 q 805 -100 805 -98 m 597 -100 q 585 -139 593 -139 q 583 -141 583 -139 q 589 -149 587 -142 l 585 -181 l 587 -181 q 606 -182 587 -181 l 606 -181 l 610 -144 l 612 -144 q 633 -187 614 -147 q 652 -190 648 -190 q 664 -153 652 -157 q 659 -145 661 -146 l 664 -109 l 644 -106 q 636 -145 640 -145 q 614 -102 618 -102 q 597 -100 603 -100 m 542 -104 q 557 -109 557 -105 q 541 -150 546 -150 q 528 -144 528 -147 q 542 -104 538 -104 m 670 -109 l 670 -127 l 691 -127 q 694 -130 694 -128 l 694 -139 q 687 -151 694 -146 l 687 -153 q 694 -159 691 -153 l 694 -192 l 715 -192 l 715 -157 l 721 -151 l 713 -142 l 713 -129 q 717 -126 714 -126 l 736 -126 l 736 -109 l 670 -109 z "},"":{"ha":564,"x_min":8,"x_max":529,"o":"m 452 852 q 525 789 525 842 l 525 705 q 511 464 514 584 q 514 442 514 449 q 509 361 509 410 l 509 279 q 506 125 509 227 l 503 125 q 506 122 503 122 q 476 27 506 37 q 427 19 463 19 l 425 19 q 346 87 346 19 q 294 176 334 115 q 197 382 243 298 l 186 382 q 178 350 178 354 q 180 320 180 332 l 180 290 q 172 217 180 277 l 172 57 q 88 0 172 0 l 75 0 q 20 38 28 0 q 28 152 24 152 q 26 155 28 155 q 31 182 28 177 q 28 342 28 288 l 28 450 q 31 743 28 556 q 26 776 26 769 q 72 827 33 827 l 72 825 l 77 827 l 115 827 q 191 760 174 827 q 289 524 258 616 q 346 415 336 416 l 351 415 q 362 572 359 415 q 359 616 359 588 l 362 616 l 359 621 l 359 632 q 362 635 359 635 l 357 654 q 368 817 364 691 q 452 852 382 852 m 423 1050 l 494 1040 q 529 1006 511 1038 l 526 989 q 377 882 519 934 l 357 882 q 258 925 346 883 q 239 931 254 929 q 131 884 219 934 q 101 885 113 883 l 88 886 q 15 949 8 898 l 16 953 q 119 1034 21 990 q 226 1071 175 1072 l 261 1066 l 342 1035 l 349 1034 q 423 1050 357 1033 z "},"":{"ha":561,"x_min":20,"x_max":527,"o":"m 149 834 l 239 834 q 443 798 443 817 q 516 711 488 774 q 527 568 516 697 q 522 395 522 429 l 522 255 q 513 171 522 197 l 513 134 q 415 12 513 45 q 275 0 376 6 l 272 0 q 77 34 163 0 q 28 120 31 79 q 32 123 32 120 l 26 126 q 20 308 23 277 l 32 593 l 32 635 q 71 795 32 746 q 149 834 114 834 m 160 442 l 160 387 q 157 286 160 329 q 160 199 160 267 q 231 149 160 154 q 269 143 245 149 q 378 193 378 153 q 381 233 381 217 l 381 269 l 378 288 l 381 288 q 373 367 373 331 q 376 448 373 387 q 373 465 376 450 q 376 498 376 484 l 373 543 q 378 608 378 573 l 378 624 q 283 697 378 688 l 219 697 q 174 630 174 697 q 160 442 174 605 m 203 1133 q 279 1078 259 1133 q 345 956 300 1027 q 350 924 350 932 q 312 894 332 894 l 269 894 q 174 1016 224 894 q 141 1084 141 1064 l 141 1100 q 203 1133 155 1133 z "},"":{"ha":561,"x_min":20,"x_max":527,"o":"m 149 834 l 239 834 q 443 798 443 817 q 516 711 488 774 q 527 568 516 697 q 522 395 522 429 l 522 255 q 513 171 522 197 l 513 134 q 415 12 513 45 q 275 0 376 6 l 272 0 q 77 34 163 0 q 28 120 31 79 q 32 123 32 120 l 26 126 q 20 308 23 277 l 32 593 l 32 635 q 71 795 32 746 q 149 834 114 834 m 160 442 l 160 387 q 157 286 160 329 q 160 199 160 267 q 231 149 160 154 q 269 143 245 149 q 378 193 378 153 q 381 233 381 217 l 381 269 l 378 288 l 381 288 q 373 367 373 331 q 376 448 373 387 q 373 465 376 450 q 376 498 376 484 l 373 543 q 378 608 378 573 l 378 624 q 283 697 378 688 l 219 697 q 174 630 174 697 q 160 442 174 605 m 334 1130 q 394 1097 379 1130 l 394 1081 q 337 964 394 1067 q 267 891 307 891 l 223 891 q 185 926 185 903 q 237 1035 185 949 q 323 1130 271 1130 l 334 1130 z "},"":{"ha":561,"x_min":20,"x_max":551,"o":"m 149 834 l 239 834 q 443 798 443 817 q 516 711 488 774 q 527 568 516 697 q 522 395 522 429 l 522 255 q 513 171 522 197 l 513 134 q 415 12 513 45 q 275 0 376 6 l 272 0 q 77 34 163 0 q 28 120 31 79 q 32 123 32 120 l 26 126 q 20 308 23 277 l 32 593 l 32 635 q 71 795 32 746 q 149 834 114 834 m 160 442 l 160 387 q 157 286 160 329 q 160 199 160 267 q 231 149 160 154 q 269 143 245 149 q 378 193 378 153 q 381 233 381 217 l 381 269 l 378 288 l 381 288 q 373 367 373 331 q 376 448 373 387 q 373 465 376 450 q 376 498 376 484 l 373 543 q 378 608 378 573 l 378 624 q 283 697 378 688 l 219 697 q 174 630 174 697 q 160 442 174 605 m 305 1141 q 465 1021 331 1141 q 551 932 551 978 l 551 920 q 509 860 551 860 q 422 915 491 860 q 290 999 326 985 q 186 930 290 996 q 72 852 87 852 l 64 852 q 27 912 27 852 l 27 924 q 102 1006 27 968 q 253 1126 199 1089 q 305 1141 288 1141 z "},"":{"ha":561,"x_min":20,"x_max":528,"o":"m 149 834 l 239 834 q 443 798 443 817 q 516 711 488 774 q 527 568 516 697 q 522 395 522 429 l 522 255 q 513 171 522 197 l 513 134 q 415 12 513 45 q 275 0 376 6 l 272 0 q 77 34 163 0 q 28 120 31 79 q 32 123 32 120 l 26 126 q 20 308 23 277 l 32 593 l 32 635 q 71 795 32 746 q 149 834 114 834 m 160 442 l 160 387 q 157 286 160 329 q 160 199 160 267 q 231 149 160 154 q 269 143 245 149 q 378 193 378 153 q 381 233 381 217 l 381 269 l 378 288 l 381 288 q 373 367 373 331 q 376 448 373 387 q 373 465 376 450 q 376 498 376 484 l 373 543 q 378 608 378 573 l 378 624 q 283 697 378 688 l 219 697 q 174 630 174 697 q 160 442 174 605 m 422 1078 l 490 1078 q 528 1050 507 1078 l 528 1035 q 401 915 528 981 l 382 911 q 283 939 372 911 q 265 943 279 943 q 170 884 246 943 q 142 881 153 881 l 130 881 q 52 930 52 881 l 52 933 q 138 1023 52 969 q 235 1072 186 1066 l 269 1072 l 349 1054 l 355 1054 q 422 1078 363 1054 z "},"":{"ha":561,"x_min":20,"x_max":527,"o":"m 149 834 l 239 834 q 443 798 443 817 q 516 711 488 774 q 527 568 516 697 q 522 395 522 429 l 522 255 q 513 171 522 197 l 513 134 q 415 12 513 45 q 275 0 376 6 l 272 0 q 77 34 163 0 q 28 120 31 79 q 32 123 32 120 l 26 126 q 20 308 23 277 l 32 593 l 32 635 q 71 795 32 746 q 149 834 114 834 m 160 442 l 160 387 q 157 286 160 329 q 160 199 160 267 q 231 149 160 154 q 269 143 245 149 q 378 193 378 153 q 381 233 381 217 l 381 269 l 378 288 l 381 288 q 373 367 373 331 q 376 448 373 387 q 373 465 376 450 q 376 498 376 484 l 373 543 q 378 608 378 573 l 378 624 q 283 697 378 688 l 219 697 q 174 630 174 697 q 160 442 174 605 m 420 1092 l 429 1092 q 511 1026 511 1092 l 511 954 q 473 899 511 920 l 351 899 q 317 958 321 899 q 330 1045 326 996 q 420 1092 342 1092 m 124 1088 l 224 1088 q 268 1035 256 1088 l 268 947 q 178 888 268 895 l 155 888 q 77 935 92 888 l 77 960 q 106 1072 88 1072 q 124 1088 106 1077 z "},"":{"ha":1408,"x_min":58,"x_max":1344,"o":"m 702 1126 q 1152 934 952 1126 q 1274 759 1238 838 q 1344 461 1344 610 l 1344 437 q 1153 -33 1344 178 q 702 -228 954 -228 q 238 -21 440 -228 q 58 451 58 184 q 248 929 58 722 q 702 1126 446 1126 m 684 1095 q 687 1021 687 1042 q 688 1016 688 1017 l 682 1011 l 670 1011 q 663 1089 663 1011 q 661 1094 661 1089 q 639 1092 646 1092 l 634 1092 q 637 1046 636 1082 q 629 1037 635 1046 q 639 1023 639 1032 l 639 1008 q 660 987 639 987 l 663 987 q 713 1001 713 987 q 715 1010 713 1002 q 713 1034 713 1025 q 722 1043 715 1034 q 712 1052 718 1043 l 712 1055 q 711 1095 712 1067 l 684 1095 m 760 1092 q 755 1069 758 1088 q 783 1062 783 1067 q 769 1036 783 1042 q 777 1026 771 1036 q 769 983 770 985 q 795 979 779 983 q 814 1028 800 1028 l 806 1038 q 810 1061 808 1054 q 838 1056 834 1056 l 838 1058 q 841 1079 838 1063 q 760 1092 770 1092 m 516 1052 q 524 1019 516 1042 q 518 1011 522 1019 l 518 1008 q 536 977 530 1008 q 553 966 543 966 q 608 989 608 977 l 608 995 q 603 1019 608 1002 q 576 1011 579 1011 q 579 998 579 1004 q 559 994 572 994 q 555 1015 555 1003 q 559 1023 559 1016 q 545 1047 547 1023 q 563 1053 549 1050 q 567 1041 567 1048 l 594 1048 q 573 1079 589 1079 l 567 1079 q 516 1052 516 1071 m 876 1067 q 869 1047 869 1049 q 895 1036 895 1038 q 875 1011 888 1011 q 880 1000 880 1004 q 866 959 866 965 q 890 950 886 950 q 917 995 903 995 q 912 1007 912 1002 q 922 1026 918 1026 q 945 1017 941 1017 l 954 1038 q 876 1068 885 1067 l 876 1067 m 389 1006 q 410 964 408 972 l 407 953 q 430 929 422 953 q 440 913 431 929 q 500 955 500 940 q 485 987 500 963 q 488 1000 488 993 q 469 1019 474 1000 q 446 1034 461 1034 q 389 1006 440 1034 m 995 1016 q 968 977 972 977 q 959 975 960 975 q 962 965 959 972 q 938 926 938 928 q 1000 887 996 887 q 1010 907 1010 901 q 972 934 976 928 q 983 945 981 945 l 984 945 l 1010 929 q 1023 949 1013 930 q 996 968 996 963 q 1006 981 1002 979 q 1044 956 1008 979 q 1057 975 1047 957 q 995 1016 1054 977 m 443 1006 q 470 959 445 1006 l 470 958 q 452 947 460 947 q 425 998 431 984 q 443 1006 439 1006 m 291 918 q 313 884 291 910 l 311 874 l 322 874 q 353 848 345 848 q 399 886 369 848 l 401 893 q 380 925 401 900 l 380 926 l 382 935 l 372 935 q 337 962 347 962 q 292 925 323 962 l 291 918 m 1095 943 q 1062 910 1095 941 l 1055 911 l 1051 911 l 1051 899 l 1021 868 q 1040 850 1021 866 l 1062 871 l 1063 871 q 1055 833 1055 836 l 1076 814 l 1086 852 q 1098 848 1097 848 l 1101 848 q 1139 884 1114 848 l 1139 889 q 1095 943 1139 903 m 332 932 l 336 932 q 372 892 347 922 l 372 889 q 359 878 372 887 l 357 878 q 321 919 346 887 l 321 922 q 332 932 321 923 m 413 672 l 414 662 l 414 584 q 374 515 374 569 q 394 412 374 458 q 425 354 397 411 q 448 321 448 326 l 448 318 l 446 307 q 452 269 448 290 q 449 245 449 260 q 450 233 450 234 l 449 230 q 461 178 454 178 q 476 144 476 165 q 503 113 481 130 q 528 92 513 92 q 552 55 552 58 q 591 5 572 5 q 603 -23 599 5 q 640 -47 614 -39 q 690 -71 652 -61 q 700 -72 699 -71 q 777 -66 723 -68 q 808 -50 793 -60 q 856 -26 831 -50 q 908 30 902 -26 q 935 106 920 45 q 960 174 960 134 q 969 204 969 188 l 969 215 q 983 264 983 249 q 978 282 981 277 q 979 306 979 297 l 979 312 q 978 319 979 317 q 979 330 979 326 q 962 394 979 357 q 964 410 963 410 l 963 414 l 963 429 q 956 465 963 442 q 968 490 968 474 l 966 500 q 974 541 974 519 l 974 549 q 979 575 979 566 l 966 621 l 968 645 q 944 729 968 664 q 881 817 922 779 q 808 878 850 864 q 648 910 713 910 l 636 910 q 549 892 602 910 q 480 848 519 881 q 424 753 447 806 q 413 672 418 730 m 1098 907 q 1111 890 1111 897 l 1095 876 l 1092 876 q 1080 887 1090 876 l 1080 889 q 1098 907 1080 891 m 621 895 q 795 867 720 895 q 863 819 854 835 q 903 751 881 804 q 944 648 925 727 l 944 647 q 942 618 944 642 q 951 581 948 601 q 956 576 954 581 l 956 574 q 948 562 956 563 l 951 547 q 938 496 951 522 q 944 491 944 495 l 944 487 q 939 482 944 485 l 930 482 q 926 469 930 477 q 941 424 932 469 l 941 418 q 938 385 938 395 q 954 343 947 374 q 956 332 954 342 l 954 321 q 957 303 957 306 q 951 282 957 300 q 959 262 959 269 q 945 219 959 255 q 937 173 945 194 q 922 127 937 149 q 901 71 911 119 q 882 30 901 68 l 882 28 q 884 22 882 27 q 857 -2 876 -2 q 818 -24 844 -2 q 777 -41 798 -24 l 702 -48 l 700 -48 q 655 -31 686 -48 q 629 -17 655 -24 q 623 4 623 -10 q 624 19 623 6 q 585 43 585 28 q 574 65 574 56 q 578 75 574 68 q 543 115 565 75 q 519 130 526 115 q 503 146 519 134 l 491 182 q 475 221 475 189 q 473 233 473 227 l 473 234 q 475 236 473 236 l 473 239 q 475 275 475 272 q 470 312 470 304 l 471 319 l 467 342 q 409 439 452 347 q 398 512 398 482 l 398 518 q 430 564 398 555 l 440 564 l 440 566 q 437 611 440 587 q 439 637 439 625 q 437 672 439 652 q 501 840 437 777 q 579 889 535 875 q 621 895 583 889 m 452 688 q 454 684 452 687 q 450 668 450 676 q 452 635 450 657 q 450 610 450 614 q 454 562 454 572 q 490 532 490 548 l 491 532 q 498 542 491 538 l 501 542 l 511 534 q 537 538 531 538 l 542 532 l 542 529 q 522 409 522 446 q 534 373 530 393 q 552 351 552 364 q 572 327 572 348 l 589 328 l 610 327 q 625 333 621 333 q 630 328 627 333 q 627 315 627 317 q 630 302 630 305 q 629 297 629 298 q 646 275 646 286 l 646 269 q 666 246 660 269 q 661 222 661 228 q 663 210 663 214 l 664 210 q 706 281 678 243 q 736 337 724 309 l 741 337 q 745 332 745 337 q 722 285 743 315 l 724 285 q 760 302 759 293 q 766 303 763 302 q 787 302 779 302 q 805 307 789 302 l 805 309 l 800 309 q 781 306 794 309 q 751 330 751 313 l 751 334 q 755 343 752 343 l 760 343 q 764 327 763 343 q 778 319 772 319 q 802 322 797 322 q 850 306 835 306 q 875 336 875 306 q 857 409 875 378 q 848 475 848 448 l 848 478 q 881 529 848 497 q 926 574 892 529 q 938 579 928 574 q 929 618 935 602 q 930 642 930 633 l 930 645 q 905 726 919 701 l 880 771 q 854 806 869 780 q 778 857 817 844 q 666 882 696 882 l 651 882 l 642 880 q 636 882 640 882 q 537 848 550 869 q 485 795 511 827 q 452 688 452 756 m 208 819 q 237 790 208 812 q 238 780 238 784 l 252 781 q 285 764 270 764 q 322 808 308 779 l 322 814 q 295 842 322 824 l 295 853 l 292 853 l 281 852 q 249 871 260 871 q 208 825 233 871 l 208 819 m 597 854 q 616 837 616 848 l 616 832 q 582 810 614 826 l 576 810 q 561 827 561 816 l 561 829 q 597 854 561 846 m 573 825 l 576 823 l 581 823 l 603 837 q 594 841 602 841 q 573 825 573 836 m 248 841 l 252 841 q 294 806 291 813 q 283 793 288 795 l 280 793 q 237 827 237 823 q 248 841 243 839 m 530 806 l 534 806 q 548 793 548 805 l 548 787 q 528 758 548 781 q 491 702 519 702 q 479 722 479 707 l 479 735 q 521 804 479 772 q 530 806 526 806 m 1095 791 l 1095 790 q 1105 774 1095 781 l 1111 774 q 1120 781 1120 779 l 1120 784 q 1107 801 1116 801 q 1095 791 1095 795 m 491 733 l 491 722 l 492 714 l 495 714 q 518 765 507 714 q 537 789 532 781 l 537 791 q 533 796 537 794 q 497 759 513 788 q 491 733 491 745 m 1180 768 q 1169 769 1175 769 q 1126 739 1169 757 q 1160 672 1154 689 q 1181 684 1177 680 l 1160 726 l 1175 733 q 1190 705 1190 709 q 1211 714 1194 705 q 1198 743 1211 720 l 1198 744 q 1213 751 1198 747 l 1214 751 q 1235 711 1221 733 q 1255 720 1252 720 q 1220 787 1255 727 q 1180 768 1184 768 m 167 768 q 157 744 167 764 q 228 713 222 717 l 228 711 q 218 696 223 696 q 203 711 205 696 q 191 707 195 707 l 149 724 l 140 699 l 140 698 q 184 671 184 684 l 184 669 q 197 673 192 673 q 208 668 208 672 q 201 651 205 651 l 199 651 l 130 678 l 130 677 q 120 652 120 656 q 165 630 165 637 l 165 626 l 167 626 q 178 629 168 626 l 198 621 q 237 662 237 635 q 233 673 237 665 q 253 694 248 680 q 256 703 253 699 q 238 739 248 739 q 222 756 222 744 q 212 751 214 751 l 168 768 l 167 768 m 1240 675 q 1219 659 1240 668 l 1216 648 l 1216 647 q 1223 614 1216 637 q 1210 610 1217 610 q 1202 627 1205 610 q 1213 633 1213 631 q 1205 657 1205 655 q 1177 637 1177 652 l 1177 629 q 1206 579 1184 579 l 1214 581 q 1223 575 1214 578 q 1246 593 1223 583 l 1249 604 l 1249 605 q 1241 637 1249 615 q 1256 644 1250 644 q 1262 626 1262 635 q 1252 621 1261 621 l 1259 595 q 1289 617 1289 600 q 1261 672 1280 672 l 1257 672 q 1252 671 1254 672 q 1240 675 1246 675 m 788 672 q 841 659 801 672 l 844 659 q 873 668 848 659 q 878 663 876 668 l 878 659 q 838 645 878 652 q 800 657 831 645 l 787 659 l 764 654 l 763 654 q 760 657 760 654 l 760 662 q 788 672 760 669 m 660 663 l 664 663 q 712 648 673 663 q 730 642 730 646 l 730 637 q 721 633 728 633 q 670 650 710 633 q 664 651 664 650 q 630 635 650 651 l 625 635 q 621 640 623 635 l 621 644 q 660 663 641 663 m 664 625 l 669 625 q 707 615 707 621 q 702 608 705 608 l 692 608 q 666 612 687 608 q 621 583 642 612 l 619 583 q 614 587 614 585 l 614 589 q 664 625 627 625 m 827 608 l 831 608 q 884 605 836 608 l 884 604 l 899 606 q 905 602 905 604 l 905 597 q 890 590 905 593 q 836 595 848 595 l 835 595 q 812 593 827 595 l 810 596 l 810 600 q 827 608 810 606 m 654 590 l 660 590 q 748 569 686 590 q 784 536 784 547 l 784 530 q 770 522 779 522 l 768 522 q 713 542 760 522 q 684 544 701 542 q 680 539 684 541 l 664 539 q 602 524 654 539 l 599 524 l 594 530 q 630 579 595 541 q 654 590 643 590 m 419 545 l 419 544 q 488 467 469 544 l 490 467 l 490 472 q 488 478 490 475 q 490 509 490 479 q 475 538 482 509 q 440 551 457 551 l 434 551 q 419 545 431 551 m 935 549 q 880 512 930 539 l 872 500 l 873 500 q 895 505 884 505 l 899 505 q 924 498 908 505 q 938 548 938 519 l 935 549 m 412 529 l 412 508 q 443 400 412 446 q 473 355 454 370 q 479 370 479 366 l 479 378 l 471 420 q 480 463 477 455 q 467 496 475 463 q 425 532 444 532 q 412 529 423 532 m 137 530 l 137 502 l 132 496 l 137 490 l 137 463 l 152 463 l 152 491 l 155 491 l 167 465 q 180 490 170 465 l 183 490 l 183 463 l 198 463 l 198 490 l 203 496 l 198 502 l 198 530 l 184 530 q 170 502 182 530 l 165 502 q 153 530 165 505 l 137 530 m 219 530 l 219 503 q 213 496 219 503 q 219 486 219 494 l 219 463 l 233 463 l 233 491 l 234 491 q 248 465 237 491 l 264 491 l 265 491 l 265 463 l 279 463 l 279 490 l 285 497 q 279 502 279 497 l 279 530 l 265 530 q 250 502 262 530 l 249 502 q 234 530 245 502 l 219 530 m 295 530 l 295 529 q 311 497 295 527 q 295 463 295 465 l 311 463 q 319 476 315 463 l 321 476 q 328 463 324 476 l 346 463 l 346 465 q 331 497 331 493 l 346 530 l 328 530 q 321 517 324 517 l 319 517 q 311 530 315 530 l 295 530 m 1000 530 l 1000 503 q 995 496 995 496 q 1000 486 1000 494 l 1000 463 l 1014 463 l 1014 491 l 1015 491 q 1029 465 1019 491 l 1045 491 l 1047 491 l 1047 463 l 1060 463 l 1060 490 l 1066 497 q 1060 502 1060 497 l 1060 530 l 1047 530 q 1032 502 1044 530 l 1030 502 q 1015 530 1027 502 l 1000 530 m 1081 530 l 1081 503 l 1076 496 q 1081 486 1081 494 l 1081 463 l 1095 463 l 1095 491 l 1096 491 q 1109 465 1100 491 l 1126 491 l 1128 491 l 1128 463 l 1141 463 l 1141 490 l 1147 497 q 1141 502 1141 497 l 1141 530 l 1128 530 q 1113 502 1124 530 l 1111 502 q 1096 530 1108 502 l 1081 530 m 1158 530 q 1174 496 1174 498 l 1158 463 l 1174 463 q 1181 476 1177 463 l 1183 476 q 1190 463 1186 476 l 1210 463 q 1194 497 1194 494 l 1210 530 l 1190 530 q 1183 517 1186 517 l 1181 517 q 1174 530 1177 530 l 1158 530 m 1221 530 q 1238 496 1238 498 l 1221 463 l 1238 463 q 1246 476 1242 463 l 1247 476 q 1255 463 1251 476 l 1274 463 q 1257 497 1257 494 l 1274 530 l 1255 530 q 1247 517 1251 517 l 1246 517 q 1238 530 1242 530 l 1221 530 m 692 527 q 737 512 734 522 l 737 508 q 733 503 737 506 q 694 514 709 514 l 692 514 q 652 497 652 507 q 648 493 649 493 l 644 493 q 639 502 639 494 q 692 527 639 517 m 440 511 q 449 503 446 509 l 443 454 q 454 427 446 427 l 460 430 q 465 426 465 428 l 465 421 q 458 414 465 419 l 452 414 q 430 454 435 414 q 434 493 434 481 l 434 498 l 433 507 q 440 511 437 511 m 699 508 q 754 481 730 508 l 754 476 q 697 451 734 451 q 645 482 645 460 l 645 486 q 699 508 667 508 m 763 502 l 768 502 q 784 478 784 489 q 775 463 782 463 q 769 467 769 465 l 769 481 l 758 493 l 758 497 q 763 502 758 499 m 702 494 q 705 486 705 490 l 705 478 q 702 465 705 474 l 703 465 q 736 481 736 468 q 702 494 718 494 m 896 493 q 899 484 899 487 q 893 467 897 475 l 895 467 q 918 487 918 467 q 896 493 907 493 m 660 482 l 660 479 l 661 479 l 661 482 l 660 482 m 861 478 l 861 472 q 865 469 862 469 l 865 471 l 863 478 l 861 478 m 458 472 q 467 469 462 472 q 464 452 464 458 l 465 439 l 460 436 q 449 454 452 436 q 458 472 452 472 m 758 466 l 763 466 q 768 461 765 466 l 768 460 q 741 418 768 448 l 739 418 q 732 426 735 418 l 754 457 q 758 466 755 466 m 880 454 l 869 454 l 861 456 q 886 372 863 426 q 887 340 887 352 l 887 334 q 881 312 887 321 q 909 292 888 312 l 911 292 q 918 343 911 295 l 927 429 q 923 442 926 442 q 897 400 923 418 l 895 400 q 890 405 892 400 l 890 408 q 912 454 912 429 l 912 458 q 880 454 894 454 m 805 437 l 810 437 q 815 426 814 437 l 814 418 l 818 397 l 818 394 q 809 390 817 390 q 800 430 802 390 l 800 433 q 805 437 800 435 m 633 436 l 639 436 q 684 414 659 414 l 691 414 q 724 421 699 414 l 726 418 l 726 412 q 690 400 716 400 q 630 431 630 408 l 630 433 q 633 436 631 436 m 1225 426 q 1223 400 1223 408 q 1242 387 1227 400 q 1220 375 1242 385 l 1217 351 q 1267 373 1263 373 l 1272 373 l 1280 366 q 1286 372 1282 366 l 1297 370 l 1302 370 l 1302 379 l 1304 390 q 1283 399 1289 390 q 1276 393 1276 395 q 1238 416 1265 393 l 1225 426 m 153 415 q 134 403 153 409 l 131 393 q 132 369 132 371 q 123 366 127 366 l 122 366 q 117 380 118 366 q 126 384 121 384 q 123 405 125 405 q 99 390 99 405 q 116 345 99 345 q 127 339 120 345 q 147 349 127 345 l 152 363 q 149 384 152 366 q 161 388 155 388 q 165 373 163 385 q 156 369 156 370 q 157 349 156 368 l 159 349 q 183 364 183 349 q 165 409 183 409 q 155 415 161 409 l 153 415 m 768 403 l 772 403 q 777 399 774 403 q 758 360 766 360 l 755 360 q 751 366 753 360 q 768 403 764 401 m 787 369 q 806 357 806 363 l 806 353 q 803 349 806 349 l 800 349 q 781 360 781 355 l 781 364 q 787 369 781 368 m 1204 288 q 1241 275 1241 280 l 1241 272 l 1249 276 q 1283 272 1273 272 l 1287 290 q 1265 294 1269 294 l 1265 296 q 1292 307 1267 298 l 1297 328 q 1267 321 1272 321 q 1234 342 1267 337 l 1226 342 q 1204 288 1211 342 m 152 326 q 146 330 152 328 q 111 313 146 320 q 110 312 110 313 q 116 294 113 294 q 141 298 134 298 q 156 266 146 266 l 157 266 q 199 285 199 269 l 199 288 l 189 333 q 152 326 159 326 m 1231 319 q 1249 312 1249 319 q 1244 300 1248 300 q 1226 307 1226 302 q 1231 319 1227 319 m 176 307 q 180 292 180 299 q 161 288 175 288 q 156 303 156 297 q 176 307 169 307 m 1181 224 q 1210 203 1181 211 q 1214 194 1213 194 q 1223 199 1221 199 q 1246 191 1229 195 q 1270 233 1261 191 l 1270 236 q 1242 255 1270 247 q 1238 262 1242 262 l 1234 260 l 1231 260 l 1205 267 q 1181 224 1192 267 m 174 254 q 165 256 170 254 q 152 243 165 250 q 131 233 131 239 q 138 216 137 216 q 167 227 162 227 q 174 209 170 227 q 146 199 147 199 l 146 197 q 153 179 150 179 q 186 189 181 189 q 193 188 188 188 q 228 208 193 197 l 228 210 q 207 266 212 250 q 174 254 178 254 m 1208 243 q 1249 230 1215 243 l 1249 229 q 1242 214 1246 214 q 1202 230 1202 228 q 1208 243 1205 243 m 197 239 q 204 221 200 235 q 192 216 195 216 q 184 234 186 224 q 197 239 193 239 m 805 215 l 802 216 q 773 210 793 212 q 753 201 767 201 q 743 204 750 201 q 732 200 735 200 q 734 197 732 197 l 760 197 q 854 222 854 207 q 831 224 839 224 l 830 224 q 805 215 810 215 m 1173 206 l 1144 149 q 1160 143 1154 143 q 1168 159 1168 157 l 1169 159 q 1187 143 1187 157 q 1196 146 1192 146 q 1226 131 1200 146 l 1227 131 q 1235 151 1235 148 q 1204 174 1204 163 q 1195 172 1198 172 q 1180 180 1180 178 q 1187 200 1187 193 q 1173 206 1177 206 m 204 176 q 195 179 201 176 q 163 153 195 167 q 174 136 170 140 q 210 153 205 153 q 188 113 203 138 q 197 94 188 109 l 227 111 q 235 109 228 109 q 262 130 235 119 q 267 136 267 133 q 259 151 259 149 l 223 134 l 223 136 l 244 173 q 234 193 244 180 l 204 176 m 836 178 q 842 153 838 153 l 845 153 q 850 163 850 155 l 850 168 q 844 179 850 176 l 839 179 l 836 178 m 812 172 q 808 155 809 168 q 815 144 810 144 q 820 146 818 146 l 820 164 q 821 165 820 165 q 812 172 820 172 m 779 164 l 781 149 l 781 140 q 785 136 781 138 l 788 136 q 791 138 791 136 l 791 158 l 790 165 l 783 165 l 779 164 m 1138 140 l 1103 91 q 1132 68 1103 90 l 1132 61 l 1141 62 q 1169 43 1151 56 l 1171 43 q 1181 60 1171 45 l 1156 79 q 1168 94 1164 94 q 1192 77 1175 90 l 1195 77 q 1205 94 1195 79 q 1177 115 1177 112 l 1177 122 l 1175 122 l 1165 121 q 1138 140 1162 125 m 833 106 q 836 103 833 103 l 844 103 q 846 127 846 119 q 845 131 845 130 l 839 131 q 833 106 833 131 m 250 98 l 241 100 q 223 80 241 87 q 213 71 223 79 q 225 55 223 55 l 253 75 l 262 73 l 262 80 l 291 103 q 280 119 280 117 q 250 98 279 119 m 794 106 l 794 92 q 798 90 795 90 l 802 90 q 806 109 806 90 l 806 118 l 799 118 q 794 106 794 117 m 1141 112 l 1143 112 q 1152 104 1152 106 q 1139 90 1143 91 q 1131 97 1131 95 l 1131 98 q 1141 112 1139 111 m 289 75 l 283 75 l 280 76 q 273 56 280 64 l 273 50 q 289 25 273 43 l 289 24 q 281 16 289 22 l 280 16 q 271 26 277 16 l 271 28 l 276 34 q 262 49 263 49 q 249 35 250 40 l 249 30 q 279 -6 249 17 l 288 -6 q 298 -2 293 -2 l 300 -2 l 302 -3 q 311 16 302 6 l 311 22 q 295 47 311 29 l 295 49 q 302 56 295 51 l 304 56 q 313 43 313 51 q 309 39 311 43 q 322 24 309 38 q 336 41 336 33 l 336 43 q 306 79 336 56 l 300 79 q 289 75 294 79 m 817 76 l 817 64 l 818 56 l 823 56 q 829 67 829 59 l 829 70 q 824 79 829 77 l 820 79 q 817 76 817 79 m 1056 37 l 1056 34 q 1081 12 1059 34 l 1081 4 l 1088 4 q 1114 -18 1090 4 l 1117 -18 q 1129 -3 1117 -16 q 1111 12 1114 12 l 1111 14 l 1141 9 l 1156 25 q 1126 34 1133 31 q 1129 45 1129 40 q 1098 73 1109 73 l 1095 73 q 1056 37 1086 73 m 787 25 l 790 24 l 794 24 q 803 46 798 26 q 802 50 802 49 l 794 50 q 787 25 790 50 m 1095 50 q 1107 40 1101 48 l 1107 35 q 1098 26 1107 33 q 1083 40 1083 38 q 1095 50 1090 50 m 814 20 l 814 14 q 818 10 814 12 l 821 10 q 827 30 825 10 l 823 33 l 820 33 q 814 20 816 33 m 322 3 l 323 -1 l 323 -8 l 302 -33 q 319 -47 315 -46 q 340 -23 333 -28 q 353 -35 353 -33 l 353 -36 q 334 -60 341 -50 l 334 -62 q 351 -74 336 -62 q 373 -47 351 -71 l 380 -47 l 380 -38 q 401 -9 401 -12 l 387 3 l 385 3 q 366 -21 385 -1 q 352 -9 352 -11 l 352 -8 q 370 14 352 -7 l 370 16 q 357 28 370 17 l 355 28 q 328 3 334 3 l 322 3 m 1004 -14 l 1004 -17 q 1019 -41 1004 -22 l 1019 -47 l 1017 -50 q 1035 -58 1029 -50 q 1045 -69 1035 -63 l 1051 -69 q 1087 -41 1064 -69 q 1088 -36 1088 -38 q 1074 -12 1088 -30 l 1074 -6 l 1076 -3 q 1053 13 1062 -3 q 1040 19 1046 19 q 1004 -14 1004 -1 m 1040 -3 q 1065 -39 1065 -34 q 1056 -47 1057 -47 l 1053 -47 q 1026 -16 1051 -46 l 1026 -12 q 1040 -3 1034 -3 m 939 -48 l 939 -51 l 956 -78 l 954 -89 q 977 -114 966 -89 q 979 -119 979 -114 q 1026 -84 1026 -98 l 1026 -81 q 1008 -51 1026 -74 q 985 -24 998 -24 q 939 -48 979 -24 m 981 -47 q 985 -56 985 -48 q 972 -64 979 -64 l 966 -54 q 981 -47 976 -47 m 464 -51 q 440 -84 452 -84 q 443 -93 443 -89 q 430 -124 443 -96 l 431 -124 q 449 -132 445 -132 l 461 -105 l 463 -105 q 486 -115 467 -105 q 494 -99 486 -113 q 470 -87 484 -96 q 477 -75 475 -75 q 511 -90 506 -90 l 512 -90 q 518 -75 512 -85 q 464 -50 465 -50 l 464 -51 m 866 -83 q 880 -115 880 -111 q 876 -123 880 -118 q 897 -157 887 -123 q 917 -149 917 -152 q 906 -119 906 -125 q 923 -113 922 -113 q 938 -141 936 -141 l 956 -134 l 942 -104 l 945 -93 q 924 -58 935 -93 q 866 -83 921 -58 m 995 -74 l 998 -74 q 1004 -81 1000 -74 l 1004 -83 q 990 -93 1002 -87 l 984 -84 l 984 -81 q 995 -74 984 -79 m 507 -117 q 511 -126 511 -122 q 506 -145 506 -142 l 506 -149 q 545 -170 506 -163 l 551 -170 q 568 -142 563 -170 q 576 -138 576 -139 q 573 -129 573 -133 q 579 -105 579 -107 q 533 -83 579 -90 q 515 -113 523 -83 q 507 -117 507 -115 m 911 -84 l 912 -84 q 916 -96 916 -94 l 899 -104 q 893 -92 895 -99 q 911 -84 905 -84 m 805 -100 l 812 -134 l 808 -141 l 808 -142 q 824 -178 819 -142 l 825 -178 l 878 -165 q 873 -149 873 -151 l 841 -156 q 836 -138 836 -145 q 841 -132 838 -138 q 825 -99 830 -132 q 824 -94 824 -99 q 805 -100 805 -98 m 597 -100 q 585 -139 593 -139 q 583 -141 583 -139 q 589 -149 587 -142 l 585 -181 l 587 -181 q 606 -182 587 -181 l 606 -181 l 610 -144 l 612 -144 q 633 -187 614 -147 q 652 -190 648 -190 q 664 -153 652 -157 q 659 -145 661 -146 l 664 -109 l 644 -106 q 636 -145 640 -145 q 614 -102 618 -102 q 597 -100 603 -100 m 542 -104 q 557 -109 557 -105 q 541 -150 546 -150 q 528 -144 528 -147 q 542 -104 538 -104 m 670 -109 l 670 -127 l 691 -127 q 694 -130 694 -128 l 694 -139 q 687 -151 694 -146 l 687 -153 q 694 -159 691 -153 l 694 -192 l 715 -192 l 715 -157 l 721 -151 l 713 -142 l 713 -129 q 717 -126 714 -126 l 736 -126 l 736 -109 l 670 -109 z "},"":{"ha":561,"x_min":0,"x_max":583,"o":"m 331 687 q 283 697 311 694 l 219 697 q 174 630 174 697 q 160 442 174 605 l 160 366 q 227 478 187 412 l 331 687 m 260 145 q 269 143 264 144 q 378 193 378 153 q 381 233 381 217 l 381 269 l 378 288 l 381 288 q 373 363 374 329 q 298 231 332 291 q 260 145 281 188 m 171 8 q 132 0 153 0 q 0 64 0 12 l 0 75 q 26 128 0 81 q 20 308 23 277 l 32 593 l 32 635 q 71 795 32 746 q 149 834 114 834 l 239 834 q 400 814 350 825 q 458 838 427 838 q 580 783 580 829 q 583 770 583 783 l 583 760 q 546 682 583 731 l 522 635 q 527 568 524 608 q 522 395 522 429 l 522 255 q 513 171 522 197 l 513 134 q 415 12 513 45 q 275 0 376 6 l 272 0 q 171 8 219 0 z "},"":{"ha":572,"x_min":14,"x_max":544,"o":"m 92 840 q 169 779 169 840 q 166 745 169 759 q 169 550 169 627 l 169 431 q 174 333 169 424 l 174 222 q 239 141 174 149 q 293 138 277 138 q 389 186 389 138 q 400 265 395 186 l 389 538 l 389 587 q 377 781 380 630 q 431 829 377 821 l 484 829 q 538 755 532 829 l 538 719 q 541 516 538 594 q 538 383 538 448 q 544 226 544 240 q 442 22 544 66 q 290 0 377 0 l 203 0 q 59 76 125 0 q 31 186 31 150 l 31 203 q 33 248 31 219 q 19 395 19 294 q 25 471 19 405 q 14 589 22 536 l 14 789 q 67 840 14 833 l 92 840 m 159 1130 q 235 1076 214 1130 q 300 954 256 1025 q 305 921 305 930 q 267 891 288 891 l 224 891 q 129 1013 179 891 q 96 1081 96 1061 l 96 1097 q 159 1130 111 1130 z "},"":{"ha":572,"x_min":14,"x_max":544,"o":"m 92 840 q 169 779 169 840 q 166 745 169 759 q 169 550 169 627 l 169 431 q 174 333 169 424 l 174 222 q 239 141 174 149 q 293 138 277 138 q 389 186 389 138 q 400 265 395 186 l 389 538 l 389 587 q 377 781 380 630 q 431 829 377 821 l 484 829 q 538 755 532 829 l 538 719 q 541 516 538 594 q 538 383 538 448 q 544 226 544 240 q 442 22 544 66 q 290 0 377 0 l 203 0 q 59 76 125 0 q 31 186 31 150 l 31 203 q 33 248 31 219 q 19 395 19 294 q 25 471 19 405 q 14 589 22 536 l 14 789 q 67 840 14 833 l 92 840 m 355 1116 q 414 1084 399 1116 l 414 1067 q 357 951 414 1053 q 287 878 327 878 l 243 878 q 205 913 205 889 q 257 1021 205 935 q 344 1116 291 1116 l 355 1116 z "},"":{"ha":572,"x_min":14,"x_max":551,"o":"m 92 840 q 169 779 169 840 q 166 745 169 759 q 169 550 169 627 l 169 431 q 174 333 169 424 l 174 222 q 239 141 174 149 q 293 138 277 138 q 389 186 389 138 q 400 265 395 186 l 389 538 l 389 587 q 377 781 380 630 q 431 829 377 821 l 484 829 q 538 755 532 829 l 538 719 q 541 516 538 594 q 538 383 538 448 q 544 226 544 240 q 442 22 544 66 q 290 0 377 0 l 203 0 q 59 76 125 0 q 31 186 31 150 l 31 203 q 33 248 31 219 q 19 395 19 294 q 25 471 19 405 q 14 589 22 536 l 14 789 q 67 840 14 833 l 92 840 m 305 1141 q 465 1021 331 1141 q 551 932 551 978 l 551 920 q 509 860 551 860 q 422 915 491 860 q 290 999 326 985 q 186 930 290 996 q 72 852 87 852 l 64 852 q 27 912 27 852 l 27 924 q 102 1006 27 968 q 253 1126 199 1089 q 305 1141 288 1141 z "},"":{"ha":572,"x_min":14,"x_max":544,"o":"m 92 840 q 169 779 169 840 q 166 745 169 759 q 169 550 169 627 l 169 431 q 174 333 169 424 l 174 222 q 239 141 174 149 q 293 138 277 138 q 389 186 389 138 q 400 265 395 186 l 389 538 l 389 587 q 377 781 380 630 q 431 829 377 821 l 484 829 q 538 755 532 829 l 538 719 q 541 516 538 594 q 538 383 538 448 q 544 226 544 240 q 442 22 544 66 q 290 0 377 0 l 203 0 q 59 76 125 0 q 31 186 31 150 l 31 203 q 33 248 31 219 q 19 395 19 294 q 25 471 19 405 q 14 589 22 536 l 14 789 q 67 840 14 833 l 92 840 m 444 1089 l 454 1089 q 535 1023 535 1089 l 535 951 q 497 895 535 918 l 376 895 q 341 955 346 895 q 354 1042 350 993 q 444 1089 366 1089 m 71 1085 l 171 1085 q 214 1032 203 1085 l 214 945 q 124 886 214 892 l 102 886 q 24 932 39 886 l 24 958 q 52 1069 35 1069 q 71 1085 52 1074 z "},"":{"ha":498,"x_min":-31,"x_max":491,"o":"m 406 823 l 434 821 q 487 752 491 817 q 487 709 488 716 q 436 399 453 399 q 387 349 435 378 q 289 323 336 329 q 270 296 279 317 l 273 291 l 271 256 l 269 60 q 203 -1 265 -5 l 189 0 q 117 42 115 5 q 115 54 115 42 q 121 101 117 72 q 119 153 122 111 q 125 203 123 179 l 126 218 q 111 340 134 339 q 28 389 77 343 q -20 562 -26 471 l -31 785 l -31 787 q 32 840 -28 835 q 112 762 117 835 q 148 477 107 480 l 199 475 q 306 496 304 468 q 332 642 315 520 l 339 750 q 380 821 343 814 q 406 823 396 823 m 314 1123 q 374 1090 359 1123 l 374 1074 q 317 958 374 1060 q 246 884 286 884 l 203 884 q 165 920 165 896 q 216 1028 165 942 q 303 1123 250 1123 l 314 1123 z "},"":{"ha":1408,"x_min":58,"x_max":1344,"o":"m 702 1126 q 1152 934 952 1126 q 1274 759 1238 838 q 1344 461 1344 610 l 1344 437 q 1153 -33 1344 178 q 702 -228 954 -228 q 238 -21 440 -228 q 58 451 58 184 q 248 929 58 722 q 702 1126 446 1126 m 684 1095 q 687 1021 687 1042 q 688 1016 688 1017 l 682 1011 l 670 1011 q 663 1089 663 1011 q 661 1094 661 1089 q 639 1092 646 1092 l 634 1092 q 637 1046 636 1082 q 629 1037 635 1046 q 639 1023 639 1032 l 639 1008 q 660 987 639 987 l 663 987 q 713 1001 713 987 q 715 1010 713 1002 q 713 1034 713 1025 q 722 1043 715 1034 q 712 1052 718 1043 l 712 1055 q 711 1095 712 1067 l 684 1095 m 760 1092 q 755 1069 758 1088 q 783 1062 783 1067 q 769 1036 783 1042 q 777 1026 771 1036 q 769 983 770 985 q 795 979 779 983 q 814 1028 800 1028 l 806 1038 q 810 1061 808 1054 q 838 1056 834 1056 l 838 1058 q 841 1079 838 1063 q 760 1092 770 1092 m 516 1052 q 524 1019 516 1042 q 518 1011 522 1019 l 518 1008 q 536 977 530 1008 q 553 966 543 966 q 608 989 608 977 l 608 995 q 603 1019 608 1002 q 576 1011 579 1011 q 579 998 579 1004 q 559 994 572 994 q 555 1015 555 1003 q 559 1023 559 1016 q 545 1047 547 1023 q 563 1053 549 1050 q 567 1041 567 1048 l 594 1048 q 573 1079 589 1079 l 567 1079 q 516 1052 516 1071 m 876 1067 q 869 1047 869 1049 q 895 1036 895 1038 q 875 1011 888 1011 q 880 1000 880 1004 q 866 959 866 965 q 890 950 886 950 q 917 995 903 995 q 912 1007 912 1002 q 922 1026 918 1026 q 945 1017 941 1017 l 954 1038 q 876 1068 885 1067 l 876 1067 m 389 1006 q 410 964 408 972 l 407 953 q 430 929 422 953 q 440 913 431 929 q 500 955 500 940 q 485 987 500 963 q 488 1000 488 993 q 469 1019 474 1000 q 446 1034 461 1034 q 389 1006 440 1034 m 995 1016 q 968 977 972 977 q 959 975 960 975 q 962 965 959 972 q 938 926 938 928 q 1000 887 996 887 q 1010 907 1010 901 q 972 934 976 928 q 983 945 981 945 l 984 945 l 1010 929 q 1023 949 1013 930 q 996 968 996 963 q 1006 981 1002 979 q 1044 956 1008 979 q 1057 975 1047 957 q 995 1016 1054 977 m 443 1006 q 470 959 445 1006 l 470 958 q 452 947 460 947 q 425 998 431 984 q 443 1006 439 1006 m 291 918 q 313 884 291 910 l 311 874 l 322 874 q 353 848 345 848 q 399 886 369 848 l 401 893 q 380 925 401 900 l 380 926 l 382 935 l 372 935 q 337 962 347 962 q 292 925 323 962 l 291 918 m 1095 943 q 1062 910 1095 941 l 1055 911 l 1051 911 l 1051 899 l 1021 868 q 1040 850 1021 866 l 1062 871 l 1063 871 q 1055 833 1055 836 l 1076 814 l 1086 852 q 1098 848 1097 848 l 1101 848 q 1139 884 1114 848 l 1139 889 q 1095 943 1139 903 m 332 932 l 336 932 q 372 892 347 922 l 372 889 q 359 878 372 887 l 357 878 q 321 919 346 887 l 321 922 q 332 932 321 923 m 413 672 l 414 662 l 414 584 q 374 515 374 569 q 394 412 374 458 q 425 354 397 411 q 448 321 448 326 l 448 318 l 446 307 q 452 269 448 290 q 449 245 449 260 q 450 233 450 234 l 449 230 q 461 178 454 178 q 476 144 476 165 q 503 113 481 130 q 528 92 513 92 q 552 55 552 58 q 591 5 572 5 q 603 -23 599 5 q 640 -47 614 -39 q 690 -71 652 -61 q 700 -72 699 -71 q 777 -66 723 -68 q 808 -50 793 -60 q 856 -26 831 -50 q 908 30 902 -26 q 935 106 920 45 q 960 174 960 134 q 969 204 969 188 l 969 215 q 983 264 983 249 q 978 282 981 277 q 979 306 979 297 l 979 312 q 978 319 979 317 q 979 330 979 326 q 962 394 979 357 q 964 410 963 410 l 963 414 l 963 429 q 956 465 963 442 q 968 490 968 474 l 966 500 q 974 541 974 519 l 974 549 q 979 575 979 566 l 966 621 l 968 645 q 944 729 968 664 q 881 817 922 779 q 808 878 850 864 q 648 910 713 910 l 636 910 q 549 892 602 910 q 480 848 519 881 q 424 753 447 806 q 413 672 418 730 m 1098 907 q 1111 890 1111 897 l 1095 876 l 1092 876 q 1080 887 1090 876 l 1080 889 q 1098 907 1080 891 m 621 895 q 795 867 720 895 q 863 819 854 835 q 903 751 881 804 q 944 648 925 727 l 944 647 q 942 618 944 642 q 951 581 948 601 q 956 576 954 581 l 956 574 q 948 562 956 563 l 951 547 q 938 496 951 522 q 944 491 944 495 l 944 487 q 939 482 944 485 l 930 482 q 926 469 930 477 q 941 424 932 469 l 941 418 q 938 385 938 395 q 954 343 947 374 q 956 332 954 342 l 954 321 q 957 303 957 306 q 951 282 957 300 q 959 262 959 269 q 945 219 959 255 q 937 173 945 194 q 922 127 937 149 q 901 71 911 119 q 882 30 901 68 l 882 28 q 884 22 882 27 q 857 -2 876 -2 q 818 -24 844 -2 q 777 -41 798 -24 l 702 -48 l 700 -48 q 655 -31 686 -48 q 629 -17 655 -24 q 623 4 623 -10 q 624 19 623 6 q 585 43 585 28 q 574 65 574 56 q 578 75 574 68 q 543 115 565 75 q 519 130 526 115 q 503 146 519 134 l 491 182 q 475 221 475 189 q 473 233 473 227 l 473 234 q 475 236 473 236 l 473 239 q 475 275 475 272 q 470 312 470 304 l 471 319 l 467 342 q 409 439 452 347 q 398 512 398 482 l 398 518 q 430 564 398 555 l 440 564 l 440 566 q 437 611 440 587 q 439 637 439 625 q 437 672 439 652 q 501 840 437 777 q 579 889 535 875 q 621 895 583 889 m 452 688 q 454 684 452 687 q 450 668 450 676 q 452 635 450 657 q 450 610 450 614 q 454 562 454 572 q 490 532 490 548 l 491 532 q 498 542 491 538 l 501 542 l 511 534 q 537 538 531 538 l 542 532 l 542 529 q 522 409 522 446 q 534 373 530 393 q 552 351 552 364 q 572 327 572 348 l 589 328 l 610 327 q 625 333 621 333 q 630 328 627 333 q 627 315 627 317 q 630 302 630 305 q 629 297 629 298 q 646 275 646 286 l 646 269 q 666 246 660 269 q 661 222 661 228 q 663 210 663 214 l 664 210 q 706 281 678 243 q 736 337 724 309 l 741 337 q 745 332 745 337 q 722 285 743 315 l 724 285 q 760 302 759 293 q 766 303 763 302 q 787 302 779 302 q 805 307 789 302 l 805 309 l 800 309 q 781 306 794 309 q 751 330 751 313 l 751 334 q 755 343 752 343 l 760 343 q 764 327 763 343 q 778 319 772 319 q 802 322 797 322 q 850 306 835 306 q 875 336 875 306 q 857 409 875 378 q 848 475 848 448 l 848 478 q 881 529 848 497 q 926 574 892 529 q 938 579 928 574 q 929 618 935 602 q 930 642 930 633 l 930 645 q 905 726 919 701 l 880 771 q 854 806 869 780 q 778 857 817 844 q 666 882 696 882 l 651 882 l 642 880 q 636 882 640 882 q 537 848 550 869 q 485 795 511 827 q 452 688 452 756 m 208 819 q 237 790 208 812 q 238 780 238 784 l 252 781 q 285 764 270 764 q 322 808 308 779 l 322 814 q 295 842 322 824 l 295 853 l 292 853 l 281 852 q 249 871 260 871 q 208 825 233 871 l 208 819 m 597 854 q 616 837 616 848 l 616 832 q 582 810 614 826 l 576 810 q 561 827 561 816 l 561 829 q 597 854 561 846 m 573 825 l 576 823 l 581 823 l 603 837 q 594 841 602 841 q 573 825 573 836 m 248 841 l 252 841 q 294 806 291 813 q 283 793 288 795 l 280 793 q 237 827 237 823 q 248 841 243 839 m 530 806 l 534 806 q 548 793 548 805 l 548 787 q 528 758 548 781 q 491 702 519 702 q 479 722 479 707 l 479 735 q 521 804 479 772 q 530 806 526 806 m 1095 791 l 1095 790 q 1105 774 1095 781 l 1111 774 q 1120 781 1120 779 l 1120 784 q 1107 801 1116 801 q 1095 791 1095 795 m 491 733 l 491 722 l 492 714 l 495 714 q 518 765 507 714 q 537 789 532 781 l 537 791 q 533 796 537 794 q 497 759 513 788 q 491 733 491 745 m 1180 768 q 1169 769 1175 769 q 1126 739 1169 757 q 1160 672 1154 689 q 1181 684 1177 680 l 1160 726 l 1175 733 q 1190 705 1190 709 q 1211 714 1194 705 q 1198 743 1211 720 l 1198 744 q 1213 751 1198 747 l 1214 751 q 1235 711 1221 733 q 1255 720 1252 720 q 1220 787 1255 727 q 1180 768 1184 768 m 167 768 q 157 744 167 764 q 228 713 222 717 l 228 711 q 218 696 223 696 q 203 711 205 696 q 191 707 195 707 l 149 724 l 140 699 l 140 698 q 184 671 184 684 l 184 669 q 197 673 192 673 q 208 668 208 672 q 201 651 205 651 l 199 651 l 130 678 l 130 677 q 120 652 120 656 q 165 630 165 637 l 165 626 l 167 626 q 178 629 168 626 l 198 621 q 237 662 237 635 q 233 673 237 665 q 253 694 248 680 q 256 703 253 699 q 238 739 248 739 q 222 756 222 744 q 212 751 214 751 l 168 768 l 167 768 m 1240 675 q 1219 659 1240 668 l 1216 648 l 1216 647 q 1223 614 1216 637 q 1210 610 1217 610 q 1202 627 1205 610 q 1213 633 1213 631 q 1205 657 1205 655 q 1177 637 1177 652 l 1177 629 q 1206 579 1184 579 l 1214 581 q 1223 575 1214 578 q 1246 593 1223 583 l 1249 604 l 1249 605 q 1241 637 1249 615 q 1256 644 1250 644 q 1262 626 1262 635 q 1252 621 1261 621 l 1259 595 q 1289 617 1289 600 q 1261 672 1280 672 l 1257 672 q 1252 671 1254 672 q 1240 675 1246 675 m 788 672 q 841 659 801 672 l 844 659 q 873 668 848 659 q 878 663 876 668 l 878 659 q 838 645 878 652 q 800 657 831 645 l 787 659 l 764 654 l 763 654 q 760 657 760 654 l 760 662 q 788 672 760 669 m 660 663 l 664 663 q 712 648 673 663 q 730 642 730 646 l 730 637 q 721 633 728 633 q 670 650 710 633 q 664 651 664 650 q 630 635 650 651 l 625 635 q 621 640 623 635 l 621 644 q 660 663 641 663 m 664 625 l 669 625 q 707 615 707 621 q 702 608 705 608 l 692 608 q 666 612 687 608 q 621 583 642 612 l 619 583 q 614 587 614 585 l 614 589 q 664 625 627 625 m 827 608 l 831 608 q 884 605 836 608 l 884 604 l 899 606 q 905 602 905 604 l 905 597 q 890 590 905 593 q 836 595 848 595 l 835 595 q 812 593 827 595 l 810 596 l 810 600 q 827 608 810 606 m 654 590 l 660 590 q 748 569 686 590 q 784 536 784 547 l 784 530 q 770 522 779 522 l 768 522 q 713 542 760 522 q 684 544 701 542 q 680 539 684 541 l 664 539 q 602 524 654 539 l 599 524 l 594 530 q 630 579 595 541 q 654 590 643 590 m 419 545 l 419 544 q 488 467 469 544 l 490 467 l 490 472 q 488 478 490 475 q 490 509 490 479 q 475 538 482 509 q 440 551 457 551 l 434 551 q 419 545 431 551 m 935 549 q 880 512 930 539 l 872 500 l 873 500 q 895 505 884 505 l 899 505 q 924 498 908 505 q 938 548 938 519 l 935 549 m 412 529 l 412 508 q 443 400 412 446 q 473 355 454 370 q 479 370 479 366 l 479 378 l 471 420 q 480 463 477 455 q 467 496 475 463 q 425 532 444 532 q 412 529 423 532 m 137 530 l 137 502 l 132 496 l 137 490 l 137 463 l 152 463 l 152 491 l 155 491 l 167 465 q 180 490 170 465 l 183 490 l 183 463 l 198 463 l 198 490 l 203 496 l 198 502 l 198 530 l 184 530 q 170 502 182 530 l 165 502 q 153 530 165 505 l 137 530 m 219 530 l 219 503 q 213 496 219 503 q 219 486 219 494 l 219 463 l 233 463 l 233 491 l 234 491 q 248 465 237 491 l 264 491 l 265 491 l 265 463 l 279 463 l 279 490 l 285 497 q 279 502 279 497 l 279 530 l 265 530 q 250 502 262 530 l 249 502 q 234 530 245 502 l 219 530 m 295 530 l 295 529 q 311 497 295 527 q 295 463 295 465 l 311 463 q 319 476 315 463 l 321 476 q 328 463 324 476 l 346 463 l 346 465 q 331 497 331 493 l 346 530 l 328 530 q 321 517 324 517 l 319 517 q 311 530 315 530 l 295 530 m 1000 530 l 1000 503 q 995 496 995 496 q 1000 486 1000 494 l 1000 463 l 1014 463 l 1014 491 l 1015 491 q 1029 465 1019 491 l 1045 491 l 1047 491 l 1047 463 l 1060 463 l 1060 490 l 1066 497 q 1060 502 1060 497 l 1060 530 l 1047 530 q 1032 502 1044 530 l 1030 502 q 1015 530 1027 502 l 1000 530 m 1081 530 l 1081 503 l 1076 496 q 1081 486 1081 494 l 1081 463 l 1095 463 l 1095 491 l 1096 491 q 1109 465 1100 491 l 1126 491 l 1128 491 l 1128 463 l 1141 463 l 1141 490 l 1147 497 q 1141 502 1141 497 l 1141 530 l 1128 530 q 1113 502 1124 530 l 1111 502 q 1096 530 1108 502 l 1081 530 m 1158 530 q 1174 496 1174 498 l 1158 463 l 1174 463 q 1181 476 1177 463 l 1183 476 q 1190 463 1186 476 l 1210 463 q 1194 497 1194 494 l 1210 530 l 1190 530 q 1183 517 1186 517 l 1181 517 q 1174 530 1177 530 l 1158 530 m 1221 530 q 1238 496 1238 498 l 1221 463 l 1238 463 q 1246 476 1242 463 l 1247 476 q 1255 463 1251 476 l 1274 463 q 1257 497 1257 494 l 1274 530 l 1255 530 q 1247 517 1251 517 l 1246 517 q 1238 530 1242 530 l 1221 530 m 692 527 q 737 512 734 522 l 737 508 q 733 503 737 506 q 694 514 709 514 l 692 514 q 652 497 652 507 q 648 493 649 493 l 644 493 q 639 502 639 494 q 692 527 639 517 m 440 511 q 449 503 446 509 l 443 454 q 454 427 446 427 l 460 430 q 465 426 465 428 l 465 421 q 458 414 465 419 l 452 414 q 430 454 435 414 q 434 493 434 481 l 434 498 l 433 507 q 440 511 437 511 m 699 508 q 754 481 730 508 l 754 476 q 697 451 734 451 q 645 482 645 460 l 645 486 q 699 508 667 508 m 763 502 l 768 502 q 784 478 784 489 q 775 463 782 463 q 769 467 769 465 l 769 481 l 758 493 l 758 497 q 763 502 758 499 m 702 494 q 705 486 705 490 l 705 478 q 702 465 705 474 l 703 465 q 736 481 736 468 q 702 494 718 494 m 896 493 q 899 484 899 487 q 893 467 897 475 l 895 467 q 918 487 918 467 q 896 493 907 493 m 660 482 l 660 479 l 661 479 l 661 482 l 660 482 m 861 478 l 861 472 q 865 469 862 469 l 865 471 l 863 478 l 861 478 m 458 472 q 467 469 462 472 q 464 452 464 458 l 465 439 l 460 436 q 449 454 452 436 q 458 472 452 472 m 758 466 l 763 466 q 768 461 765 466 l 768 460 q 741 418 768 448 l 739 418 q 732 426 735 418 l 754 457 q 758 466 755 466 m 880 454 l 869 454 l 861 456 q 886 372 863 426 q 887 340 887 352 l 887 334 q 881 312 887 321 q 909 292 888 312 l 911 292 q 918 343 911 295 l 927 429 q 923 442 926 442 q 897 400 923 418 l 895 400 q 890 405 892 400 l 890 408 q 912 454 912 429 l 912 458 q 880 454 894 454 m 805 437 l 810 437 q 815 426 814 437 l 814 418 l 818 397 l 818 394 q 809 390 817 390 q 800 430 802 390 l 800 433 q 805 437 800 435 m 633 436 l 639 436 q 684 414 659 414 l 691 414 q 724 421 699 414 l 726 418 l 726 412 q 690 400 716 400 q 630 431 630 408 l 630 433 q 633 436 631 436 m 1225 426 q 1223 400 1223 408 q 1242 387 1227 400 q 1220 375 1242 385 l 1217 351 q 1267 373 1263 373 l 1272 373 l 1280 366 q 1286 372 1282 366 l 1297 370 l 1302 370 l 1302 379 l 1304 390 q 1283 399 1289 390 q 1276 393 1276 395 q 1238 416 1265 393 l 1225 426 m 153 415 q 134 403 153 409 l 131 393 q 132 369 132 371 q 123 366 127 366 l 122 366 q 117 380 118 366 q 126 384 121 384 q 123 405 125 405 q 99 390 99 405 q 116 345 99 345 q 127 339 120 345 q 147 349 127 345 l 152 363 q 149 384 152 366 q 161 388 155 388 q 165 373 163 385 q 156 369 156 370 q 157 349 156 368 l 159 349 q 183 364 183 349 q 165 409 183 409 q 155 415 161 409 l 153 415 m 768 403 l 772 403 q 777 399 774 403 q 758 360 766 360 l 755 360 q 751 366 753 360 q 768 403 764 401 m 787 369 q 806 357 806 363 l 806 353 q 803 349 806 349 l 800 349 q 781 360 781 355 l 781 364 q 787 369 781 368 m 1204 288 q 1241 275 1241 280 l 1241 272 l 1249 276 q 1283 272 1273 272 l 1287 290 q 1265 294 1269 294 l 1265 296 q 1292 307 1267 298 l 1297 328 q 1267 321 1272 321 q 1234 342 1267 337 l 1226 342 q 1204 288 1211 342 m 152 326 q 146 330 152 328 q 111 313 146 320 q 110 312 110 313 q 116 294 113 294 q 141 298 134 298 q 156 266 146 266 l 157 266 q 199 285 199 269 l 199 288 l 189 333 q 152 326 159 326 m 1231 319 q 1249 312 1249 319 q 1244 300 1248 300 q 1226 307 1226 302 q 1231 319 1227 319 m 176 307 q 180 292 180 299 q 161 288 175 288 q 156 303 156 297 q 176 307 169 307 m 1181 224 q 1210 203 1181 211 q 1214 194 1213 194 q 1223 199 1221 199 q 1246 191 1229 195 q 1270 233 1261 191 l 1270 236 q 1242 255 1270 247 q 1238 262 1242 262 l 1234 260 l 1231 260 l 1205 267 q 1181 224 1192 267 m 174 254 q 165 256 170 254 q 152 243 165 250 q 131 233 131 239 q 138 216 137 216 q 167 227 162 227 q 174 209 170 227 q 146 199 147 199 l 146 197 q 153 179 150 179 q 186 189 181 189 q 193 188 188 188 q 228 208 193 197 l 228 210 q 207 266 212 250 q 174 254 178 254 m 1208 243 q 1249 230 1215 243 l 1249 229 q 1242 214 1246 214 q 1202 230 1202 228 q 1208 243 1205 243 m 197 239 q 204 221 200 235 q 192 216 195 216 q 184 234 186 224 q 197 239 193 239 m 805 215 l 802 216 q 773 210 793 212 q 753 201 767 201 q 743 204 750 201 q 732 200 735 200 q 734 197 732 197 l 760 197 q 854 222 854 207 q 831 224 839 224 l 830 224 q 805 215 810 215 m 1173 206 l 1144 149 q 1160 143 1154 143 q 1168 159 1168 157 l 1169 159 q 1187 143 1187 157 q 1196 146 1192 146 q 1226 131 1200 146 l 1227 131 q 1235 151 1235 148 q 1204 174 1204 163 q 1195 172 1198 172 q 1180 180 1180 178 q 1187 200 1187 193 q 1173 206 1177 206 m 204 176 q 195 179 201 176 q 163 153 195 167 q 174 136 170 140 q 210 153 205 153 q 188 113 203 138 q 197 94 188 109 l 227 111 q 235 109 228 109 q 262 130 235 119 q 267 136 267 133 q 259 151 259 149 l 223 134 l 223 136 l 244 173 q 234 193 244 180 l 204 176 m 836 178 q 842 153 838 153 l 845 153 q 850 163 850 155 l 850 168 q 844 179 850 176 l 839 179 l 836 178 m 812 172 q 808 155 809 168 q 815 144 810 144 q 820 146 818 146 l 820 164 q 821 165 820 165 q 812 172 820 172 m 779 164 l 781 149 l 781 140 q 785 136 781 138 l 788 136 q 791 138 791 136 l 791 158 l 790 165 l 783 165 l 779 164 m 1138 140 l 1103 91 q 1132 68 1103 90 l 1132 61 l 1141 62 q 1169 43 1151 56 l 1171 43 q 1181 60 1171 45 l 1156 79 q 1168 94 1164 94 q 1192 77 1175 90 l 1195 77 q 1205 94 1195 79 q 1177 115 1177 112 l 1177 122 l 1175 122 l 1165 121 q 1138 140 1162 125 m 833 106 q 836 103 833 103 l 844 103 q 846 127 846 119 q 845 131 845 130 l 839 131 q 833 106 833 131 m 250 98 l 241 100 q 223 80 241 87 q 213 71 223 79 q 225 55 223 55 l 253 75 l 262 73 l 262 80 l 291 103 q 280 119 280 117 q 250 98 279 119 m 794 106 l 794 92 q 798 90 795 90 l 802 90 q 806 109 806 90 l 806 118 l 799 118 q 794 106 794 117 m 1141 112 l 1143 112 q 1152 104 1152 106 q 1139 90 1143 91 q 1131 97 1131 95 l 1131 98 q 1141 112 1139 111 m 289 75 l 283 75 l 280 76 q 273 56 280 64 l 273 50 q 289 25 273 43 l 289 24 q 281 16 289 22 l 280 16 q 271 26 277 16 l 271 28 l 276 34 q 262 49 263 49 q 249 35 250 40 l 249 30 q 279 -6 249 17 l 288 -6 q 298 -2 293 -2 l 300 -2 l 302 -3 q 311 16 302 6 l 311 22 q 295 47 311 29 l 295 49 q 302 56 295 51 l 304 56 q 313 43 313 51 q 309 39 311 43 q 322 24 309 38 q 336 41 336 33 l 336 43 q 306 79 336 56 l 300 79 q 289 75 294 79 m 817 76 l 817 64 l 818 56 l 823 56 q 829 67 829 59 l 829 70 q 824 79 829 77 l 820 79 q 817 76 817 79 m 1056 37 l 1056 34 q 1081 12 1059 34 l 1081 4 l 1088 4 q 1114 -18 1090 4 l 1117 -18 q 1129 -3 1117 -16 q 1111 12 1114 12 l 1111 14 l 1141 9 l 1156 25 q 1126 34 1133 31 q 1129 45 1129 40 q 1098 73 1109 73 l 1095 73 q 1056 37 1086 73 m 787 25 l 790 24 l 794 24 q 803 46 798 26 q 802 50 802 49 l 794 50 q 787 25 790 50 m 1095 50 q 1107 40 1101 48 l 1107 35 q 1098 26 1107 33 q 1083 40 1083 38 q 1095 50 1090 50 m 814 20 l 814 14 q 818 10 814 12 l 821 10 q 827 30 825 10 l 823 33 l 820 33 q 814 20 816 33 m 322 3 l 323 -1 l 323 -8 l 302 -33 q 319 -47 315 -46 q 340 -23 333 -28 q 353 -35 353 -33 l 353 -36 q 334 -60 341 -50 l 334 -62 q 351 -74 336 -62 q 373 -47 351 -71 l 380 -47 l 380 -38 q 401 -9 401 -12 l 387 3 l 385 3 q 366 -21 385 -1 q 352 -9 352 -11 l 352 -8 q 370 14 352 -7 l 370 16 q 357 28 370 17 l 355 28 q 328 3 334 3 l 322 3 m 1004 -14 l 1004 -17 q 1019 -41 1004 -22 l 1019 -47 l 1017 -50 q 1035 -58 1029 -50 q 1045 -69 1035 -63 l 1051 -69 q 1087 -41 1064 -69 q 1088 -36 1088 -38 q 1074 -12 1088 -30 l 1074 -6 l 1076 -3 q 1053 13 1062 -3 q 1040 19 1046 19 q 1004 -14 1004 -1 m 1040 -3 q 1065 -39 1065 -34 q 1056 -47 1057 -47 l 1053 -47 q 1026 -16 1051 -46 l 1026 -12 q 1040 -3 1034 -3 m 939 -48 l 939 -51 l 956 -78 l 954 -89 q 977 -114 966 -89 q 979 -119 979 -114 q 1026 -84 1026 -98 l 1026 -81 q 1008 -51 1026 -74 q 985 -24 998 -24 q 939 -48 979 -24 m 981 -47 q 985 -56 985 -48 q 972 -64 979 -64 l 966 -54 q 981 -47 976 -47 m 464 -51 q 440 -84 452 -84 q 443 -93 443 -89 q 430 -124 443 -96 l 431 -124 q 449 -132 445 -132 l 461 -105 l 463 -105 q 486 -115 467 -105 q 494 -99 486 -113 q 470 -87 484 -96 q 477 -75 475 -75 q 511 -90 506 -90 l 512 -90 q 518 -75 512 -85 q 464 -50 465 -50 l 464 -51 m 866 -83 q 880 -115 880 -111 q 876 -123 880 -118 q 897 -157 887 -123 q 917 -149 917 -152 q 906 -119 906 -125 q 923 -113 922 -113 q 938 -141 936 -141 l 956 -134 l 942 -104 l 945 -93 q 924 -58 935 -93 q 866 -83 921 -58 m 995 -74 l 998 -74 q 1004 -81 1000 -74 l 1004 -83 q 990 -93 1002 -87 l 984 -84 l 984 -81 q 995 -74 984 -79 m 507 -117 q 511 -126 511 -122 q 506 -145 506 -142 l 506 -149 q 545 -170 506 -163 l 551 -170 q 568 -142 563 -170 q 576 -138 576 -139 q 573 -129 573 -133 q 579 -105 579 -107 q 533 -83 579 -90 q 515 -113 523 -83 q 507 -117 507 -115 m 911 -84 l 912 -84 q 916 -96 916 -94 l 899 -104 q 893 -92 895 -99 q 911 -84 905 -84 m 805 -100 l 812 -134 l 808 -141 l 808 -142 q 824 -178 819 -142 l 825 -178 l 878 -165 q 873 -149 873 -151 l 841 -156 q 836 -138 836 -145 q 841 -132 838 -138 q 825 -99 830 -132 q 824 -94 824 -99 q 805 -100 805 -98 m 597 -100 q 585 -139 593 -139 q 583 -141 583 -139 q 589 -149 587 -142 l 585 -181 l 587 -181 q 606 -182 587 -181 l 606 -181 l 610 -144 l 612 -144 q 633 -187 614 -147 q 652 -190 648 -190 q 664 -153 652 -157 q 659 -145 661 -146 l 664 -109 l 644 -106 q 636 -145 640 -145 q 614 -102 618 -102 q 597 -100 603 -100 m 542 -104 q 557 -109 557 -105 q 541 -150 546 -150 q 528 -144 528 -147 q 542 -104 538 -104 m 670 -109 l 670 -127 l 691 -127 q 694 -130 694 -128 l 694 -139 q 687 -151 694 -146 l 687 -153 q 694 -159 691 -153 l 694 -192 l 715 -192 l 715 -157 l 721 -151 l 713 -142 l 713 -129 q 717 -126 714 -126 l 736 -126 l 736 -109 l 670 -109 z "}}}
